<svg width="155" height="40" viewBox="0 0 155 40" fill="none" xmlns="http://www.w3.org/2000/svg">
<g clip-path="url(#clip0_1933_75)">
<path d="M84.1381 34.0443V25.5007H86.5303L86.7353 26.5431H86.8037C87.1454 26.2127 87.5099 25.9222 87.8973 25.6716C88.296 25.421 88.7858 25.2957 89.3667 25.2957C89.9477 25.2957 90.4262 25.4153 90.8021 25.6545C91.1894 25.8823 91.497 26.2184 91.7248 26.6627C92.0779 26.2981 92.4595 25.9792 92.8696 25.7058C93.2797 25.4324 93.7753 25.2957 94.3562 25.2957C95.3017 25.2957 95.9852 25.6146 96.4067 26.2526C96.8396 26.8791 97.056 27.7221 97.056 28.7815V34.0443H94.117V29.1574C94.117 28.6106 94.0486 28.2461 93.9119 28.0638C93.7753 27.8816 93.5588 27.7904 93.2626 27.7904C92.8981 27.7904 92.4994 28.0069 92.0665 28.4397V34.0443H89.1275V29.1574C89.1275 28.6106 89.0592 28.2461 88.9225 28.0638C88.7858 27.8816 88.5693 27.7904 88.2732 27.7904C87.9086 27.7904 87.5099 28.0069 87.0771 28.4397V34.0443H84.1381Z" fill="#2D2E2B"/>
<path d="M78.3699 34.2494C77.6409 34.2494 76.9517 34.0728 76.3024 33.7197C75.6644 33.3665 75.1404 32.8596 74.7303 32.1989C74.3316 31.5268 74.1323 30.718 74.1323 29.7725C74.1323 28.827 74.3316 28.0239 74.7303 27.3632C75.1404 26.6911 75.6644 26.1785 76.3024 25.8254C76.9517 25.4723 77.6409 25.2957 78.3699 25.2957C79.099 25.2957 79.7825 25.4723 80.4204 25.8254C81.0697 26.1785 81.5937 26.6911 81.9924 27.3632C82.4025 28.0239 82.6076 28.827 82.6076 29.7725C82.6076 30.718 82.4025 31.5268 81.9924 32.1989C81.5937 32.8596 81.0697 33.3665 80.4204 33.7197C79.7825 34.0728 79.099 34.2494 78.3699 34.2494ZM78.3699 31.8914C78.8142 31.8914 79.1275 31.7034 79.3097 31.3275C79.5034 30.9402 79.6002 30.4219 79.6002 29.7725C79.6002 29.1232 79.5034 28.6106 79.3097 28.2347C79.1275 27.8474 78.8142 27.6537 78.3699 27.6537C77.9257 27.6537 77.6067 27.8474 77.413 28.2347C77.2308 28.6106 77.1396 29.1232 77.1396 29.7725C77.1396 30.4219 77.2308 30.9402 77.413 31.3275C77.6067 31.7034 77.9257 31.8914 78.3699 31.8914Z" fill="#2D2E2B"/>
<path d="M70.8959 34.2494C70.0871 34.2494 69.358 34.0728 68.7087 33.7197C68.0594 33.3665 67.5411 32.8596 67.1538 32.1989C66.7778 31.5268 66.5899 30.718 66.5899 29.7725C66.5899 28.827 66.8006 28.0239 67.2221 27.3632C67.655 26.6911 68.2189 26.1785 68.9138 25.8254C69.6086 25.4723 70.3605 25.2957 71.1693 25.2957C71.6819 25.2957 72.1432 25.3754 72.5533 25.5349C72.9748 25.6944 73.345 25.9108 73.664 26.1842L72.297 28.0638C72.1148 27.9043 71.9496 27.7961 71.8015 27.7392C71.6534 27.6822 71.4996 27.6537 71.3401 27.6537C70.7933 27.6537 70.3662 27.8474 70.0586 28.2347C69.751 28.6106 69.5972 29.1232 69.5972 29.7725C69.5972 30.4219 69.7567 30.9402 70.0757 31.3275C70.3946 31.7034 70.782 31.8914 71.2376 31.8914C71.4768 31.8914 71.7104 31.8401 71.9382 31.7376C72.1774 31.6237 72.3995 31.4927 72.6046 31.3446L73.7323 33.2583C73.3109 33.6342 72.8438 33.8963 72.3312 34.0443C71.8186 34.181 71.3401 34.2494 70.8959 34.2494Z" fill="#2D2E2B"/>
<path d="M60.988 30.7294V28.679H65.2939V30.7294H60.988Z" fill="#2D2E2B"/>
<path d="M56.0304 34.2494C55.1988 34.2494 54.447 34.0728 53.7749 33.7197C53.1142 33.3665 52.5902 32.8596 52.2029 32.1989C51.8155 31.5268 51.6219 30.718 51.6219 29.7725C51.6219 28.8498 51.8155 28.0581 52.2029 27.3974C52.6016 26.7253 53.1142 26.207 53.7407 25.8425C54.3672 25.478 55.0279 25.2957 55.7228 25.2957C56.5658 25.2957 57.2607 25.4836 57.8075 25.8596C58.3656 26.2241 58.7757 26.7196 59.0377 27.3462C59.3111 27.9727 59.4478 28.6676 59.4478 29.4308C59.4478 29.6814 59.4307 29.9263 59.3966 30.1655C59.3738 30.3934 59.351 30.5586 59.3282 30.6611H54.4584C54.5951 31.1737 54.84 31.5325 55.1931 31.7376C55.5463 31.9312 55.962 32.0281 56.4405 32.0281C56.9873 32.0281 57.5682 31.8572 58.1834 31.5154L59.1403 33.2583C58.6846 33.5773 58.172 33.8222 57.6024 33.9931C57.0328 34.164 56.5088 34.2494 56.0304 34.2494ZM54.4242 28.7473H56.9531C56.9531 28.417 56.8677 28.1322 56.6968 27.8929C56.5373 27.6423 56.2354 27.517 55.7912 27.517C55.4722 27.517 55.1874 27.6139 54.9368 27.8075C54.6862 28.0012 54.5153 28.3144 54.4242 28.7473Z" fill="#2D2E2B"/>
<path d="M52.0293 15.5353V1.26641H55.8684V12.362H61.3718V15.5132H52.0293V15.5353Z" fill="#0685BE"/>
<path d="M67.8072 15.8016C66.8752 15.8016 65.921 15.6463 64.9446 15.3134C63.9682 14.9806 63.1027 14.448 62.3038 13.76L64.5008 11.1637C65.0112 11.5631 65.5881 11.9182 66.1873 12.1623C66.8086 12.4064 67.3634 12.5395 67.9182 12.5395C68.473 12.5395 68.9168 12.4508 69.1609 12.2732C69.4272 12.0957 69.5604 11.8516 69.5604 11.5187C69.5604 11.1859 69.516 11.1859 69.4272 11.0749C69.3384 10.964 69.2053 10.853 69.0278 10.742C68.8724 10.6311 68.6727 10.5423 68.4286 10.4536C68.1845 10.3426 67.9182 10.2316 67.6075 10.1207L65.7878 9.36619C65.4106 9.21085 65.0333 9.03332 64.6783 8.78922C64.3232 8.54512 64.0126 8.25663 63.7463 7.92376C63.48 7.5909 63.2581 7.21365 63.1027 6.79201C62.9474 6.37038 62.8808 5.90437 62.8808 5.39397C62.8808 4.88357 63.014 4.21784 63.2802 3.68525C63.5465 3.15266 63.9238 2.68664 64.3898 2.2872C64.8558 1.88776 65.4328 1.55489 66.0985 1.31079C66.7643 1.06669 67.4966 0.95573 68.2955 0.95573C69.0943 0.95573 69.982 1.11107 70.8253 1.42175C71.6907 1.73242 72.4674 2.22063 73.1331 2.86417L71.2025 5.23863C70.7143 4.90576 70.2261 4.63947 69.7823 4.46194C69.3384 4.28441 68.8502 4.19564 68.3176 4.19564C67.7851 4.19564 67.4744 4.28441 67.2081 4.43975C66.9418 4.59509 66.8086 4.83919 66.8086 5.17206C66.8086 5.50492 66.9862 5.77122 67.3634 5.97094C67.7407 6.14847 68.2733 6.34819 68.939 6.61448L70.7143 7.30241C71.6241 7.65747 72.3121 8.14568 72.8225 8.76703C73.3107 9.38838 73.5548 10.2095 73.5548 11.2081C73.5548 12.2067 73.4216 12.3842 73.1775 12.939C72.9334 13.4938 72.5562 13.982 72.068 14.4036C71.6019 14.803 71.0028 15.1359 70.2927 15.4022C69.5825 15.6463 68.7837 15.7794 67.8738 15.7794L67.8072 15.8016Z" fill="#0685BE"/>
<path d="M75.6851 15.5353V1.26641H85.183V4.41756H79.5242V7.14707H84.3619V10.2982H79.5242V15.5132H75.6629L75.6851 15.5353Z" fill="#3ABFF0"/>
</g>
<path fill-rule="evenodd" clip-rule="evenodd" d="M13.3333 11.7424V0H40V11.7424H13.3333Z" fill="#26C4F7"/>
<path fill-rule="evenodd" clip-rule="evenodd" d="M13.3333 39.9243V13.3081H40V39.9243H13.3333Z" fill="#0E84BC"/>
<path fill-rule="evenodd" clip-rule="evenodd" d="M11.7647 2.28882e-05V39.9243H3.8147e-06V2.28882e-05H11.7647Z" fill="#2C2A28"/>
<defs>
<clipPath id="clip0_1933_75">
<rect width="50" height="38.6792" fill="white" transform="translate(48 1.00011)"/>
</clipPath>
</defs>
</svg>
