<svg width="68" height="71" viewBox="0 0 68 71" fill="none" xmlns="http://www.w3.org/2000/svg">
<rect x="5" width="3" height="3" fill="#1C97D0"/>
<rect x="20" width="3" height="3" fill="#1C97D0"/>
<rect x="35" width="3" height="3" fill="#1C97D0"/>
<rect x="50" width="3" height="3" fill="#26C4F7"/>
<rect x="65" width="3" height="3" fill="#1C97D0"/>
<rect x="5" y="15" width="3" height="3" fill="white"/>
<rect x="20" y="15" width="3" height="3" fill="#1C97D0"/>
<rect x="35" y="15" width="3" height="3" fill="#1C97D0"/>
<rect x="50" y="15" width="3" height="3" fill="#1C97D0"/>
<rect x="65" y="15" width="3" height="3" fill="#1C97D0"/>
<rect x="5" y="30" width="3" height="3" fill="#1C97D0"/>
<rect x="20" y="30" width="3" height="3" fill="#1C97D0"/>
<rect x="35" y="30" width="3" height="3" fill="white"/>
<rect x="50" y="30" width="3" height="3" fill="#1C97D0"/>
<rect x="65" y="30" width="3" height="3" fill="#1C97D0"/>
<rect x="5" y="45" width="3" height="3" fill="#1C97D0"/>
<rect x="20" y="45" width="3" height="3" fill="#1C97D0"/>
<rect x="35" y="45" width="3" height="3" fill="#1C97D0"/>
<rect x="50" y="45" width="3" height="3" fill="#1C97D0"/>
<rect x="65" y="45" width="3" height="3" fill="#1C97D0"/>
<rect x="5" y="60" width="3" height="3" fill="#1C97D0"/>
<rect x="20" y="60" width="3" height="3" fill="#26C4F7"/>
<rect x="35" y="60" width="3" height="3" fill="#1C97D0"/>
<rect x="50" y="60" width="3" height="3" fill="#1C97D0"/>
<rect x="65" y="60" width="3" height="3" fill="#1C97D0"/>
</svg>
