<svg width="71" height="143" viewBox="0 0 71 143" fill="none" xmlns="http://www.w3.org/2000/svg">
<path d="M52.875 121V122C53.4273 122 53.875 121.552 53.875 121H52.875ZM33.5625 121H32.5625C32.5625 121.552 33.0102 122 33.5625 122V121ZM33.625 62.75L34.6248 62.7696L34.6248 62.7692L33.625 62.75ZM33.8125 56.125L34.8118 56.162L34.8118 56.1613L33.8125 56.125ZM34.0625 49.9375L35.0615 49.9829C35.0809 49.5554 34.8261 49.1629 34.4277 49.0066C34.0293 48.8503 33.5756 48.9648 33.2991 49.2916L34.0625 49.9375ZM31.25 52.75L31.9347 53.4788L31.9354 53.4782L31.25 52.75ZM27.375 56.25L28.0014 57.0295C28.0104 57.0223 28.0192 57.0149 28.0279 57.0074L27.375 56.25ZM16.875 64.6875L16.0945 65.3127C16.2605 65.5199 16.5021 65.6526 16.766 65.6815C17.0299 65.7105 17.2944 65.6333 17.5014 65.467L16.875 64.6875ZM7.5625 53.0625L6.93963 52.2802C6.73174 52.4457 6.59828 52.6871 6.56871 52.9512C6.53914 53.2153 6.6159 53.4803 6.78204 53.6877L7.5625 53.0625ZM37 29.625V28.625C36.7737 28.625 36.5541 28.7017 36.3771 28.8427L37 29.625ZM52.875 29.625H53.875C53.875 29.0727 53.4273 28.625 52.875 28.625V29.625ZM52.875 120H33.5625V122H52.875V120ZM34.5625 121V68.125H32.5625V121H34.5625ZM34.5625 68.125C34.5625 66.6754 34.5832 64.8907 34.6248 62.7696L32.6252 62.7304C32.5835 64.8593 32.5625 66.6579 32.5625 68.125H34.5625ZM34.6248 62.7692C34.6664 60.6087 34.7287 58.4063 34.8118 56.162L32.8132 56.088C32.7296 58.3437 32.667 60.558 32.6252 62.7308L34.6248 62.7692ZM34.8118 56.1613C34.8951 53.872 34.9783 51.8126 35.0615 49.9829L33.0635 49.8921C32.98 51.7291 32.8966 53.7947 32.8132 56.0887L34.8118 56.1613ZM33.2991 49.2916C32.8827 49.7837 31.9854 50.6846 30.5646 52.0218L31.9354 53.4782C33.3479 52.1488 34.3256 51.1746 34.8259 50.5834L33.2991 49.2916ZM30.5653 52.0212C29.1989 53.3048 27.9179 54.4617 26.7221 55.4926L28.0279 57.0074C29.2488 55.955 30.5511 54.7786 31.9347 53.4788L30.5653 52.0212ZM26.7486 55.4705L16.2486 63.908L17.5014 65.467L28.0014 57.0295L26.7486 55.4705ZM17.6555 64.0623L8.34296 52.4373L6.78204 53.6877L16.0945 65.3127L17.6555 64.0623ZM8.18537 53.8448L37.6229 30.4073L36.3771 28.8427L6.93963 52.2802L8.18537 53.8448ZM37 30.625H52.875V28.625H37V30.625ZM51.875 29.625V121H53.875V29.625H51.875Z" fill="#0E84BC"/>
</svg>
