<svg width="71" height="143" viewBox="0 0 71 143" fill="none" xmlns="http://www.w3.org/2000/svg">
<path d="M69 121V122C69.5523 122 70 121.552 70 121H69ZM5.125 121H4.125C4.125 121.552 4.57272 122 5.125 122V121ZM5.125 107.562L4.41407 106.859C4.22887 107.046 4.125 107.299 4.125 107.562H5.125ZM28.0625 84.375L28.7735 85.0783L28.779 85.0726L28.0625 84.375ZM39.1875 72.5L38.4379 71.8381L38.4374 71.8387L39.1875 72.5ZM45.3125 63.75L44.4152 63.3085L44.4096 63.3201L45.3125 63.75ZM44.1875 47.1875L43.5118 47.9247C43.5171 47.9295 43.5225 47.9344 43.5279 47.9391L44.1875 47.1875ZM15.375 53.8125L14.6109 54.4576C14.9647 54.8767 15.59 54.9326 16.0126 54.5829L15.375 53.8125ZM4.875 41.375L4.22421 40.6157C3.8071 40.9733 3.7565 41.6003 4.11089 42.0201L4.875 41.375ZM13.1875 35L12.6274 34.1715L12.622 34.1753L13.1875 35ZM23.4375 30.1875L23.7352 31.1422L23.7415 31.1402L23.4375 30.1875ZM52.9375 31.5625L52.4868 32.4552L52.4903 32.4569L52.9375 31.5625ZM62.9375 40.4375L62.0884 40.9658L62.0911 40.9701L62.9375 40.4375ZM54.6875 79.25L53.9584 78.5656L53.9547 78.5695L54.6875 79.25ZM40.9375 92.8125L40.2594 92.0774L40.252 92.0844L40.9375 92.8125ZM29.1875 103.875L28.502 103.147C28.3013 103.336 28.1875 103.599 28.1875 103.875H29.1875ZM29.1875 104.75H28.1875C28.1875 105.302 28.6352 105.75 29.1875 105.75V104.75ZM69 104.75H70C70 104.198 69.5523 103.75 69 103.75V104.75ZM69 120H5.125V122H69V120ZM6.125 121V107.562H4.125V121H6.125ZM5.83593 108.266L28.7734 85.0783L27.3516 83.6717L4.41407 106.859L5.83593 108.266ZM28.779 85.0726C33.4098 80.3166 37.1307 76.3452 39.9376 73.1613L38.4374 71.8387C35.6609 74.9881 31.9652 78.9334 27.346 83.6774L28.779 85.0726ZM39.9371 73.1619C42.8059 69.9134 44.9113 66.9185 46.2154 64.1799L44.4096 63.3201C43.2137 65.8315 41.2358 68.6699 38.4379 71.8381L39.9371 73.1619ZM46.2098 64.1915C47.5708 61.4256 48.25 58.4616 48.25 55.3125H46.25C46.25 58.1634 45.6376 60.8244 44.4152 63.3085L46.2098 64.1915ZM48.25 55.3125C48.25 51.5012 47.1713 48.4755 44.8471 46.4359L43.5279 47.9391C45.2871 49.4829 46.25 51.8738 46.25 55.3125H48.25ZM44.8632 46.4503C42.6367 44.4093 39.6865 43.4375 36.125 43.4375V45.4375C39.3135 45.4375 41.7383 46.299 43.5118 47.9247L44.8632 46.4503ZM36.125 43.4375C32.4243 43.4375 28.8375 44.2878 25.3743 45.9761L26.2507 47.7739C29.4541 46.2122 32.7424 45.4375 36.125 45.4375V43.4375ZM25.3743 45.9761C21.9536 47.6437 18.408 50.0044 14.7374 53.0421L16.0126 54.5829C19.592 51.6206 23.0048 49.3563 26.2507 47.7739L25.3743 45.9761ZM16.1391 53.1674L5.63911 40.7299L4.11089 42.0201L14.6109 54.4576L16.1391 53.1674ZM5.52579 42.1343C8.12295 39.9081 10.8653 37.8049 13.753 35.8247L12.622 34.1753C9.67641 36.1951 6.87705 38.3419 4.22421 40.6157L5.52579 42.1343ZM13.7476 35.8284C16.6149 33.89 19.9408 32.3253 23.7352 31.1422L23.1398 29.2328C19.1842 30.4663 15.6768 32.11 12.6274 34.1716L13.7476 35.8284ZM23.7415 31.1402C27.5337 29.9299 32.1132 29.3125 37.5 29.3125V27.3125C31.9701 27.3125 27.1746 27.9451 23.1335 29.2348L23.7415 31.1402ZM37.5 29.3125C43.3814 29.3125 48.3653 30.3744 52.4868 32.4552L53.3882 30.6698C48.9264 28.4173 43.6186 27.3125 37.5 27.3125V29.3125ZM52.4903 32.4569C56.675 34.5493 59.862 37.3876 62.0884 40.9658L63.7866 39.9092C61.3463 35.9874 57.8667 32.9091 53.3847 30.6681L52.4903 32.4569ZM62.0911 40.9701C64.3166 44.5069 65.4375 48.528 65.4375 53.0625H67.4375C67.4375 48.1804 66.2251 43.7847 63.7839 39.9049L62.0911 40.9701ZM65.4375 53.0625C65.4375 57.9682 64.4654 62.4226 62.536 66.4423L64.339 67.3077C66.4096 62.9941 67.4375 58.2402 67.4375 53.0625H65.4375ZM62.536 66.4423C60.5885 70.4996 57.736 74.5416 53.9584 78.5656L55.4166 79.9344C59.3056 75.7917 62.2865 71.5837 64.339 67.3077L62.536 66.4423ZM53.9547 78.5695C50.185 82.6292 45.621 87.1316 40.2595 92.0775L41.6155 93.5475C47.004 88.5768 51.6067 84.0374 55.4203 79.9305L53.9547 78.5695ZM40.252 92.0844L28.502 103.147L29.873 104.603L41.623 93.5406L40.252 92.0844ZM28.1875 103.875V104.75H30.1875V103.875H28.1875ZM29.1875 105.75H69V103.75H29.1875V105.75ZM68 104.75V121H70V104.75H68Z" fill="#0E84BC"/>
</svg>
