<svg width="71" height="143" viewBox="0 0 71 143" fill="none" xmlns="http://www.w3.org/2000/svg">
<path d="M55.6875 68.5625L55.1409 67.7251L55.1355 67.7286L55.6875 68.5625ZM45.6875 72.875L45.4475 71.9042C45.0011 72.0146 44.6875 72.4151 44.6875 72.875H45.6875ZM45.6875 73.25H44.6875C44.6875 73.7543 45.063 74.1797 45.5635 74.2423L45.6875 73.25ZM62.375 80L61.6881 80.7268L61.6921 80.7305L62.375 80ZM64.1875 108.688L63.339 108.158L63.3353 108.164L64.1875 108.688ZM17.125 121L17.3121 120.018L17.3047 120.016L17.125 121ZM4.875 117.312H3.875C3.875 117.711 4.11116 118.071 4.47627 118.23L4.875 117.312ZM4.875 100.875L5.32978 99.9844C5.01977 99.8261 4.64975 99.8404 4.35288 100.022C4.05601 100.204 3.875 100.527 3.875 100.875H4.875ZM17.1875 105.438L16.9516 106.409L16.9606 106.411L17.1875 105.438ZM43.6875 103.375L44.3411 104.132L44.342 104.131L43.6875 103.375ZM39.1875 82.8125L38.9094 83.7731L38.9128 83.774L39.1875 82.8125ZM18.9375 81.4375H17.9375C17.9375 81.9898 18.3852 82.4375 18.9375 82.4375V81.4375ZM18.9375 66.625V65.625C18.3852 65.625 17.9375 66.0727 17.9375 66.625H18.9375ZM38.8125 65.0625L39.1488 66.0043L39.1564 66.0015L38.8125 65.0625ZM44.8125 60.6875L43.9466 60.1872L43.943 60.1935L44.8125 60.6875ZM25.4375 45.0625L25.7233 46.0208L25.7339 46.0176L25.4375 45.0625ZM19 47.6875L19.4626 48.5741C19.4676 48.5715 19.4726 48.5688 19.4775 48.5661L19 47.6875ZM13.9375 50.625L13.1073 51.1824C13.4129 51.6377 14.0283 51.7619 14.4867 51.4607L13.9375 50.625ZM5 37.3125L4.4152 36.5013C3.97774 36.8167 3.86916 37.4222 4.16975 37.8699L5 37.3125ZM17.5625 30.875L17.2293 29.9322L17.2267 29.9331L17.5625 30.875ZM64.4375 50.0625C64.4375 54.1302 63.5927 57.5995 61.9428 60.5064L63.6822 61.4936C65.5323 58.2339 66.4375 54.4114 66.4375 50.0625H64.4375ZM61.9428 60.5064C60.2724 63.4495 58.0088 65.853 55.1409 67.7251L56.2341 69.3999C59.3662 67.3553 61.8526 64.7172 63.6822 61.4936L61.9428 60.5064ZM55.1355 67.7286C52.2797 69.6191 49.0533 71.0129 45.4475 71.9042L45.9275 73.8458C49.7383 72.9038 53.1787 71.4225 56.2395 69.3964L55.1355 67.7286ZM44.6875 72.875V73.25H46.6875V72.875H44.6875ZM45.5635 74.2423C52.7709 75.1432 58.1036 77.3392 61.6881 80.7268L63.0619 79.2732C59.0631 75.4941 53.2707 73.1901 45.8115 72.2577L45.5635 74.2423ZM61.6921 80.7305C65.2934 84.0969 67.125 88.6083 67.125 94.375H69.125C69.125 88.1417 67.1233 83.0698 63.0579 79.2695L61.6921 80.7305ZM67.125 94.375C67.125 99.5359 65.8575 104.121 63.339 108.158L65.036 109.217C67.7675 104.838 69.125 99.8808 69.125 94.375H67.125ZM63.3353 108.164C60.8772 112.169 57.0502 115.36 51.7801 117.712L52.5949 119.538C58.1581 117.056 62.3312 113.623 65.0397 109.211L63.3353 108.164ZM51.7801 117.712C46.5351 120.052 39.7083 121.25 31.25 121.25V123.25C39.875 123.25 47.0066 122.032 52.5949 119.538L51.7801 117.712ZM31.25 121.25C26.2631 121.25 21.618 120.838 17.3121 120.018L16.9379 121.982C21.382 122.829 26.1536 123.25 31.25 123.25V121.25ZM17.3047 120.016C13.0427 119.238 9.03318 118.03 5.27373 116.395L4.47627 118.23C8.38349 119.928 12.5407 121.179 16.9453 121.984L17.3047 120.016ZM5.875 117.312V100.875H3.875V117.312H5.875ZM4.42022 101.766C8.40673 103.801 12.5844 105.349 16.9516 106.409L17.4234 104.466C13.2073 103.442 9.1766 101.949 5.32978 99.9844L4.42022 101.766ZM16.9606 106.411C21.3131 107.426 25.3901 107.938 29.1875 107.938V105.938C25.5683 105.938 21.6452 105.449 17.4144 104.464L16.9606 106.411ZM29.1875 107.938C36.1552 107.938 41.3049 106.754 44.3411 104.132L43.0339 102.618C40.5701 104.746 36.0532 105.938 29.1875 105.938V107.938ZM44.342 104.131C47.3919 101.491 48.875 97.8179 48.875 93.25H46.875C46.875 97.3487 45.5664 100.426 43.033 102.619L44.342 104.131ZM48.875 93.25C48.875 90.5319 48.1812 88.1684 46.7421 86.2187L45.1329 87.4063C46.2772 88.9566 46.875 90.8848 46.875 93.25H48.875ZM46.7421 86.2187C45.2656 84.2183 42.7757 82.7977 39.4622 81.851L38.9128 83.774C42.0159 84.6606 44.026 85.9067 45.1329 87.4063L46.7421 86.2187ZM39.4656 81.8519C36.166 80.8968 31.6195 80.4375 25.875 80.4375V82.4375C31.5472 82.4375 35.8757 82.8949 38.9094 83.7731L39.4656 81.8519ZM25.875 80.4375H18.9375V82.4375H25.875V80.4375ZM19.9375 81.4375V66.625H17.9375V81.4375H19.9375ZM18.9375 67.625H26V65.625H18.9375V67.625ZM26 67.625C31.6619 67.625 36.0696 67.104 39.1488 66.0042L38.4762 64.1208C35.7221 65.1044 31.5881 65.625 26 65.625V67.625ZM39.1564 66.0015C42.2309 64.8756 44.4775 63.3014 45.682 61.1815L43.943 60.1935C43.0642 61.7403 41.3108 63.0827 38.4686 64.1235L39.1564 66.0015ZM45.6784 61.1878C46.8579 59.1462 47.4375 56.8457 47.4375 54.3125H45.4375C45.4375 56.5293 44.9338 58.4788 43.9466 60.1872L45.6784 61.1878ZM47.4375 54.3125C47.4375 50.8424 46.3604 48.0103 44.1132 45.9503L42.7618 47.4247C44.5146 49.0314 45.4375 51.2826 45.4375 54.3125H47.4375ZM44.1132 45.9503C41.835 43.862 38.1885 42.9375 33.4375 42.9375V44.9375C38.0199 44.9375 41.04 45.8463 42.7618 47.4247L44.1132 45.9503ZM33.4375 42.9375C30.4354 42.9375 27.6671 43.3235 25.1411 44.1074L25.7339 46.0176C28.0412 45.3015 30.6063 44.9375 33.4375 44.9375V42.9375ZM25.1517 44.1042C22.719 44.8297 20.5077 45.73 18.5225 46.8089L19.4775 48.5661C21.3256 47.5617 23.406 46.7119 25.7233 46.0208L25.1517 44.1042ZM18.5374 46.8009C16.5978 47.8129 14.8803 48.8088 13.3883 49.7893L14.4867 51.4607C15.9113 50.5245 17.5689 49.5621 19.4626 48.5741L18.5374 46.8009ZM14.7677 50.0676L5.83025 36.7551L4.16975 37.8699L13.1073 51.1824L14.7677 50.0676ZM5.5848 38.1237C9.08117 35.603 13.1823 33.4983 17.8983 31.8169L17.2267 29.9331C12.3594 31.6684 8.0855 33.8553 4.4152 36.5013L5.5848 38.1237ZM17.8957 31.8178C22.5953 30.1568 28.2271 29.3125 34.8125 29.3125V27.3125C28.0646 27.3125 22.1963 28.1766 17.2293 29.9322L17.8957 31.8178ZM34.8125 29.3125C44.1065 29.3125 51.3424 31.185 56.6199 34.8233L57.7551 33.1767C52.0326 29.2316 44.3518 27.3125 34.8125 27.3125V29.3125ZM56.6199 34.8233C61.838 38.4206 64.4375 43.4608 64.4375 50.0625H66.4375C66.4375 42.8309 63.537 37.1627 57.7551 33.1767L56.6199 34.8233Z" fill="#0E84BC"/>
</svg>
