<svg width="72" height="143" viewBox="0 0 72 143" fill="none" xmlns="http://www.w3.org/2000/svg">
<path d="M71.0625 102.062V103.062C71.6148 103.062 72.0625 102.615 72.0625 102.062H71.0625ZM60.0625 102.062V101.062C59.5102 101.062 59.0625 101.51 59.0625 102.062H60.0625ZM60.0625 121V122C60.6148 122 61.0625 121.552 61.0625 121H60.0625ZM41.1875 121H40.1875C40.1875 121.552 40.6352 122 41.1875 122V121ZM41.1875 102.062H42.1875C42.1875 101.51 41.7398 101.062 41.1875 101.062V102.062ZM2.1875 102.062H1.1875C1.1875 102.615 1.63522 103.062 2.1875 103.062V102.062ZM2.1875 88.625L1.3602 88.0632C1.24767 88.229 1.1875 88.4247 1.1875 88.625H2.1875ZM42.25 29.625V28.625C41.9187 28.625 41.6088 28.7891 41.4227 29.0632L42.25 29.625ZM60.0625 29.625H61.0625C61.0625 29.0727 60.6148 28.625 60.0625 28.625V29.625ZM60.0625 87.0625H59.0625C59.0625 87.6148 59.5102 88.0625 60.0625 88.0625V87.0625ZM71.0625 87.0625H72.0625C72.0625 86.5102 71.6148 86.0625 71.0625 86.0625V87.0625ZM41.1875 87.0625V88.0625C41.7398 88.0625 42.1875 87.6148 42.1875 87.0625H41.1875ZM41.25 66.375L40.2509 66.3334C40.2506 66.3403 40.2504 66.3472 40.2502 66.3542L41.25 66.375ZM41.75 55.0625L40.7531 54.9838C40.7525 54.992 40.7519 55.0003 40.7515 55.0085L41.75 55.0625ZM42 51.75L42.9978 51.8165C43.0162 51.5404 42.9193 51.2689 42.7302 51.0668C42.5412 50.8647 42.2768 50.75 42 50.75V51.75ZM41.5 51.75V50.75C41.1105 50.75 40.7565 50.9762 40.5927 51.3295L41.5 51.75ZM39 56.75L39.8753 57.2337L39.8805 57.2241L39 56.75ZM35.9375 61.75L35.1054 61.1953L35.1036 61.1982L35.9375 61.75ZM19.1875 87.0625L18.3536 86.5107C18.1504 86.8177 18.1324 87.2115 18.3066 87.5359C18.4809 87.8602 18.8193 88.0625 19.1875 88.0625V87.0625ZM71.0625 101.062H60.0625V103.062H71.0625V101.062ZM59.0625 102.062V121H61.0625V102.062H59.0625ZM60.0625 120H41.1875V122H60.0625V120ZM42.1875 121V102.062H40.1875V121H42.1875ZM41.1875 101.062H2.1875V103.062H41.1875V101.062ZM3.1875 102.062V88.625H1.1875V102.062H3.1875ZM3.0148 89.1868L43.0773 30.1868L41.4227 29.0632L1.3602 88.0632L3.0148 89.1868ZM42.25 30.625H60.0625V28.625H42.25V30.625ZM59.0625 29.625V87.0625H61.0625V29.625H59.0625ZM60.0625 88.0625H71.0625V86.0625H60.0625V88.0625ZM70.0625 87.0625V102.062H72.0625V87.0625H70.0625ZM42.1875 87.0625V71.5625H40.1875V87.0625H42.1875ZM42.1875 71.5625C42.1875 70.1131 42.2082 68.3912 42.2498 66.3958L40.2502 66.3542C40.2085 68.3588 40.1875 70.0952 40.1875 71.5625H42.1875ZM42.2491 66.4166C42.2494 66.4097 42.2498 66.4001 42.2501 66.3932C42.2504 66.3862 42.2508 66.3767 42.2511 66.3698C42.2514 66.3628 42.2518 66.3533 42.2521 66.3463C42.2524 66.3394 42.2528 66.3298 42.253 66.3229C42.2533 66.3159 42.2537 66.3064 42.254 66.2994C42.2543 66.2925 42.2547 66.283 42.255 66.276C42.2553 66.2691 42.2557 66.2595 42.256 66.2526C42.2563 66.2456 42.2567 66.2361 42.2569 66.2291C42.2572 66.2222 42.2576 66.2126 42.2579 66.2057C42.2582 66.1987 42.2586 66.1892 42.2589 66.1823C42.2592 66.1753 42.2596 66.1658 42.2599 66.1588C42.2602 66.1519 42.2606 66.1423 42.2609 66.1354C42.2611 66.1284 42.2615 66.1189 42.2618 66.1119C42.2621 66.105 42.2625 66.0955 42.2628 66.0885C42.2631 66.0816 42.2635 66.072 42.2638 66.0651C42.2641 66.0581 42.2645 66.0486 42.2648 66.0416C42.265 66.0347 42.2654 66.0251 42.2657 66.0182C42.266 66.0112 42.2664 66.0017 42.2667 65.9948C42.267 65.9878 42.2674 65.9783 42.2677 65.9713C42.268 65.9644 42.2684 65.9548 42.2687 65.9479C42.269 65.9409 42.2694 65.9314 42.2696 65.9244C42.2699 65.9175 42.2703 65.908 42.2706 65.901C42.2709 65.8941 42.2713 65.8845 42.2716 65.8776C42.2719 65.8706 42.2723 65.8611 42.2726 65.8541C42.2729 65.8472 42.2733 65.8376 42.2735 65.8307C42.2738 65.8237 42.2742 65.8142 42.2745 65.8073C42.2748 65.8003 42.2752 65.7908 42.2755 65.7838C42.2758 65.7769 42.2762 65.7673 42.2765 65.7604C42.2768 65.7534 42.2772 65.7439 42.2775 65.7369C42.2777 65.73 42.2781 65.7205 42.2784 65.7135C42.2787 65.7066 42.2791 65.697 42.2794 65.6901C42.2797 65.6831 42.2801 65.6736 42.2804 65.6666C42.2807 65.6597 42.2811 65.6501 42.2814 65.6432C42.2817 65.6362 42.282 65.6267 42.2823 65.6198C42.2826 65.6128 42.283 65.6033 42.2833 65.5963C42.2836 65.5894 42.284 65.5798 42.2843 65.5729C42.2846 65.5659 42.285 65.5564 42.2853 65.5494C42.2856 65.5425 42.286 65.533 42.2862 65.526C42.2865 65.5191 42.2869 65.5095 42.2872 65.5026C42.2875 65.4956 42.2879 65.4861 42.2882 65.4791C42.2885 65.4722 42.2889 65.4626 42.2892 65.4557C42.2895 65.4487 42.2899 65.4392 42.2901 65.4323C42.2904 65.4253 42.2908 65.4158 42.2911 65.4088C42.2914 65.4019 42.2918 65.3923 42.2921 65.3854C42.2924 65.3784 42.2928 65.3689 42.2931 65.3619C42.2934 65.355 42.2938 65.3455 42.2941 65.3385C42.2943 65.3316 42.2947 65.322 42.295 65.3151C42.2953 65.3081 42.2957 65.2986 42.296 65.2916C42.2963 65.2847 42.2967 65.2751 42.297 65.2682C42.2973 65.2612 42.2977 65.2517 42.298 65.2448C42.2983 65.2378 42.2986 65.2283 42.2989 65.2213C42.2992 65.2144 42.2996 65.2048 42.2999 65.1979C42.3002 65.1909 42.3006 65.1814 42.3009 65.1744C42.3012 65.1675 42.3016 65.158 42.3019 65.151C42.3022 65.1441 42.3026 65.1345 42.3028 65.1276C42.3031 65.1206 42.3035 65.1111 42.3038 65.1041C42.3041 65.0972 42.3045 65.0876 42.3048 65.0807C42.3051 65.0737 42.3055 65.0642 42.3058 65.0573C42.3061 65.0503 42.3065 65.0408 42.3068 65.0338C42.307 65.0269 42.3074 65.0173 42.3077 65.0104C42.308 65.0034 42.3084 64.9939 42.3087 64.9869C42.309 64.98 42.3094 64.9705 42.3097 64.9635C42.31 64.9566 42.3104 64.947 42.3107 64.9401C42.3109 64.9331 42.3113 64.9236 42.3116 64.9166C42.3119 64.9097 42.3123 64.9001 42.3126 64.8932C42.3129 64.8862 42.3133 64.8767 42.3136 64.8698C42.3139 64.8628 42.3143 64.8533 42.3146 64.8463C42.3149 64.8394 42.3153 64.8298 42.3155 64.8229C42.3158 64.8159 42.3162 64.8064 42.3165 64.7994C42.3168 64.7925 42.3172 64.783 42.3175 64.776C42.3178 64.7691 42.3182 64.7595 42.3185 64.7526C42.3188 64.7456 42.3192 64.7361 42.3194 64.7291C42.3197 64.7222 42.3201 64.7126 42.3204 64.7057C42.3207 64.6987 42.3211 64.6892 42.3214 64.6823C42.3217 64.6753 42.3221 64.6658 42.3224 64.6588C42.3227 64.6519 42.3231 64.6423 42.3234 64.6354C42.3236 64.6284 42.324 64.6189 42.3243 64.6119C42.3246 64.605 42.325 64.5955 42.3253 64.5885C42.3256 64.5816 42.326 64.572 42.3263 64.5651C42.3266 64.5581 42.327 64.5486 42.3273 64.5416C42.3275 64.5347 42.3279 64.5251 42.3282 64.5182C42.3285 64.5112 42.3289 64.5017 42.3292 64.4948C42.3295 64.4878 42.3299 64.4783 42.3302 64.4713C42.3305 64.4644 42.3309 64.4548 42.3312 64.4479C42.3315 64.4409 42.3319 64.4314 42.3321 64.4244C42.3324 64.4175 42.3328 64.408 42.3331 64.401C42.3334 64.3941 42.3338 64.3845 42.3341 64.3776C42.3344 64.3706 42.3348 64.3611 42.3351 64.3541C42.3354 64.3472 42.3358 64.3376 42.336 64.3307C42.3363 64.3237 42.3367 64.3142 42.337 64.3073C42.3373 64.3003 42.3377 64.2908 42.338 64.2838C42.3383 64.2769 42.3387 64.2673 42.339 64.2604C42.3393 64.2534 42.3397 64.2439 42.34 64.2369C42.3402 64.23 42.3406 64.2205 42.3409 64.2135C42.3412 64.2066 42.3416 64.197 42.3419 64.1901C42.3422 64.1831 42.3426 64.1736 42.3429 64.1666C42.3432 64.1597 42.3436 64.1501 42.3439 64.1432C42.3442 64.1362 42.3445 64.1267 42.3448 64.1198C42.3451 64.1128 42.3455 64.1033 42.3458 64.0963C42.3461 64.0894 42.3465 64.0798 42.3468 64.0729C42.3471 64.0659 42.3475 64.0564 42.3478 64.0494C42.3481 64.0425 42.3485 64.033 42.3487 64.026C42.349 64.0191 42.3494 64.0095 42.3497 64.0026C42.35 63.9956 42.3504 63.9861 42.3507 63.9791C42.351 63.9722 42.3514 63.9626 42.3517 63.9557C42.352 63.9487 42.3524 63.9392 42.3526 63.9323C42.3529 63.9253 42.3533 63.9158 42.3536 63.9088C42.3539 63.9019 42.3543 63.8923 42.3546 63.8854C42.3549 63.8784 42.3553 63.8689 42.3556 63.8619C42.3559 63.855 42.3563 63.8455 42.3566 63.8385C42.3568 63.8316 42.3572 63.822 42.3575 63.8151C42.3578 63.8081 42.3582 63.7986 42.3585 63.7916C42.3588 63.7847 42.3592 63.7751 42.3595 63.7682C42.3598 63.7612 42.3602 63.7517 42.3605 63.7448C42.3608 63.7378 42.3611 63.7283 42.3614 63.7213C42.3617 63.7144 42.3621 63.7048 42.3624 63.6979C42.3627 63.6909 42.3631 63.6814 42.3634 63.6744C42.3637 63.6675 42.3641 63.658 42.3644 63.651C42.3647 63.6441 42.3651 63.6345 42.3653 63.6276C42.3656 63.6206 42.366 63.6111 42.3663 63.6041C42.3666 63.5972 42.367 63.5876 42.3673 63.5807C42.3676 63.5737 42.368 63.5642 42.3683 63.5573C42.3686 63.5503 42.369 63.5408 42.3693 63.5338C42.3695 63.5269 42.3699 63.5173 42.3702 63.5104C42.3705 63.5034 42.3709 63.4939 42.3712 63.4869C42.3715 63.48 42.3719 63.4705 42.3722 63.4635C42.3725 63.4566 42.3729 63.447 42.3732 63.4401C42.3734 63.4331 42.3738 63.4236 42.3741 63.4166C42.3753 63.3889 42.3808 63.2569 42.3819 63.2291C42.3831 63.2014 42.3886 63.0694 42.3898 63.0416C42.3909 63.0139 42.3964 62.8819 42.3976 62.8541C42.3987 62.8264 42.4042 62.6944 42.4054 62.6666C42.4065 62.6389 42.412 62.5069 42.4132 62.4791C42.4144 62.4514 42.4198 62.3194 42.421 62.2916C42.4222 62.2639 42.4277 62.1319 42.4288 62.1041C42.43 62.0764 42.4355 61.9444 42.4366 61.9166C42.4378 61.8889 42.4433 61.7569 42.4444 61.7291C42.4456 61.7014 42.4511 61.5694 42.4523 61.5416C42.4534 61.5139 42.4589 61.3819 42.4601 61.3541C42.4612 61.3264 42.4667 61.1944 42.4679 61.1666C42.469 61.1389 42.4745 61.0069 42.4757 60.9791C42.4769 60.9514 42.4823 60.8194 42.4835 60.7916C42.4847 60.7639 42.4902 60.6319 42.4913 60.6041C42.4925 60.5764 42.498 60.4444 42.4991 60.4166L40.5009 60.3334C40.5006 60.3403 40.5002 60.3499 40.4999 60.3568C40.4996 60.3638 40.4992 60.3733 40.4989 60.3802C40.4986 60.3872 40.4982 60.3967 40.4979 60.4037C40.4976 60.4106 40.4972 60.4202 40.497 60.4271C40.4967 60.4341 40.4963 60.4436 40.496 60.4506C40.4957 60.4575 40.4953 60.467 40.495 60.474C40.4947 60.4809 40.4943 60.4905 40.494 60.4974C40.4937 60.5044 40.4933 60.5139 40.4931 60.5209C40.4928 60.5278 40.4924 60.5374 40.4921 60.5443C40.4918 60.5513 40.4914 60.5608 40.4911 60.5677C40.4908 60.5747 40.4904 60.5842 40.4901 60.5912C40.4898 60.5981 40.4894 60.6077 40.4891 60.6146C40.4889 60.6216 40.4885 60.6311 40.4882 60.6381C40.4879 60.645 40.4875 60.6545 40.4872 60.6615C40.4869 60.6684 40.4865 60.678 40.4862 60.6849C40.4859 60.6919 40.4855 60.7014 40.4852 60.7084C40.485 60.7153 40.4846 60.7249 40.4843 60.7318C40.484 60.7388 40.4836 60.7483 40.4833 60.7552C40.483 60.7622 40.4826 60.7717 40.4823 60.7787C40.482 60.7856 40.4816 60.7952 40.4813 60.8021C40.481 60.8091 40.4806 60.8186 40.4804 60.8256C40.4801 60.8325 40.4797 60.842 40.4794 60.849C40.4791 60.8559 40.4787 60.8655 40.4784 60.8724C40.4781 60.8794 40.4777 60.8889 40.4774 60.8959C40.4771 60.9028 40.4767 60.9124 40.4765 60.9193C40.4762 60.9263 40.4758 60.9358 40.4755 60.9427C40.4752 60.9497 40.4748 60.9592 40.4745 60.9662C40.4742 60.9731 40.4738 60.9827 40.4735 60.9896C40.4732 60.9966 40.4728 61.0061 40.4725 61.0131C40.4723 61.02 40.4719 61.0295 40.4716 61.0365C40.4713 61.0434 40.4709 61.053 40.4706 61.0599C40.4703 61.0669 40.4699 61.0764 40.4696 61.0834C40.4693 61.0903 40.4689 61.0999 40.4686 61.1068C40.4683 61.1138 40.468 61.1233 40.4677 61.1302C40.4674 61.1372 40.467 61.1467 40.4667 61.1537C40.4664 61.1606 40.466 61.1702 40.4657 61.1771C40.4654 61.1841 40.465 61.1936 40.4647 61.2006C40.4644 61.2075 40.464 61.217 40.4638 61.224C40.4635 61.2309 40.4631 61.2405 40.4628 61.2474C40.4625 61.2544 40.4621 61.2639 40.4618 61.2709C40.4615 61.2778 40.4611 61.2874 40.4608 61.2943C40.4605 61.3013 40.4601 61.3108 40.4599 61.3177C40.4596 61.3247 40.4592 61.3342 40.4589 61.3412C40.4586 61.3481 40.4582 61.3577 40.4579 61.3646C40.4576 61.3716 40.4572 61.3811 40.4569 61.3881C40.4566 61.395 40.4562 61.4045 40.4559 61.4115C40.4557 61.4184 40.4553 61.428 40.455 61.4349C40.4547 61.4419 40.4543 61.4514 40.454 61.4584C40.4537 61.4653 40.4533 61.4749 40.453 61.4818C40.4527 61.4888 40.4523 61.4983 40.452 61.5052C40.4517 61.5122 40.4514 61.5217 40.4511 61.5287C40.4508 61.5356 40.4504 61.5452 40.4501 61.5521C40.4498 61.5591 40.4494 61.5686 40.4491 61.5756C40.4488 61.5825 40.4484 61.592 40.4481 61.599C40.4478 61.6059 40.4474 61.6155 40.4472 61.6224C40.4469 61.6294 40.4465 61.6389 40.4462 61.6459C40.4459 61.6528 40.4455 61.6624 40.4452 61.6693C40.4449 61.6763 40.4445 61.6858 40.4442 61.6927C40.4439 61.6997 40.4435 61.7092 40.4432 61.7162C40.443 61.7231 40.4426 61.7327 40.4423 61.7396C40.442 61.7466 40.4416 61.7561 40.4413 61.7631C40.441 61.77 40.4406 61.7795 40.4403 61.7865C40.44 61.7934 40.4396 61.803 40.4393 61.8099C40.4391 61.8169 40.4387 61.8264 40.4384 61.8334C40.4381 61.8403 40.4377 61.8499 40.4374 61.8568C40.4371 61.8638 40.4367 61.8733 40.4364 61.8802C40.4361 61.8872 40.4357 61.8967 40.4354 61.9037C40.4351 61.9106 40.4347 61.9202 40.4345 61.9271C40.4342 61.9341 40.4338 61.9436 40.4335 61.9506C40.4332 61.9575 40.4328 61.967 40.4325 61.974C40.4322 61.9809 40.4318 61.9905 40.4315 61.9974C40.4312 62.0044 40.4308 62.0139 40.4306 62.0209C40.4303 62.0278 40.4299 62.0374 40.4296 62.0443C40.4293 62.0513 40.4289 62.0608 40.4286 62.0677C40.4283 62.0747 40.4279 62.0842 40.4276 62.0912C40.4273 62.0981 40.4269 62.1077 40.4266 62.1146C40.4264 62.1216 40.426 62.1311 40.4257 62.1381C40.4254 62.145 40.425 62.1545 40.4247 62.1615C40.4244 62.1684 40.424 62.178 40.4237 62.1849C40.4234 62.1919 40.423 62.2014 40.4227 62.2084C40.4225 62.2153 40.4221 62.2249 40.4218 62.2318C40.4215 62.2388 40.4211 62.2483 40.4208 62.2552C40.4205 62.2622 40.4201 62.2717 40.4198 62.2787C40.4195 62.2856 40.4191 62.2952 40.4188 62.3021C40.4185 62.3091 40.4181 62.3186 40.4179 62.3256C40.4176 62.3325 40.4172 62.342 40.4169 62.349C40.4166 62.3559 40.4162 62.3655 40.4159 62.3724C40.4156 62.3794 40.4152 62.3889 40.4149 62.3959C40.4146 62.4028 40.4142 62.4124 40.414 62.4193C40.4137 62.4263 40.4133 62.4358 40.413 62.4427C40.4127 62.4497 40.4123 62.4592 40.412 62.4662C40.4117 62.4731 40.4113 62.4827 40.411 62.4896C40.4107 62.4966 40.4103 62.5061 40.41 62.5131C40.4098 62.52 40.4094 62.5295 40.4091 62.5365C40.4088 62.5434 40.4084 62.553 40.4081 62.5599C40.4078 62.5669 40.4074 62.5764 40.4071 62.5834C40.4068 62.5903 40.4064 62.5999 40.4061 62.6068C40.4058 62.6138 40.4055 62.6233 40.4052 62.6302C40.4049 62.6372 40.4045 62.6467 40.4042 62.6537C40.4039 62.6606 40.4035 62.6702 40.4032 62.6771C40.4029 62.6841 40.4025 62.6936 40.4022 62.7006C40.4019 62.7075 40.4015 62.717 40.4013 62.724C40.401 62.7309 40.4006 62.7405 40.4003 62.7474C40.4 62.7544 40.3996 62.7639 40.3993 62.7709C40.399 62.7778 40.3986 62.7874 40.3983 62.7943C40.398 62.8013 40.3976 62.8108 40.3974 62.8177C40.3971 62.8247 40.3967 62.8342 40.3964 62.8412C40.3961 62.8481 40.3957 62.8577 40.3954 62.8646C40.3951 62.8716 40.3947 62.8811 40.3944 62.8881C40.3941 62.895 40.3937 62.9045 40.3934 62.9115C40.3932 62.9184 40.3928 62.928 40.3925 62.9349C40.3922 62.9419 40.3918 62.9514 40.3915 62.9584C40.3912 62.9653 40.3908 62.9749 40.3905 62.9818C40.3902 62.9888 40.3898 62.9983 40.3895 63.0052C40.3892 63.0122 40.3889 63.0217 40.3886 63.0287C40.3883 63.0356 40.3879 63.0452 40.3876 63.0521C40.3873 63.0591 40.3869 63.0686 40.3866 63.0756C40.3863 63.0825 40.3859 63.092 40.3856 63.099C40.3853 63.1059 40.3849 63.1155 40.3847 63.1224C40.3844 63.1294 40.384 63.1389 40.3837 63.1459C40.3834 63.1528 40.383 63.1624 40.3827 63.1693C40.3824 63.1763 40.382 63.1858 40.3817 63.1927C40.3814 63.1997 40.381 63.2092 40.3807 63.2162C40.3805 63.2231 40.3801 63.2327 40.3798 63.2396C40.3795 63.2466 40.3791 63.2561 40.3788 63.2631C40.3785 63.27 40.3781 63.2795 40.3778 63.2865C40.3775 63.2934 40.3771 63.303 40.3768 63.3099C40.3766 63.3169 40.3762 63.3264 40.3759 63.3334C40.3747 63.3611 40.3692 63.4931 40.3681 63.5209C40.3669 63.5486 40.3614 63.6806 40.3602 63.7084C40.3591 63.7361 40.3536 63.8681 40.3524 63.8959C40.3513 63.9236 40.3458 64.0556 40.3446 64.0834C40.3435 64.1111 40.338 64.2431 40.3368 64.2709C40.3356 64.2986 40.3302 64.4306 40.329 64.4584C40.3278 64.4861 40.3223 64.6181 40.3212 64.6459C40.32 64.6736 40.3145 64.8056 40.3134 64.8334C40.3122 64.8611 40.3067 64.9931 40.3056 65.0209C40.3044 65.0486 40.2989 65.1806 40.2977 65.2084C40.2966 65.2361 40.2911 65.3681 40.2899 65.3959C40.2888 65.4236 40.2833 65.5556 40.2821 65.5834C40.281 65.6111 40.2755 65.7431 40.2743 65.7709C40.2731 65.7986 40.2677 65.9306 40.2665 65.9584C40.2653 65.9861 40.2598 66.1181 40.2587 66.1459C40.2575 66.1736 40.252 66.3056 40.2509 66.3334L42.2491 66.4166ZM42.4991 60.4166C42.5823 58.4196 42.6655 56.653 42.7485 55.1165L40.7515 55.0085C40.6678 56.5553 40.5843 58.3304 40.5009 60.3334L42.4991 60.4166ZM42.7469 55.1412C42.8719 53.5581 42.9557 52.4483 42.9978 51.8165L41.0022 51.6835C40.961 52.3017 40.8781 53.4002 40.7531 54.9838L42.7469 55.1412ZM42 50.75H41.5V52.75H42V50.75ZM40.5927 51.3295C39.8093 53.0201 38.9849 54.6689 38.1195 56.2759L39.8805 57.2241C40.7651 55.5811 41.6074 53.8966 42.4073 52.1705L40.5927 51.3295ZM38.1248 56.2663C37.2651 57.8219 36.2591 59.4648 35.1054 61.1953L36.7696 62.3047C37.9492 60.5352 38.9849 58.8448 39.8752 57.2337L38.1248 56.2663ZM35.1036 61.1982L18.3536 86.5107L20.0214 87.6143L36.7714 62.3018L35.1036 61.1982ZM19.1875 88.0625H41.1875V86.0625H19.1875V88.0625Z" fill="#0E84BC"/>
</svg>
