<svg width="22" height="193" viewBox="0 0 22 193" fill="none" xmlns="http://www.w3.org/2000/svg">
<g filter="url(#filter0_f_181_294)">
<rect x="-116" width="128" height="193" fill="#B3C9D6"/>
<path d="M-112.164 159V139.4H-96.0364V159H-97.4644V140.24L-97.0444 140.688H-111.156L-110.736 140.24V159H-112.164ZM-85.3369 159.112C-86.7369 159.112 -87.9876 158.795 -89.0889 158.16C-90.1716 157.525 -91.0396 156.648 -91.6929 155.528C-92.3276 154.408 -92.6449 153.129 -92.6449 151.692C-92.6449 150.236 -92.3276 148.957 -91.6929 147.856C-91.0396 146.736 -90.1716 145.859 -89.0889 145.224C-87.9876 144.589 -86.7369 144.272 -85.3369 144.272C-83.9369 144.272 -82.6863 144.589 -81.5849 145.224C-80.4836 145.859 -79.6156 146.736 -78.9809 147.856C-78.3463 148.957 -78.0289 150.236 -78.0289 151.692C-78.0289 153.129 -78.3463 154.408 -78.9809 155.528C-79.6156 156.648 -80.4836 157.525 -81.5849 158.16C-82.6863 158.795 -83.9369 159.112 -85.3369 159.112ZM-85.3369 157.852C-84.2169 157.852 -83.2089 157.6 -82.3129 157.096C-81.4169 156.573 -80.7169 155.845 -80.2129 154.912C-79.7089 153.979 -79.4569 152.905 -79.4569 151.692C-79.4569 150.46 -79.7089 149.387 -80.2129 148.472C-80.7169 147.539 -81.4169 146.82 -82.3129 146.316C-83.2089 145.793 -84.2169 145.532 -85.3369 145.532C-86.4569 145.532 -87.4649 145.793 -88.3609 146.316C-89.2383 146.82 -89.9383 147.539 -90.4609 148.472C-90.9649 149.387 -91.2169 150.46 -91.2169 151.692C-91.2169 152.905 -90.9649 153.979 -90.4609 154.912C-89.9383 155.845 -89.2383 156.573 -88.3609 157.096C-87.4649 157.6 -86.4569 157.852 -85.3369 157.852ZM-65.2082 158.328V145.644H-72.8242L-72.9922 149.284C-73.0295 150.311 -73.0949 151.337 -73.1882 152.364C-73.2815 153.372 -73.4309 154.305 -73.6362 155.164C-73.8415 156.004 -74.1309 156.685 -74.5042 157.208C-74.8589 157.731 -75.3255 158.02 -75.9042 158.076L-77.3042 157.768C-76.7069 157.805 -76.2215 157.591 -75.8482 157.124C-75.4749 156.639 -75.1855 155.985 -74.9802 155.164C-74.7749 154.343 -74.6255 153.419 -74.5322 152.392C-74.4202 151.347 -74.3362 150.283 -74.2802 149.2L-74.0842 144.384H-63.8082V158.328H-65.2082ZM-77.9482 162.64V157.768H-61.4562V162.64H-62.7722V159H-76.6042V162.64H-77.9482ZM-51.6374 159.112C-52.9254 159.112 -54.0921 158.813 -55.1374 158.216C-56.1641 157.619 -56.9854 156.769 -57.6014 155.668C-58.1987 154.548 -58.4974 153.223 -58.4974 151.692C-58.4974 150.161 -58.1987 148.845 -57.6014 147.744C-56.9854 146.624 -56.1641 145.765 -55.1374 145.168C-54.0921 144.571 -52.9254 144.272 -51.6374 144.272C-50.2561 144.272 -49.0241 144.589 -47.9414 145.224C-46.8401 145.84 -45.9814 146.708 -45.3654 147.828C-44.7307 148.948 -44.4134 150.236 -44.4134 151.692C-44.4134 153.148 -44.7307 154.436 -45.3654 155.556C-45.9814 156.676 -46.8401 157.553 -47.9414 158.188C-49.0241 158.804 -50.2561 159.112 -51.6374 159.112ZM-58.9734 164.432V144.384H-57.6294V149.172L-57.8534 151.72L-57.5734 154.268V164.432H-58.9734ZM-51.7214 157.852C-50.6014 157.852 -49.5934 157.6 -48.6974 157.096C-47.8014 156.573 -47.1014 155.845 -46.5974 154.912C-46.0747 153.979 -45.8134 152.905 -45.8134 151.692C-45.8134 150.46 -46.0747 149.387 -46.5974 148.472C-47.1014 147.539 -47.8014 146.82 -48.6974 146.316C-49.5934 145.793 -50.6014 145.532 -51.7214 145.532C-52.8414 145.532 -53.8494 145.793 -54.7454 146.316C-55.6227 146.82 -56.3227 147.539 -56.8454 148.472C-57.3494 149.387 -57.6014 150.46 -57.6014 151.692C-57.6014 152.905 -57.3494 153.979 -56.8454 154.912C-56.3227 155.845 -55.6227 156.573 -54.7454 157.096C-53.8494 157.6 -52.8414 157.852 -51.7214 157.852ZM-32.5683 159V153.624L-32.2603 153.96H-37.4403C-39.2696 153.96 -40.6976 153.568 -41.7243 152.784C-42.7323 151.981 -43.2363 150.805 -43.2363 149.256C-43.2363 147.613 -42.6856 146.391 -41.5843 145.588C-40.483 144.785 -39.027 144.384 -37.2163 144.384H-31.2803V159H-32.5683ZM-43.3203 159L-39.2603 153.372H-37.7763L-41.7803 159H-43.3203ZM-32.5683 153.232V145.196L-32.2603 145.616H-37.1323C-38.6256 145.616 -39.783 145.905 -40.6043 146.484C-41.4256 147.063 -41.8363 148.005 -41.8363 149.312C-41.8363 151.701 -40.3243 152.896 -37.3003 152.896H-32.2603L-32.5683 153.232ZM-16.9279 158.328V145.644H-24.5439L-24.7119 149.284C-24.7492 150.311 -24.8146 151.337 -24.9079 152.364C-25.0012 153.372 -25.1506 154.305 -25.3559 155.164C-25.5612 156.004 -25.8506 156.685 -26.2239 157.208C-26.5786 157.731 -27.0452 158.02 -27.6239 158.076L-29.0239 157.768C-28.4266 157.805 -27.9412 157.591 -27.5679 157.124C-27.1946 156.639 -26.9052 155.985 -26.6999 155.164C-26.4946 154.343 -26.3452 153.419 -26.2519 152.392C-26.1399 151.347 -26.0559 150.283 -25.9999 149.2L-25.8039 144.384H-15.5279V158.328H-16.9279ZM-29.6679 162.64V157.768H-13.1759V162.64H-14.4919V159H-28.3239V162.64H-29.6679ZM3.30692 159V144.384H4.70692V159H3.30692ZM-4.95308 149.704C-3.12375 149.723 -1.74241 150.124 -0.809079 150.908C0.142921 151.673 0.618921 152.803 0.618921 154.296C0.618921 155.845 0.114921 157.031 -0.893078 157.852C-1.90108 158.673 -3.35708 159.075 -5.26108 159.056L-10.7211 159V144.384H-9.32108V149.648L-4.95308 149.704ZM-5.31708 157.936C-3.82375 157.955 -2.69441 157.656 -1.92908 157.04C-1.16374 156.424 -0.781078 155.509 -0.781078 154.296C-0.781078 153.12 -1.16374 152.243 -1.92908 151.664C-2.67574 151.085 -3.80508 150.787 -5.31708 150.768L-9.32108 150.74V157.88L-5.31708 157.936Z" fill="white"/>
</g>
<defs>
<filter id="filter0_f_181_294" x="-126" y="-10" width="148" height="213" filterUnits="userSpaceOnUse" color-interpolation-filters="sRGB">
<feFlood flood-opacity="0" result="BackgroundImageFix"/>
<feBlend mode="normal" in="SourceGraphic" in2="BackgroundImageFix" result="shape"/>
<feGaussianBlur stdDeviation="5" result="effect1_foregroundBlur_181_294"/>
</filter>
</defs>
</svg>
