<svg width="29" height="193" viewBox="0 0 29 193" fill="none" xmlns="http://www.w3.org/2000/svg">
<g filter="url(#filter0_f_138_463)">
<rect x="10" width="128" height="193" fill="#B3C9D6"/>
<path d="M26.4048 157.544C27.3195 157.899 28.2062 157.983 29.0648 157.796C29.9235 157.591 30.7355 156.891 31.5008 155.696L32.4528 154.212L32.6208 153.988L40.3488 139.4H41.8328L32.7888 156.032C32.2288 157.096 31.5662 157.88 30.8008 158.384C30.0542 158.888 29.2608 159.149 28.4208 159.168C27.5995 159.205 26.7782 159.056 25.9568 158.72L26.4048 157.544ZM32.5368 155.36L24.1368 139.4H25.7048L33.3488 154.1L32.5368 155.36ZM49.6508 159.112C48.2321 159.112 46.9628 158.795 45.8428 158.16C44.7414 157.525 43.8641 156.648 43.2108 155.528C42.5761 154.408 42.2588 153.129 42.2588 151.692C42.2588 150.236 42.5761 148.948 43.2108 147.828C43.8641 146.708 44.7414 145.84 45.8428 145.224C46.9628 144.589 48.2321 144.272 49.6508 144.272C50.8268 144.272 51.8908 144.496 52.8428 144.944C53.8134 145.392 54.5974 146.064 55.1948 146.96L54.1588 147.716C53.6361 146.969 52.9828 146.419 52.1988 146.064C51.4148 145.709 50.5654 145.532 49.6508 145.532C48.5121 145.532 47.4854 145.793 46.5708 146.316C45.6748 146.82 44.9654 147.539 44.4428 148.472C43.9388 149.387 43.6868 150.46 43.6868 151.692C43.6868 152.924 43.9388 154.007 44.4428 154.94C44.9654 155.855 45.6748 156.573 46.5708 157.096C47.4854 157.6 48.5121 157.852 49.6508 157.852C50.5654 157.852 51.4148 157.675 52.1988 157.32C52.9828 156.965 53.6361 156.415 54.1588 155.668L55.1948 156.424C54.5974 157.32 53.8134 157.992 52.8428 158.44C51.8908 158.888 50.8268 159.112 49.6508 159.112ZM55.8431 158.944L55.9831 157.74C56.0951 157.759 56.2071 157.787 56.3191 157.824C56.4498 157.843 56.5618 157.852 56.6551 157.852C57.2898 157.852 57.7938 157.619 58.1671 157.152C58.5405 156.667 58.8205 156.023 59.0071 155.22C59.2125 154.417 59.3525 153.512 59.4271 152.504C59.5205 151.496 59.5951 150.469 59.6511 149.424L59.9031 144.384H70.1511V159H68.7511V145.196L69.1431 145.644H60.7991L61.1631 145.168L60.9391 149.536C60.8645 150.805 60.7618 152.019 60.6311 153.176C60.5005 154.333 60.3045 155.36 60.0431 156.256C59.7818 157.152 59.4085 157.861 58.9231 158.384C58.4378 158.888 57.8125 159.14 57.0471 159.14C56.8605 159.14 56.6645 159.121 56.4591 159.084C56.2725 159.047 56.0671 159 55.8431 158.944ZM76.0318 164.544C75.3598 164.544 74.7251 164.432 74.1278 164.208C73.5491 163.984 73.0544 163.657 72.6438 163.228L73.3438 162.164C73.7171 162.556 74.1184 162.845 74.5478 163.032C74.9958 163.219 75.4998 163.312 76.0598 163.312C76.7318 163.312 77.3198 163.125 77.8238 162.752C78.3464 162.379 78.8318 161.697 79.2798 160.708L80.2878 158.468L80.4838 158.216L86.6718 144.384H88.0998L80.5958 160.988C80.2038 161.884 79.7744 162.584 79.3078 163.088C78.8598 163.611 78.3651 163.984 77.8238 164.208C77.2824 164.432 76.6851 164.544 76.0318 164.544ZM80.2598 159.364L73.4838 144.384H74.9678L81.1278 158.132L80.2598 159.364ZM91.4849 159V144.384H101.481V145.644H92.4929L92.8849 145.252V159H91.4849ZM104.473 159V144.384H105.873V156.844L116.289 144.384H117.521V159H116.121V146.54L105.705 159H104.473Z" fill="white"/>
</g>
<defs>
<filter id="filter0_f_138_463" x="0" y="-10" width="148" height="213" filterUnits="userSpaceOnUse" color-interpolation-filters="sRGB">
<feFlood flood-opacity="0" result="BackgroundImageFix"/>
<feBlend mode="normal" in="SourceGraphic" in2="BackgroundImageFix" result="shape"/>
<feGaussianBlur stdDeviation="5" result="effect1_foregroundBlur_138_463"/>
</filter>
</defs>
</svg>
