<svg width="23" height="21" viewBox="0 0 23 21" fill="none" xmlns="http://www.w3.org/2000/svg">
<path d="M20.032 5.83244C21.1893 5.02577 21.7893 4.20577 21.3627 3.00844C20.9347 1.8111 19.656 1.2031 18.5053 1.6471C16.7413 2.3271 15.0747 3.6151 13.6347 4.9911C12.1707 6.38977 10.8053 8.01244 9.648 9.5231C8.85067 10.5644 8.14 11.5698 7.55067 12.4418C7.048 11.8631 6.564 11.4244 6.108 11.0924C5.40533 10.5804 4.6 10.2044 3.72267 10.1684C2.49467 10.1684 1.5 11.2031 1.5 12.4791C1.5 14.0391 2.576 14.1631 3.55867 14.8791C3.91333 15.1364 4.684 15.8538 5.68133 17.6711C5.86693 18.016 6.14072 18.3055 6.47475 18.51C6.80878 18.7145 7.1911 18.8267 7.58267 18.8351C7.97388 18.8379 8.35877 18.7364 8.69766 18.5409C9.03656 18.3454 9.3172 18.0631 9.51067 17.7231C10.1515 16.6412 10.8313 15.5831 11.5485 14.5509C12.0551 13.8218 12.5805 13.1056 13.124 12.4031C14.1973 11.0018 15.4053 9.57777 16.6427 8.3951C17.9053 7.18844 19.096 6.4831 20.032 5.83244Z" stroke="#00B4F1" stroke-width="3" stroke-linecap="round" stroke-linejoin="round"/>
</svg>
