<svg width="20" height="14" viewBox="0 0 20 14" fill="none" xmlns="http://www.w3.org/2000/svg">
<path d="M20 2.37736C20 1.74684 19.7366 1.14215 19.2678 0.696312C18.7989 0.250471 18.163 0 17.5 0H2.5C1.83696 0 1.20107 0.250471 0.732233 0.696312C0.263392 1.14215 0 1.74684 0 2.37736V11.6226C0 12.2532 0.263392 12.8578 0.732233 13.3037C1.20107 13.7495 1.83696 14 2.5 14H17.5C18.163 14 18.7989 13.7495 19.2678 13.3037C19.7366 12.8578 20 12.2532 20 11.6226V2.37736ZM17.5 1.58491C17.7052 1.58535 17.903 1.65777 18.0556 1.7883L10.1306 6.9683L1.94444 1.78302C2.0978 1.6544 2.29553 1.58389 2.5 1.58491H17.5ZM17.5 12.4151H2.5C2.27899 12.4151 2.06702 12.3316 1.91074 12.183C1.75446 12.0344 1.66667 11.8328 1.66667 11.6226V3.50528L9.67778 8.58491C9.81558 8.67348 9.97811 8.72082 10.1444 8.72082C10.3108 8.72082 10.4733 8.67348 10.6111 8.58491L18.3333 3.52906V11.6226C18.3333 11.8328 18.2455 12.0344 18.0893 12.183C17.933 12.3316 17.721 12.4151 17.5 12.4151Z" fill="white"/>
</svg>
