<svg width="42" height="40" viewBox="0 0 42 40" fill="none" xmlns="http://www.w3.org/2000/svg">
<g clip-path="url(#clip0_1646_4066)">
<path fill-rule="evenodd" clip-rule="evenodd" d="M4.24263 29.0159L10.5002 38.5698L13.1903 36.8079L6.93273 27.2539L4.24263 29.0159ZM2.56462 28.1785C2.25279 28.3828 2.16557 28.8011 2.36981 29.113L9.66286 40.2478C9.8671 40.5597 10.2855 40.6469 10.5973 40.4426L14.8683 37.6452C15.1802 37.441 15.2674 37.0226 15.0631 36.7108L7.77008 25.5759C7.56584 25.2641 7.14749 25.1769 6.83566 25.3811L2.56462 28.1785Z" fill="#0062BD" stroke="#26C4F7" stroke-width="1.73513"/>
<path fill-rule="evenodd" clip-rule="evenodd" d="M17.9856 23.3828C17.3019 23.0865 16.2893 22.8738 14.7543 23.1808C13.3458 23.4625 11.9786 24.6308 10.9047 25.8699C10.383 26.4719 9.95978 27.0561 9.667 27.4902C9.5953 27.5966 9.53165 27.6935 9.47652 27.7792L13.4593 34.0378L14.7394 33.0777C15.347 32.6221 16.0859 32.3758 16.8453 32.3758H27.0208C27.1249 32.3758 27.2267 32.3457 27.3141 32.2892L37.3625 25.7872L36.6992 25.3893C35.8883 24.9027 34.9051 24.7948 34.0079 25.0938L28.1781 27.0371C28.1087 27.4257 27.9709 27.7653 27.777 28.0561C27.4922 28.4832 27.1184 28.7578 26.7692 28.9324C26.4232 29.1054 26.087 29.1879 25.8441 29.2284C25.7208 29.2489 25.6162 29.2595 25.5393 29.265C25.5007 29.2678 25.4687 29.2693 25.4443 29.2701L25.4135 29.2709L25.4025 29.271L25.3982 29.271L25.3963 29.271C25.3959 29.271 25.3946 29.271 25.3946 28.4688V29.271H20.67C20.2227 29.271 19.86 28.9084 19.86 28.4611C19.86 28.0138 20.2227 27.6512 20.67 27.6512H25.3889C25.3893 27.6511 25.3898 27.6511 25.3904 27.6511C25.3956 27.6509 25.4071 27.6505 25.4239 27.6493C25.4577 27.6468 25.5114 27.6416 25.5778 27.6305C25.7146 27.6077 25.8846 27.5637 26.0448 27.4836C26.2018 27.405 26.3342 27.3 26.4292 27.1576C26.5207 27.0203 26.6095 26.8007 26.6095 26.4363C26.6095 25.9157 26.4261 25.5363 26.1883 25.2484C25.9629 24.9755 25.6372 24.7954 25.1913 24.6852C24.736 24.5727 24.2097 24.5464 23.6422 24.5464H19.7498L19.5458 24.4104C19.3826 24.3016 19.2419 24.1905 19.1003 24.0787C18.8038 23.8444 18.5034 23.6072 17.9856 23.3828ZM28.0677 25.3664L33.4957 23.5571C34.8415 23.1085 36.3162 23.2704 37.5327 24.0002L38.7531 24.7325C39.5241 25.1951 39.5429 26.3058 38.788 26.7943L28.1941 33.6492C27.8446 33.8753 27.4371 33.9957 27.0208 33.9957H16.8453C16.4364 33.9957 16.0385 34.1283 15.7114 34.3736L13.0318 36.3833L7.57523 27.8086L7.81771 27.3843L8.52093 27.7861C7.81771 27.3843 7.81759 27.3845 7.81771 27.3843L7.81896 27.3821L7.8212 27.3782L7.82865 27.3654L7.85524 27.3201C7.8781 27.2815 7.91118 27.2264 7.95398 27.1569C8.03953 27.0181 8.16419 26.8215 8.32401 26.5845C8.64289 26.1117 9.10554 25.4725 9.68061 24.809C10.8003 23.5171 12.4704 21.9856 14.4366 21.5924C16.2763 21.2244 17.6261 21.4616 18.6297 21.8965C19.3578 22.212 19.9611 22.6854 20.2667 22.9265H23.6422C24.2353 22.9265 24.9248 22.9508 25.5799 23.1127C26.2444 23.2769 26.9236 23.5949 27.4373 24.2169C27.6963 24.5305 27.9238 24.9127 28.0677 25.3664Z" fill="#0062BD"/>
<path d="M7.81771 27.3843L7.57523 27.8086L13.0318 36.3833L15.7114 34.3736C16.0385 34.1283 16.4364 33.9957 16.8453 33.9957H27.0208C27.4371 33.9957 27.8446 33.8753 28.1941 33.6492L38.788 26.7943C39.5429 26.3058 39.5241 25.1951 38.7531 24.7325L37.5327 24.0002C36.3162 23.2704 34.8415 23.1085 33.4957 23.5571L28.0677 25.3664C27.9238 24.9127 27.6963 24.5305 27.4373 24.2169C26.9236 23.5949 26.2444 23.2769 25.5799 23.1127C24.9248 22.9508 24.2353 22.9265 23.6422 22.9265H20.2667C19.9611 22.6854 19.3578 22.212 18.6297 21.8965C17.6261 21.4616 16.2763 21.2244 14.4366 21.5924C12.4704 21.9856 10.8003 23.5171 9.68061 24.809C9.10554 25.4725 8.64289 26.1117 8.32401 26.5845C8.16419 26.8215 8.03953 27.0181 7.95398 27.1569C7.91118 27.2264 7.8781 27.2815 7.85524 27.3201L7.82865 27.3654L7.8212 27.3782L7.81896 27.3821L7.81771 27.3843ZM7.81771 27.3843L8.52093 27.7861C7.81771 27.3843 7.81759 27.3845 7.81771 27.3843ZM14.7543 23.1808C16.2893 22.8738 17.3019 23.0865 17.9856 23.3828C18.5034 23.6072 18.8038 23.8444 19.1003 24.0787C19.2419 24.1905 19.3826 24.3016 19.5458 24.4104L19.7498 24.5464H23.6422C24.2097 24.5464 24.736 24.5727 25.1913 24.6852C25.6372 24.7954 25.9629 24.9755 26.1883 25.2484C26.4261 25.5363 26.6095 25.9157 26.6095 26.4363C26.6095 26.8007 26.5207 27.0203 26.4292 27.1576C26.3342 27.3 26.2018 27.405 26.0448 27.4836C25.8846 27.5637 25.7146 27.6077 25.5778 27.6305C25.5114 27.6416 25.4577 27.6468 25.4239 27.6493C25.4071 27.6505 25.3956 27.6509 25.3904 27.6511C25.3898 27.6511 25.3893 27.6511 25.3889 27.6512H20.67C20.2227 27.6512 19.86 28.0138 19.86 28.4611C19.86 28.9084 20.2227 29.271 20.67 29.271H25.3946V28.4688C25.3946 29.271 25.3959 29.271 25.3963 29.271L25.3982 29.271L25.4025 29.271L25.4135 29.2709L25.4443 29.2701C25.4687 29.2693 25.5007 29.2678 25.5393 29.265C25.6162 29.2595 25.7208 29.2489 25.8441 29.2284C26.087 29.1879 26.4232 29.1054 26.7692 28.9324C27.1184 28.7578 27.4922 28.4832 27.777 28.0561C27.9709 27.7653 28.1087 27.4257 28.1781 27.0371L34.0079 25.0938C34.9051 24.7948 35.8883 24.9027 36.6992 25.3893L37.3625 25.7872L27.3141 32.2892C27.2267 32.3457 27.1249 32.3758 27.0208 32.3758H16.8453C16.0859 32.3758 15.347 32.6221 14.7394 33.0777L13.4593 34.0378L9.47652 27.7792C9.53165 27.6935 9.5953 27.5966 9.667 27.4902C9.95978 27.0561 10.383 26.4719 10.9047 25.8699C11.9786 24.6308 13.3458 23.4625 14.7543 23.1808Z" stroke="#26C4F7" stroke-width="1.73513" stroke-linecap="round"/>
<path d="M21.5734 2.51229H28.9979V5.88702H21.5734V8.58681L15.4989 4.53713L21.5734 -0.1875V2.51229Z" fill="#26C4F7" stroke="#26C4F7" stroke-width="1.44594"/>
<path d="M22.9234 16.6862L15.4989 16.6862L15.4989 13.3115L22.9234 13.3115L22.9234 10.6117L28.9979 14.6614L22.9234 19.386L22.9234 16.6862Z" fill="#26C4F7" stroke="#26C4F7" stroke-width="1.44594"/>
</g>
<defs>
<clipPath id="clip0_1646_4066">
<rect width="41.7698" height="40" fill="white"/>
</clipPath>
</defs>
</svg>
