<svg width="32" height="32" viewBox="0 0 32 32" fill="none" xmlns="http://www.w3.org/2000/svg">
<path fill-rule="evenodd" clip-rule="evenodd" d="M17.573 4L18.9213 6.8764L20.4494 7.32584L23.3258 6.42697L25.573 8.67416L24.5843 11.5506L25.2135 12.9888L28 14.427V17.573L25.2135 18.9213L24.6742 20.4494L25.573 23.3258L23.3258 25.573L20.4494 24.5843L19.0112 25.2135L17.573 28H14.427L13.0787 25.2135L11.6404 24.6742L8.67416 25.573L6.42697 23.3258L7.50562 20.4494L6.78652 19.0112L4.08989 17.573L4 14.427L6.8764 13.0787L7.32584 11.6404L6.42697 8.67416L8.67416 6.42697L11.5506 7.50562L12.9888 6.78652L14.427 4.08989L17.573 4ZM16.0449 11.6404C18.382 11.6404 20.3596 13.618 20.3596 16.0449C20.3596 18.382 18.382 20.3596 16.0449 20.3596C13.618 20.3596 11.6404 18.382 11.6404 16.0449C11.6404 13.618 13.618 11.6404 16.0449 11.6404Z" fill="white"/>
</svg>
