<svg width="42" height="40" viewBox="0 0 42 40" fill="none" xmlns="http://www.w3.org/2000/svg">
<path d="M37.3429 32.7627H36.9112V6.74421C36.9112 6.47162 36.6825 6.25037 36.4003 6.25037H27.7777C27.4955 6.25037 27.2668 6.47139 27.2668 6.74421V32.7627H25.6314V6.74543C25.6314 6.4726 25.4028 6.25159 25.1205 6.25159L16.4955 6.25183C16.2132 6.25183 15.9846 6.47284 15.9846 6.74567V32.7623H14.4306L14.4308 6.74384C14.4308 6.47125 14.2022 6.25 13.9199 6.25H5.29734C5.0151 6.25 4.78646 6.47102 4.78646 6.74384V32.7623H4.42678C4.14454 32.7623 3.91589 32.9831 3.91589 33.2562C3.91589 33.529 4.14429 33.75 4.42678 33.75H37.343C37.6252 33.75 37.8539 33.5292 37.8539 33.2562C37.8536 32.9831 37.6252 32.7623 37.3427 32.7623L37.3429 32.7627ZM9.60904 31.4266C7.7944 31.4266 6.3183 29.9992 6.3183 28.2451C6.3183 26.491 7.7944 25.0642 9.60904 25.0642C11.4237 25.0642 12.8998 26.491 12.8998 28.2451C12.8998 29.9992 11.4237 31.4266 9.60904 31.4266ZM12.8998 20.9002C12.8998 21.173 12.6714 21.394 12.3889 21.394H6.8284C6.54616 21.394 6.31752 21.1733 6.31752 20.9002L6.31776 8.2268C6.31776 7.95398 6.54616 7.73296 6.82865 7.73296H12.3891C12.6714 7.73296 12.9 7.95374 12.9 8.2268L12.8998 20.9002ZM20.8086 31.4266C18.994 31.4266 17.5179 29.9992 17.5179 28.2451C17.5179 26.491 18.994 25.0642 20.8086 25.0642C22.6233 25.0642 24.0994 26.491 24.0994 28.2451C24.0994 29.9992 22.6233 31.4266 20.8086 31.4266ZM24.0994 20.9002C24.0994 21.173 23.871 21.394 23.5885 21.394H18.028C17.7458 21.394 17.5171 21.1733 17.5171 20.9002V8.2268C17.5171 7.95398 17.7455 7.73296 18.028 7.73296H23.5885C23.8707 7.73296 24.0994 7.95374 24.0994 8.2268V20.9002ZM32.0894 31.4266C30.2748 31.4266 28.7982 29.9992 28.7982 28.2451C28.7982 26.491 30.2748 25.0642 32.0894 25.0642C33.9041 25.0642 35.3801 26.491 35.3801 28.2451C35.3801 29.9992 33.9041 31.4266 32.0894 31.4266ZM35.3801 20.9002C35.3801 21.173 35.1517 21.394 34.8693 21.394H29.3088C29.0265 21.394 28.7979 21.1733 28.7979 20.9002L28.7981 8.2268C28.7981 7.95398 29.0265 7.73296 29.309 7.73296H34.8695C35.1518 7.73296 35.3804 7.95374 35.3804 8.2268L35.3801 20.9002Z" fill="#26C4F7"/>
<path d="M9.60884 26.0518C8.35769 26.0518 7.3396 27.0359 7.3396 28.2453C7.3396 29.4552 8.35769 30.4393 9.60884 30.4393C10.86 30.4393 11.8781 29.4552 11.8781 28.2453C11.8781 27.0359 10.8597 26.0518 9.60884 26.0518Z" fill="#26C4F7"/>
<path d="M7.33911 20.4068H11.878V8.72083H7.33911V20.4068ZM8.36356 10.9196H10.8538C11.136 10.9196 11.3647 11.1403 11.3647 11.4134C11.3647 11.6862 11.1363 11.9072 10.8538 11.9072H8.36356C8.08132 11.9072 7.85268 11.6865 7.85268 11.4134C7.85292 11.1403 8.08132 10.9196 8.36356 10.9196ZM8.36356 14.0701H10.8538C11.136 14.0701 11.3647 14.2909 11.3647 14.5639C11.3647 14.8368 11.1363 15.0578 10.8538 15.0578H8.36356C8.08132 15.0578 7.85268 14.837 7.85268 14.5639C7.85292 14.2911 8.08132 14.0701 8.36356 14.0701ZM8.36356 17.2209H10.8538C11.136 17.2209 11.3647 17.4417 11.3647 17.7147C11.3647 17.9876 11.1363 18.2086 10.8538 18.2086H8.36356C8.08132 18.2086 7.85268 17.9878 7.85268 17.7147C7.85292 17.4417 8.08132 17.2209 8.36356 17.2209Z" fill="#26C4F7"/>
<path d="M18.5387 20.4068H23.0776L23.0774 8.72083H18.5385L18.5387 20.4068ZM19.5631 10.9196H22.0534C22.3356 10.9196 22.5643 11.1403 22.5643 11.4134C22.5643 11.6862 22.3359 11.9072 22.0534 11.9072H19.5631C19.2809 11.9072 19.0523 11.6865 19.0523 11.4134C19.0525 11.1403 19.2809 10.9196 19.5631 10.9196ZM19.5631 14.0701H22.0534C22.3356 14.0701 22.5643 14.2909 22.5643 14.5639C22.5643 14.8368 22.3359 15.0578 22.0534 15.0578H19.5631C19.2809 15.0578 19.0523 14.837 19.0523 14.5639C19.0525 14.2911 19.2809 14.0701 19.5631 14.0701ZM19.5631 17.2209H22.0534C22.3356 17.2209 22.5643 17.4417 22.5643 17.7147C22.5643 17.9876 22.3359 18.2086 22.0534 18.2086H19.5631C19.2809 18.2086 19.0523 17.9878 19.0523 17.7147C19.0525 17.4417 19.2809 17.2209 19.5631 17.2209Z" fill="#26C4F7"/>
<path d="M20.8083 26.0518C19.5572 26.0518 18.5391 27.0359 18.5391 28.2453C18.5391 29.4552 19.5572 30.4393 20.8083 30.4393C22.0595 30.4393 23.0776 29.4552 23.0776 28.2453C23.0773 27.0359 22.0592 26.0518 20.8083 26.0518Z" fill="#26C4F7"/>
<path d="M32.0895 26.0518C30.8379 26.0518 29.8198 27.0359 29.8198 28.2453C29.8198 29.4552 30.8379 30.4393 32.0895 30.4393C33.3407 30.4393 34.3588 29.4552 34.3588 28.2453C34.3588 27.0359 33.3407 26.0518 32.0895 26.0518Z" fill="#26C4F7"/>
<path d="M29.8198 20.4068H34.3588V8.72083H29.8198V20.4068ZM30.8445 10.9196H33.3348C33.617 10.9196 33.8456 11.1403 33.8456 11.4134C33.8456 11.6862 33.6172 11.9072 33.3348 11.9072H30.8445C30.5623 11.9072 30.3336 11.6865 30.3336 11.4134C30.3336 11.1403 30.562 10.9196 30.8445 10.9196ZM30.8445 14.0701H33.3348C33.617 14.0701 33.8456 14.2909 33.8456 14.5639C33.8456 14.8368 33.6172 15.0578 33.3348 15.0578H30.8445C30.5623 15.0578 30.3336 14.837 30.3336 14.5639C30.3336 14.2911 30.562 14.0701 30.8445 14.0701ZM30.8445 17.2209H33.3348C33.617 17.2209 33.8456 17.4417 33.8456 17.7147C33.8456 17.9876 33.6172 18.2086 33.3348 18.2086H30.8445C30.5623 18.2086 30.3336 17.9878 30.3336 17.7147C30.3336 17.4417 30.562 17.2209 30.8445 17.2209Z" fill="#26C4F7"/>
</svg>
