<?xml version="1.0" encoding="UTF-8"?><svg id="a" xmlns="http://www.w3.org/2000/svg" width="32" height="32" xmlns:xlink="http://www.w3.org/1999/xlink" viewBox="0 0 32 32"><defs><clipPath id="b"><rect width="32" height="32" style="fill:none;"/></clipPath></defs><g style="clip-path:url(#b);"><g><path d="M15.9,32h.1c6.4,0,10-.6,12.7-3.2,2.7-2.7,3.3-6.4,3.3-12.7v-.2c0-6.3-.6-10-3.3-12.7C26.1,.6,22.4,0,16.1,0h-.1C9.6,0,5.9,.6,3.3,3.2,.6,5.9,0,9.6,0,15.9v.2c0,6.3,.6,10,3.3,12.7,2.6,2.5,6.3,3.2,12.7,3.2Z" style="fill:#202022;"/><path d="M28.2,15.8c0-.1,0-.2-.2-.2-4.4-.2-7-.7-8.9-2.6-1.9-1.9-2.4-4.5-2.6-8.9,0-.1-.1-.2-.2-.2h-.5c-.1,0-.2,0-.2,.2-.2,4.4-.7,7-2.6,8.9-1.9,1.9-4.5,2.4-8.9,2.6-.1,0-.2,.1-.2,.2v.5c0,.1,0,.2,.2,.2,4.4,.2,7,.7,8.9,2.6,1.9,1.9,2.4,4.5,2.6,8.9,0,.1,.1,.2,.2,.2h.5c.1,0,.2,0,.2-.2,.2-4.4,.7-7,2.6-8.9,1.9-1.9,4.5-2.4,8.9-2.6,.1,0,.2-.1,.2-.2v-.5h0Z" style="fill:#fff;"/></g></g></svg>