<svg width="32" height="32" viewBox="0 0 32 32" fill="none" xmlns="http://www.w3.org/2000/svg">
<mask id="path-1-inside-1_2869_41511" fill="white">
<rect x="3" y="6" width="26" height="20" rx="1"/>
</mask>
<rect x="3" y="6" width="26" height="20" rx="1" stroke="#26C4F7" stroke-width="3" mask="url(#path-1-inside-1_2869_41511)"/>
<circle cx="22.5" cy="19.5" r="3.5" fill="#26C4F7"/>
<path d="M6 10.75C6 10.3358 6.33579 10 6.75 10H25.25C25.6642 10 26 10.3358 26 10.75C26 11.1642 25.6642 11.5 25.25 11.5H6.75C6.33579 11.5 6 11.1642 6 10.75Z" fill="#26C4F7"/>
<path d="M6 13.75C6 13.3358 6.33579 13 6.75 13H25.25C25.6642 13 26 13.3358 26 13.75C26 14.1642 25.6642 14.5 25.25 14.5H6.75C6.33579 14.5 6 14.1642 6 13.75Z" fill="#26C4F7"/>
<path d="M6 17.75C6 17.3358 6.33579 17 6.75 17H17.25C17.6642 17 18 17.3358 18 17.75C18 18.1642 17.6642 18.5 17.25 18.5H6.75C6.33579 18.5 6 18.1642 6 17.75Z" fill="#26C4F7"/>
<path d="M6 20.75C6 20.3358 6.33579 20 6.75 20H15.25C15.6642 20 16 20.3358 16 20.75C16 21.1642 15.6642 21.5 15.25 21.5H6.75C6.33579 21.5 6 21.1642 6 20.75Z" fill="#26C4F7"/>
</svg>
