<svg width="32" height="32" viewBox="0 0 32 32" fill="none" xmlns="http://www.w3.org/2000/svg">
<path d="M23.0665 7.56464C26.5222 9.86591 28.807 13.8008 28.807 18.2628C28.807 25.3409 23.0619 31.1 16 31.1C8.93806 31.1 3.193 25.341 3.193 18.2628C3.193 13.797 5.48181 9.85911 8.94277 7.55847L8.40394 6.64898L7.31142 7.34444L7.31142 7.34444C7.15484 7.4441 6.95174 7.39403 6.8556 7.24273L6.85551 7.2426C6.58842 6.82086 6.50109 6.31956 6.6097 5.83232L23.0665 7.56464ZM23.0665 7.56464L23.5989 6.65004M23.0665 7.56464L23.5989 6.65004M23.5989 6.65004C23.814 6.78594 23.9939 6.90493 24.1459 7.00553L24.1685 7.02043C24.3438 7.13638 24.4845 7.22908 24.5979 7.29202C24.7077 7.35302 24.81 7.39695 24.9045 7.39473C25.014 7.39215 25.0895 7.33012 25.1448 7.2428L25.0604 7.18929L25.1449 7.2428C25.412 6.82106 25.4993 6.31976 25.3907 5.8325C25.2821 5.34504 24.9903 4.92869 24.5697 4.66094L23.5989 6.65004ZM15.6353 3.77824H14.4627C13.6706 3.77824 13.0267 3.13248 13.0267 2.33912C13.0267 1.54575 13.6706 0.9 14.4627 0.9H17.4432C18.2352 0.9 18.8791 1.546 18.8789 2.33912L15.6353 3.77824ZM15.6353 3.77824L15.6641 5.43344C13.4201 5.49172 11.3174 6.1291 9.50148 7.20529L8.95904 6.28948C9.22513 6.10123 9.45954 5.96529 9.65473 5.8521C9.75189 5.79575 9.83933 5.74504 9.91613 5.69632C10.0321 5.62275 10.1344 5.54709 10.1885 5.45739C10.2175 5.40923 10.2339 5.35527 10.2306 5.29596C10.2273 5.23794 10.2056 5.1832 10.1728 5.13149L10.0958 5.18027L10.1728 5.13149C9.62128 4.26075 8.46554 4.0017 7.59615 4.55519L7.59604 4.55527L7.4309 4.66071C7.01038 4.92847 6.71826 5.34482 6.6097 5.8323L15.6353 3.77824ZM24.726 6.58446L22.6006 5.23138C22.7522 5.09573 22.9366 5.00013 23.1409 4.95444L23.141 4.9544C23.1437 4.9538 23.1464 4.9532 23.1491 4.95261C23.461 4.8847 23.7804 4.94193 24.0501 5.11356L24.726 6.58446ZM24.726 6.58446C24.8746 6.08371 24.6858 5.51851 24.2156 5.2191L24.2155 5.21907L24.0501 5.1136L24.726 6.58446ZM9.40039 5.23144L7.27499 6.58454C7.12605 6.08328 7.31557 5.51818 7.78558 5.21918L7.78572 5.21909L7.95081 5.11368L9.40039 5.23144ZM9.40039 5.23144C9.01772 4.88975 8.4288 4.80979 7.95097 5.11358L9.40039 5.23144ZM24.5696 4.6609L24.4042 4.55543L24.4042 4.55539C23.6775 4.09274 22.9234 4.24188 22.4195 4.54279C22.1686 4.69262 21.9718 4.88441 21.8691 5.06714C21.8179 5.1581 21.7857 5.25474 21.79 5.3471C21.7946 5.44482 21.8403 5.53123 21.9294 5.58786L23.0406 6.29533L22.5078 7.21033C20.6868 6.12908 18.5769 5.48963 16.3245 5.43305L16.2957 3.77824H17.4429C18.235 3.77824 18.8788 3.13252 18.8789 2.33915L24.5696 4.6609ZM13.6873 2.33918C13.6873 1.91033 14.0356 1.56174 14.4626 1.56174H17.4431C17.8704 1.56174 18.2185 1.91055 18.2185 2.33918C18.2185 2.76804 17.8701 3.11662 17.4431 3.11662L14.4626 3.11686C14.0356 3.11686 13.6873 2.76806 13.6873 2.33918ZM16.0003 30.4388C9.30264 30.4388 3.85331 24.9769 3.85331 18.2627C3.85331 11.5492 9.30263 6.08721 16.0003 6.08721C22.6979 6.08721 28.1473 11.5492 28.1473 18.2633C28.1473 24.9769 22.6979 30.4388 16.0003 30.4388Z" fill="#26C4F7" stroke="#26C4F7" stroke-width="0.2"/>
<path d="M24.5103 22.1628L24.509 22.1617C24.3512 22.0861 24.2783 21.8992 24.3457 21.7357L24.3457 21.7356C24.4157 21.5665 24.6089 21.4858 24.7786 21.556L24.7788 21.556L25.7506 21.9594C26.1468 20.9106 26.3788 19.782 26.4156 18.6043H24.9005C24.7172 18.6043 24.5691 18.4554 24.5691 18.2723C24.5691 18.0889 24.7173 17.9404 24.9005 17.9404H26.4156C26.3787 16.7624 26.1468 15.6339 25.7506 14.585L24.7793 14.9884C24.7792 14.9885 24.7791 14.9885 24.779 14.9885L24.5103 22.1628ZM24.5103 22.1628L24.5256 22.1691M24.5103 22.1628L24.5256 22.1691M24.5256 22.1691L25.4974 22.5726C25.0208 23.6252 24.3751 24.5849 23.5947 25.4171C23.3046 25.1512 23.088 24.9163 22.9127 24.7263C22.8316 24.6383 22.7594 24.56 22.6928 24.4926C22.5868 24.3854 22.4859 24.296 22.3842 24.2592C22.3296 24.2394 22.2719 24.2335 22.2129 24.2493C22.1552 24.2648 22.1054 24.2987 22.0615 24.3427C21.9322 24.4723 21.9322 24.6822 22.0615 24.8118L23.1299 25.8828C22.2991 26.6647 21.3414 27.3118 20.2906 27.7891C20.2221 27.6441 20.1669 27.5037 20.1185 27.3734C20.1003 27.3244 20.0828 27.2761 20.0659 27.2292C20.0299 27.1296 19.9962 27.0365 19.9631 26.9576C19.9153 26.8436 19.86 26.7364 19.7811 26.6707C19.7392 26.6358 19.6895 26.6116 19.6316 26.6049C19.5746 26.5984 19.5174 26.6097 19.4608 26.6331L19.4608 26.6331M24.5256 22.1691L19.4608 26.6331M5.5966 18.6043C5.63357 19.7842 5.86626 20.9147 6.26383 21.9652C6.41359 21.9114 6.55116 21.8516 6.67713 21.7938C6.7242 21.7722 6.7703 21.7506 6.81504 21.7296C6.91122 21.6844 7.00111 21.6423 7.08078 21.6097C7.19535 21.5629 7.3105 21.5262 7.41283 21.5354C7.4673 21.5403 7.5197 21.5582 7.56548 21.5945C7.6105 21.6301 7.64304 21.6787 7.6665 21.7353L7.66654 21.7354C7.68993 21.7921 7.70122 21.8494 7.69467 21.9064C7.68801 21.9644 7.6638 22.0141 7.62887 22.0562C7.56323 22.1352 7.45608 22.1907 7.34218 22.2388C7.26314 22.2721 7.17008 22.3059 7.07044 22.3421C7.02384 22.359 6.9758 22.3765 6.92708 22.3946C6.79707 22.4431 6.65726 22.4984 6.51295 22.5668C6.98979 23.6218 7.63642 24.5831 8.41799 25.4168C8.71265 25.147 8.9311 24.9103 9.10685 24.7199C9.18711 24.633 9.25846 24.5557 9.32409 24.4893C9.42932 24.3828 9.52954 24.2941 9.63061 24.258C9.68506 24.2386 9.74252 24.2331 9.80107 24.2493C9.85823 24.2651 9.90755 24.2989 9.95119 24.3427C9.99517 24.3868 10.0289 24.4366 10.0443 24.4943C10.06 24.5533 10.0542 24.611 10.0345 24.6657C9.99777 24.7674 9.90869 24.8686 9.80173 24.9748C9.7345 25.0416 9.65632 25.1141 9.56858 25.1954C9.37889 25.3711 9.14448 25.5884 8.87913 25.8793C9.71071 26.6628 10.6699 27.311 11.7221 27.7891C11.7886 27.6476 11.8428 27.5095 11.8906 27.3802C11.9082 27.3325 11.9252 27.2854 11.9417 27.2395C11.9781 27.1386 12.0122 27.0439 12.046 26.9632C12.0943 26.8481 12.1502 26.7397 12.2293 26.673C12.2713 26.6375 12.3212 26.6125 12.3795 26.6053C12.437 26.5983 12.4948 26.6094 12.5519 26.6331L5.5966 18.6043ZM5.5966 18.6043H7.11173C7.29492 18.6043 7.44313 18.4558 7.44313 18.2723C7.44313 18.0892 7.29499 17.9404 7.11173 17.9404H5.5966C5.63347 16.7626 5.86538 15.6341 6.26165 14.585L7.23342 14.9886L7.23363 14.9887C7.27451 15.0056 7.31773 15.014 7.36013 15.014C7.49 15.014 7.61356 14.937 7.66632 14.8089M5.5966 18.6043L9.95136 12.2013C9.8866 12.2662 9.80174 12.2986 9.71694 12.2986C9.63214 12.2986 9.54728 12.2662 9.48253 12.2013C9.48253 12.2013 9.48252 12.2013 9.48252 12.2013L8.41447 11.1309C7.63562 11.9622 6.9911 12.9206 6.5152 13.9718L7.48705 14.3754C7.65635 14.4457 7.7361 14.6398 7.66632 14.8089M7.66632 14.8089C7.66631 14.8089 7.66629 14.809 7.66628 14.809L7.57385 14.7708L7.66632 14.8089ZM19.4608 26.6331C19.4041 26.6566 19.3556 26.6892 19.32 26.7342C19.2838 26.78 19.2659 26.8325 19.261 26.8869C19.2518 26.9893 19.2884 27.1046 19.3351 27.2195C19.3675 27.2994 19.4096 27.3895 19.4546 27.4859C19.4755 27.5308 19.4971 27.577 19.5186 27.6242C19.5763 27.7507 19.6361 27.8888 19.6898 28.0392M19.4608 26.6331L19.6898 28.0392M19.6898 28.0392C18.642 28.4377 17.5144 28.6707 16.3375 28.7078V27.1887C16.3375 27.0847 16.2973 26.9994 16.2315 26.9412C16.1675 26.8847 16.0852 26.8586 16.0062 26.8586C15.9272 26.8587 15.8449 26.8848 15.781 26.9413C15.7152 26.9995 15.6749 27.0847 15.6749 27.1887V28.7078C14.498 28.6708 13.3704 28.4375 12.3226 28.039C12.3764 27.8882 12.4363 27.7498 12.4941 27.6232C12.5158 27.5758 12.5375 27.5293 12.5585 27.4843C12.6034 27.3881 12.6454 27.2983 12.6777 27.2187C12.7244 27.104 12.761 26.9888 12.7517 26.8866C12.7467 26.8321 12.7288 26.7798 12.6926 26.7341C12.657 26.6891 12.6085 26.6566 12.5519 26.6331L19.6898 28.0392ZM19.4608 9.91164L19.4604 9.91149C19.4038 9.88804 19.3553 9.85553 19.3197 9.81054C19.2834 9.76481 19.2655 9.71244 19.2605 9.65799C19.2512 9.55571 19.2878 9.44052 19.3345 9.32578C19.3669 9.24616 19.4089 9.15629 19.4538 9.06005C19.4748 9.01502 19.4965 8.96859 19.5182 8.92117C19.576 8.79457 19.6359 8.65619 19.6897 8.50537C18.6404 8.10626 17.5111 7.87291 16.3323 7.83636C16.3144 8.23629 16.3268 8.55908 16.3368 8.81895C16.3414 8.93792 16.3455 9.0437 16.3459 9.13765C16.3466 9.28808 16.3383 9.42209 16.2924 9.51942C16.2677 9.5718 16.231 9.61648 16.1783 9.6467C16.1267 9.67624 16.0679 9.68734 16.006 9.68734C15.9442 9.68734 15.8854 9.6763 15.8339 9.64687C15.7811 9.61675 15.7444 9.57218 15.7197 9.51986C15.6739 9.4227 15.6655 9.28888 15.6662 9.13865C15.6666 9.04499 15.6707 8.93952 15.6753 8.82086C15.6853 8.56086 15.6977 8.23751 15.6796 7.83636C14.5009 7.87294 13.3716 8.10629 12.3227 8.50536L19.4608 9.91164ZM19.4608 9.91164C19.5016 9.92835 19.5445 9.93681 19.5871 9.93681C19.6784 9.93681 19.7543 9.90851 19.8169 9.84296C19.8726 9.78457 19.9126 9.70128 19.9516 9.60582C19.9752 9.54786 19.9997 9.48211 20.0278 9.40699C20.0896 9.24124 20.1684 9.0299 20.2923 8.75612M19.4608 9.91164L20.2923 8.75612M20.2923 8.75612C21.3423 9.23315 22.2993 9.88003 23.1295 10.6615L22.0611 11.7325C21.9319 11.862 21.9319 12.072 22.0611 12.2016C22.1259 12.2665 22.2107 12.2989 22.2955 12.2989C22.3803 12.2989 22.4652 12.2665 22.53 12.2015L23.598 11.1309C24.3766 11.9623 25.0211 12.9206 25.497 13.9717L24.5252 14.3754C24.5252 14.3754 24.5252 14.3754 24.5251 14.3754L20.2923 8.75612ZM26.2486 14.0375C26.2475 14.0332 26.246 14.028 26.2436 14.0223C26.2412 14.0164 26.2386 14.0114 26.2361 14.0073C24.2283 9.18372 19.8823 7.06459 15.6561 7.21293C11.431 7.36123 7.31271 9.7767 5.7662 14.0313C2.71797 21.3993 8.23082 29.3802 16.006 29.3802H16.106V29.3795C20.5604 29.3395 24.4939 26.6305 26.2015 22.6191L26.2023 22.6195L26.2372 22.5352C26.2388 22.5323 26.2407 22.5287 26.2424 22.5246C26.2449 22.5191 26.2466 22.5139 26.2478 22.5095C26.7877 21.2029 27.0873 19.7723 27.0873 18.2724C27.0873 16.7733 26.788 15.3433 26.2486 14.0375ZM9.95137 12.2013C10.0806 12.0718 10.0806 11.8618 9.95136 11.7323L9.95135 11.7323L8.88297 10.6615C9.71229 9.88095 10.668 9.23485 11.7166 8.75778L12.119 9.73183L12.1191 9.73196C12.172 9.85966 12.2951 9.93681 12.4252 9.93681C12.4674 9.93681 12.5102 9.9288 12.5518 9.91148C12.5519 9.91144 12.552 9.91141 12.5521 9.91137L9.95137 12.2013Z" fill="#26C4F7" stroke="#26C4F7" stroke-width="0.2"/>
<rect x="15.5" y="11" width="1" height="8" rx="0.5" fill="#26C4F7"/>
</svg>
