<svg width="32" height="32" viewBox="0 0 32 32" fill="none" xmlns="http://www.w3.org/2000/svg">
<path fill-rule="evenodd" clip-rule="evenodd" d="M6 5H5C3.89543 5 3 5.89543 3 7V30C3 31.1046 3.89543 32 5 32H21C22.1046 32 23 31.1046 23 30V29H21.5V30C21.5 30.2761 21.2761 30.5 21 30.5H5C4.72386 30.5 4.5 30.2761 4.5 30V7C4.5 6.72386 4.72386 6.5 5 6.5H6V5Z" fill="#26C4F7"/>
<path d="M6.75 27V4C6.75 3.30964 7.30964 2.75 8 2.75H17.2091C17.5267 2.75 17.8323 2.87088 18.064 3.08808L24.8549 9.45454C25.107 9.69085 25.25 10.021 25.25 10.3665V27C25.25 27.6904 24.6904 28.25 24 28.25H16H8C7.30964 28.25 6.75 27.6904 6.75 27Z" stroke="#26C4F7" stroke-width="1.5"/>
<path d="M15.5 11H21V13.5H15.5V15.5L11 12.5L15.5 9V11Z" fill="#26C4F7"/>
<path d="M16.5 21.5L11 21.5L11 19L16.5 19L16.5 17L21 20L16.5 23.5L16.5 21.5Z" fill="#26C4F7"/>
</svg>
