<svg width="32" height="32" viewBox="0 0 32 32" fill="none" xmlns="http://www.w3.org/2000/svg">
<mask id="path-1-outside-1_2865_40615" maskUnits="userSpaceOnUse" x="2.29303" y="0" width="27" height="32" fill="black">
<rect fill="white" x="2.29303" width="27" height="32"/>
<path d="M22.9327 7.5959L23.5645 6.51034C24.6319 7.17724 24.8836 7.46844 25.0604 7.18929C25.3133 6.78993 25.396 6.31569 25.2931 5.85425C25.1902 5.39258 24.9142 4.99876 24.516 4.74526L24.3505 4.63975C22.977 3.76521 21.5006 5.19679 21.983 5.50346L23.1754 6.26259L22.5433 7.34815C20.6914 6.22853 18.5329 5.57177 16.2262 5.53097L16.1939 3.67824H17.4429C18.1796 3.67824 18.7789 3.07749 18.7789 2.33912C18.7791 1.60101 18.1798 1 17.4432 1H14.4627C13.7261 1 13.1268 1.60075 13.1268 2.33912C13.1268 3.07748 13.7261 3.67824 14.4627 3.67824H15.7336L15.7659 5.53122C13.4667 5.57323 11.3143 6.22785 9.46665 7.34265L8.82637 6.26166C9.69451 5.62907 10.3008 5.5204 10.0884 5.185C9.56638 4.36091 8.47252 4.11582 7.64989 4.63955L7.48465 4.74506C7.08646 4.9986 6.81014 5.39243 6.70734 5.85405C6.60448 6.31548 6.6871 6.78972 6.94003 7.1891C7.00724 7.29485 7.14888 7.32938 7.25776 7.26008L8.43738 6.50918L9.07741 7.58949C5.5988 9.86477 3.29303 13.798 3.29303 18.2628C3.29303 25.286 8.99355 31 16 31C23.0065 31 28.707 25.2859 28.707 18.2628C28.707 13.8018 26.406 9.87186 22.9327 7.5959ZM23.1191 4.85683C23.4597 4.78029 23.8095 4.84186 24.1039 5.02924L24.2693 5.13475C24.8176 5.4839 25.0122 6.16648 24.7783 6.73633L22.4413 5.24849C22.6205 5.05267 22.8546 4.91599 23.1191 4.85683ZM13.5873 2.33918C13.5873 1.8553 13.9802 1.46174 14.4627 1.46174H17.4431C17.9259 1.46174 18.3185 1.85556 18.3185 2.33918C18.3185 2.82306 17.9256 3.21662 17.4431 3.21662L14.4627 3.21686C13.9802 3.21686 13.5873 2.82305 13.5873 2.33918ZM7.2227 6.73639C6.98832 6.16582 7.18392 5.48344 7.73193 5.13481L7.89718 5.02929C8.45531 4.67435 9.1529 4.80305 9.55977 5.24854L7.2227 6.73639ZM16.0003 30.5388C9.24722 30.5388 3.75335 25.0319 3.75335 18.2627C3.75335 11.4942 9.24722 5.98721 16.0003 5.98721C22.7534 5.98721 28.2473 11.4942 28.2473 18.2633C28.2473 25.0319 22.7534 30.5388 16.0003 30.5388Z"/>
<path d="M26.1525 22.4783C26.6894 21.1817 26.9873 19.7615 26.9873 18.2724C26.9873 16.7834 26.6894 15.3632 26.1525 14.0668C26.1515 14.0646 26.152 14.0622 26.151 14.06C26.1503 14.0581 26.1486 14.0569 26.1477 14.0549C22.1713 4.48109 8.91863 5.64575 5.85947 14.0675C2.83706 21.3692 8.30029 29.2802 16.006 29.2802C20.4936 29.2802 24.4629 26.5452 26.147 22.4907C26.148 22.4886 26.1499 22.4869 26.1509 22.4844C26.1519 22.4825 26.1518 22.4803 26.1525 22.4783ZM24.5639 22.0768L25.6306 22.5196C25.1323 23.6498 24.4417 24.6759 23.6001 25.5569C22.6626 24.7169 22.4177 24.1273 22.1323 24.4134C22.042 24.5039 22.042 24.6507 22.1323 24.7412L23.273 25.8847C22.3941 26.7281 21.3708 27.4204 20.2431 27.92C19.8803 27.1991 19.8614 26.5757 19.4991 26.7255C19.1372 26.8754 19.5652 27.335 19.8157 28.0979C18.7018 28.5334 17.4969 28.7831 16.2375 28.8105V27.1887C16.2375 26.8818 15.775 26.8821 15.775 27.1887V28.8105C14.5156 28.7831 13.3107 28.5332 12.1968 28.0976C12.448 27.3329 12.8755 26.8754 12.5136 26.7255C12.1498 26.5746 12.1244 27.2154 11.7696 27.92C10.6422 27.4204 9.61851 26.7281 8.73968 25.8847C9.57761 24.945 10.1658 24.6994 9.88043 24.4133C9.59578 24.128 9.36052 24.7076 8.41263 25.5566C7.57129 24.6756 6.8807 23.6497 6.38232 22.5195C7.09949 22.1567 7.72397 22.1366 7.57414 21.7736C7.42407 21.4111 6.96587 21.8401 6.20511 22.0912C5.77064 20.9746 5.52134 19.7667 5.49395 18.5043H7.11176C7.23956 18.5043 7.34316 18.4007 7.34316 18.2723C7.34316 18.1442 7.23956 18.0404 7.11176 18.0404H5.49395C5.5213 16.7779 5.77061 15.5701 6.20511 14.4532L7.27182 14.8963C7.30062 14.9082 7.33087 14.914 7.36016 14.914C7.45093 14.914 7.5371 14.8601 7.57389 14.7708C7.62278 14.6524 7.56687 14.5168 7.44875 14.4678L6.38205 14.0247C6.88042 12.8945 7.57101 11.8684 8.4126 10.9874L9.55335 12.1307C9.59862 12.1761 9.65768 12.1986 9.71697 12.1986C9.77628 12.1986 9.83534 12.1761 9.8806 12.1307C9.97088 12.0402 9.97088 11.8934 9.8806 11.8029L8.73984 10.6596C9.61874 9.81621 10.6421 9.12393 11.7697 8.62434L12.2115 9.69365C12.2485 9.78294 12.3344 9.83681 12.4252 9.83681C12.4547 9.83681 12.4845 9.83123 12.5136 9.81909C12.8754 9.66914 12.4475 9.20935 12.197 8.44672C13.3104 8.01119 14.5153 7.76128 15.7746 7.73382C15.846 9.00986 15.6037 9.58734 16.006 9.58734C16.4085 9.58734 16.1663 9.0072 16.2374 7.73382C17.4968 7.76124 18.7017 8.01116 19.8156 8.44672C19.5643 9.21148 19.1366 9.66915 19.4987 9.81909C19.5278 9.83098 19.5578 9.83681 19.5871 9.83681C19.8572 9.83681 19.8236 9.52429 20.2428 8.62432C21.3705 9.12367 22.3939 9.81619 23.2727 10.6596L22.1319 11.8031C22.0417 11.8936 22.0417 12.0404 22.1319 12.1309C22.1772 12.1763 22.2363 12.1989 22.2956 12.1989C22.3549 12.1989 22.4139 12.1763 22.4592 12.1309L23.5999 10.9874C24.4413 11.8684 25.1319 12.8945 25.6302 14.0247L24.5635 14.4678C24.4454 14.5168 24.3895 14.6524 24.4384 14.7708C24.4754 14.8601 24.5614 14.914 24.6521 14.914C24.6817 14.914 24.7117 14.9084 24.7405 14.8963L25.8072 14.4532C26.2417 15.5698 26.491 16.7777 26.5183 18.0404H24.9005C24.7727 18.0404 24.6691 18.144 24.6691 18.2723C24.6691 18.4004 24.7727 18.5043 24.9005 18.5043H26.5183C26.491 19.7667 26.2417 20.9746 25.8072 22.0912L24.7405 21.6484C24.6219 21.5994 24.4871 21.6557 24.4382 21.7738C24.3895 21.892 24.4458 22.0278 24.5639 22.0768Z"/>
</mask>
<path d="M22.9327 7.5959L23.5645 6.51034C24.6319 7.17724 24.8836 7.46844 25.0604 7.18929C25.3133 6.78993 25.396 6.31569 25.2931 5.85425C25.1902 5.39258 24.9142 4.99876 24.516 4.74526L24.3505 4.63975C22.977 3.76521 21.5006 5.19679 21.983 5.50346L23.1754 6.26259L22.5433 7.34815C20.6914 6.22853 18.5329 5.57177 16.2262 5.53097L16.1939 3.67824H17.4429C18.1796 3.67824 18.7789 3.07749 18.7789 2.33912C18.7791 1.60101 18.1798 1 17.4432 1H14.4627C13.7261 1 13.1268 1.60075 13.1268 2.33912C13.1268 3.07748 13.7261 3.67824 14.4627 3.67824H15.7336L15.7659 5.53122C13.4667 5.57323 11.3143 6.22785 9.46665 7.34265L8.82637 6.26166C9.69451 5.62907 10.3008 5.5204 10.0884 5.185C9.56638 4.36091 8.47252 4.11582 7.64989 4.63955L7.48465 4.74506C7.08646 4.9986 6.81014 5.39243 6.70734 5.85405C6.60448 6.31548 6.6871 6.78972 6.94003 7.1891C7.00724 7.29485 7.14888 7.32938 7.25776 7.26008L8.43738 6.50918L9.07741 7.58949C5.5988 9.86477 3.29303 13.798 3.29303 18.2628C3.29303 25.286 8.99355 31 16 31C23.0065 31 28.707 25.2859 28.707 18.2628C28.707 13.8018 26.406 9.87186 22.9327 7.5959ZM23.1191 4.85683C23.4597 4.78029 23.8095 4.84186 24.1039 5.02924L24.2693 5.13475C24.8176 5.4839 25.0122 6.16648 24.7783 6.73633L22.4413 5.24849C22.6205 5.05267 22.8546 4.91599 23.1191 4.85683ZM13.5873 2.33918C13.5873 1.8553 13.9802 1.46174 14.4627 1.46174H17.4431C17.9259 1.46174 18.3185 1.85556 18.3185 2.33918C18.3185 2.82306 17.9256 3.21662 17.4431 3.21662L14.4627 3.21686C13.9802 3.21686 13.5873 2.82305 13.5873 2.33918ZM7.2227 6.73639C6.98832 6.16582 7.18392 5.48344 7.73193 5.13481L7.89718 5.02929C8.45531 4.67435 9.1529 4.80305 9.55977 5.24854L7.2227 6.73639ZM16.0003 30.5388C9.24722 30.5388 3.75335 25.0319 3.75335 18.2627C3.75335 11.4942 9.24722 5.98721 16.0003 5.98721C22.7534 5.98721 28.2473 11.4942 28.2473 18.2633C28.2473 25.0319 22.7534 30.5388 16.0003 30.5388Z" fill="#26C4F7"/>
<path d="M26.1525 22.4783C26.6894 21.1817 26.9873 19.7615 26.9873 18.2724C26.9873 16.7834 26.6894 15.3632 26.1525 14.0668C26.1515 14.0646 26.152 14.0622 26.151 14.06C26.1503 14.0581 26.1486 14.0569 26.1477 14.0549C22.1713 4.48109 8.91863 5.64575 5.85947 14.0675C2.83706 21.3692 8.30029 29.2802 16.006 29.2802C20.4936 29.2802 24.4629 26.5452 26.147 22.4907C26.148 22.4886 26.1499 22.4869 26.1509 22.4844C26.1519 22.4825 26.1518 22.4803 26.1525 22.4783ZM24.5639 22.0768L25.6306 22.5196C25.1323 23.6498 24.4417 24.6759 23.6001 25.5569C22.6626 24.7169 22.4177 24.1273 22.1323 24.4134C22.042 24.5039 22.042 24.6507 22.1323 24.7412L23.273 25.8847C22.3941 26.7281 21.3708 27.4204 20.2431 27.92C19.8803 27.1991 19.8614 26.5757 19.4991 26.7255C19.1372 26.8754 19.5652 27.335 19.8157 28.0979C18.7018 28.5334 17.4969 28.7831 16.2375 28.8105V27.1887C16.2375 26.8818 15.775 26.8821 15.775 27.1887V28.8105C14.5156 28.7831 13.3107 28.5332 12.1968 28.0976C12.448 27.3329 12.8755 26.8754 12.5136 26.7255C12.1498 26.5746 12.1244 27.2154 11.7696 27.92C10.6422 27.4204 9.61851 26.7281 8.73968 25.8847C9.57761 24.945 10.1658 24.6994 9.88043 24.4133C9.59578 24.128 9.36052 24.7076 8.41263 25.5566C7.57129 24.6756 6.8807 23.6497 6.38232 22.5195C7.09949 22.1567 7.72397 22.1366 7.57414 21.7736C7.42407 21.4111 6.96587 21.8401 6.20511 22.0912C5.77064 20.9746 5.52134 19.7667 5.49395 18.5043H7.11176C7.23956 18.5043 7.34316 18.4007 7.34316 18.2723C7.34316 18.1442 7.23956 18.0404 7.11176 18.0404H5.49395C5.5213 16.7779 5.77061 15.5701 6.20511 14.4532L7.27182 14.8963C7.30062 14.9082 7.33087 14.914 7.36016 14.914C7.45093 14.914 7.5371 14.8601 7.57389 14.7708C7.62278 14.6524 7.56687 14.5168 7.44875 14.4678L6.38205 14.0247C6.88042 12.8945 7.57101 11.8684 8.4126 10.9874L9.55335 12.1307C9.59862 12.1761 9.65768 12.1986 9.71697 12.1986C9.77628 12.1986 9.83534 12.1761 9.8806 12.1307C9.97088 12.0402 9.97088 11.8934 9.8806 11.8029L8.73984 10.6596C9.61874 9.81621 10.6421 9.12393 11.7697 8.62434L12.2115 9.69365C12.2485 9.78294 12.3344 9.83681 12.4252 9.83681C12.4547 9.83681 12.4845 9.83123 12.5136 9.81909C12.8754 9.66914 12.4475 9.20935 12.197 8.44672C13.3104 8.01119 14.5153 7.76128 15.7746 7.73382C15.846 9.00986 15.6037 9.58734 16.006 9.58734C16.4085 9.58734 16.1663 9.0072 16.2374 7.73382C17.4968 7.76124 18.7017 8.01116 19.8156 8.44672C19.5643 9.21148 19.1366 9.66915 19.4987 9.81909C19.5278 9.83098 19.5578 9.83681 19.5871 9.83681C19.8572 9.83681 19.8236 9.52429 20.2428 8.62432C21.3705 9.12367 22.3939 9.81619 23.2727 10.6596L22.1319 11.8031C22.0417 11.8936 22.0417 12.0404 22.1319 12.1309C22.1772 12.1763 22.2363 12.1989 22.2956 12.1989C22.3549 12.1989 22.4139 12.1763 22.4592 12.1309L23.5999 10.9874C24.4413 11.8684 25.1319 12.8945 25.6302 14.0247L24.5635 14.4678C24.4454 14.5168 24.3895 14.6524 24.4384 14.7708C24.4754 14.8601 24.5614 14.914 24.6521 14.914C24.6817 14.914 24.7117 14.9084 24.7405 14.8963L25.8072 14.4532C26.2417 15.5698 26.491 16.7777 26.5183 18.0404H24.9005C24.7727 18.0404 24.6691 18.144 24.6691 18.2723C24.6691 18.4004 24.7727 18.5043 24.9005 18.5043H26.5183C26.491 19.7667 26.2417 20.9746 25.8072 22.0912L24.7405 21.6484C24.6219 21.5994 24.4871 21.6557 24.4382 21.7738C24.3895 21.892 24.4458 22.0278 24.5639 22.0768Z" fill="#26C4F7"/>
<path d="M22.9327 7.5959L23.5645 6.51034C24.6319 7.17724 24.8836 7.46844 25.0604 7.18929C25.3133 6.78993 25.396 6.31569 25.2931 5.85425C25.1902 5.39258 24.9142 4.99876 24.516 4.74526L24.3505 4.63975C22.977 3.76521 21.5006 5.19679 21.983 5.50346L23.1754 6.26259L22.5433 7.34815C20.6914 6.22853 18.5329 5.57177 16.2262 5.53097L16.1939 3.67824H17.4429C18.1796 3.67824 18.7789 3.07749 18.7789 2.33912C18.7791 1.60101 18.1798 1 17.4432 1H14.4627C13.7261 1 13.1268 1.60075 13.1268 2.33912C13.1268 3.07748 13.7261 3.67824 14.4627 3.67824H15.7336L15.7659 5.53122C13.4667 5.57323 11.3143 6.22785 9.46665 7.34265L8.82637 6.26166C9.69451 5.62907 10.3008 5.5204 10.0884 5.185C9.56638 4.36091 8.47252 4.11582 7.64989 4.63955L7.48465 4.74506C7.08646 4.9986 6.81014 5.39243 6.70734 5.85405C6.60448 6.31548 6.6871 6.78972 6.94003 7.1891C7.00724 7.29485 7.14888 7.32938 7.25776 7.26008L8.43738 6.50918L9.07741 7.58949C5.5988 9.86477 3.29303 13.798 3.29303 18.2628C3.29303 25.286 8.99355 31 16 31C23.0065 31 28.707 25.2859 28.707 18.2628C28.707 13.8018 26.406 9.87186 22.9327 7.5959ZM23.1191 4.85683C23.4597 4.78029 23.8095 4.84186 24.1039 5.02924L24.2693 5.13475C24.8176 5.4839 25.0122 6.16648 24.7783 6.73633L22.4413 5.24849C22.6205 5.05267 22.8546 4.91599 23.1191 4.85683ZM13.5873 2.33918C13.5873 1.8553 13.9802 1.46174 14.4627 1.46174H17.4431C17.9259 1.46174 18.3185 1.85556 18.3185 2.33918C18.3185 2.82306 17.9256 3.21662 17.4431 3.21662L14.4627 3.21686C13.9802 3.21686 13.5873 2.82305 13.5873 2.33918ZM7.2227 6.73639C6.98832 6.16582 7.18392 5.48344 7.73193 5.13481L7.89718 5.02929C8.45531 4.67435 9.1529 4.80305 9.55977 5.24854L7.2227 6.73639ZM16.0003 30.5388C9.24722 30.5388 3.75335 25.0319 3.75335 18.2627C3.75335 11.4942 9.24722 5.98721 16.0003 5.98721C22.7534 5.98721 28.2473 11.4942 28.2473 18.2633C28.2473 25.0319 22.7534 30.5388 16.0003 30.5388Z" stroke="#26C4F7" stroke-width="0.6" mask="url(#path-1-outside-1_2865_40615)"/>
<path d="M26.1525 22.4783C26.6894 21.1817 26.9873 19.7615 26.9873 18.2724C26.9873 16.7834 26.6894 15.3632 26.1525 14.0668C26.1515 14.0646 26.152 14.0622 26.151 14.06C26.1503 14.0581 26.1486 14.0569 26.1477 14.0549C22.1713 4.48109 8.91863 5.64575 5.85947 14.0675C2.83706 21.3692 8.30029 29.2802 16.006 29.2802C20.4936 29.2802 24.4629 26.5452 26.147 22.4907C26.148 22.4886 26.1499 22.4869 26.1509 22.4844C26.1519 22.4825 26.1518 22.4803 26.1525 22.4783ZM24.5639 22.0768L25.6306 22.5196C25.1323 23.6498 24.4417 24.6759 23.6001 25.5569C22.6626 24.7169 22.4177 24.1273 22.1323 24.4134C22.042 24.5039 22.042 24.6507 22.1323 24.7412L23.273 25.8847C22.3941 26.7281 21.3708 27.4204 20.2431 27.92C19.8803 27.1991 19.8614 26.5757 19.4991 26.7255C19.1372 26.8754 19.5652 27.335 19.8157 28.0979C18.7018 28.5334 17.4969 28.7831 16.2375 28.8105V27.1887C16.2375 26.8818 15.775 26.8821 15.775 27.1887V28.8105C14.5156 28.7831 13.3107 28.5332 12.1968 28.0976C12.448 27.3329 12.8755 26.8754 12.5136 26.7255C12.1498 26.5746 12.1244 27.2154 11.7696 27.92C10.6422 27.4204 9.61851 26.7281 8.73968 25.8847C9.57761 24.945 10.1658 24.6994 9.88043 24.4133C9.59578 24.128 9.36052 24.7076 8.41263 25.5566C7.57129 24.6756 6.8807 23.6497 6.38232 22.5195C7.09949 22.1567 7.72397 22.1366 7.57414 21.7736C7.42407 21.4111 6.96587 21.8401 6.20511 22.0912C5.77064 20.9746 5.52134 19.7667 5.49395 18.5043H7.11176C7.23956 18.5043 7.34316 18.4007 7.34316 18.2723C7.34316 18.1442 7.23956 18.0404 7.11176 18.0404H5.49395C5.5213 16.7779 5.77061 15.5701 6.20511 14.4532L7.27182 14.8963C7.30062 14.9082 7.33087 14.914 7.36016 14.914C7.45093 14.914 7.5371 14.8601 7.57389 14.7708C7.62278 14.6524 7.56687 14.5168 7.44875 14.4678L6.38205 14.0247C6.88042 12.8945 7.57101 11.8684 8.4126 10.9874L9.55335 12.1307C9.59862 12.1761 9.65768 12.1986 9.71697 12.1986C9.77628 12.1986 9.83534 12.1761 9.8806 12.1307C9.97088 12.0402 9.97088 11.8934 9.8806 11.8029L8.73984 10.6596C9.61874 9.81621 10.6421 9.12393 11.7697 8.62434L12.2115 9.69365C12.2485 9.78294 12.3344 9.83681 12.4252 9.83681C12.4547 9.83681 12.4845 9.83123 12.5136 9.81909C12.8754 9.66914 12.4475 9.20935 12.197 8.44672C13.3104 8.01119 14.5153 7.76128 15.7746 7.73382C15.846 9.00986 15.6037 9.58734 16.006 9.58734C16.4085 9.58734 16.1663 9.0072 16.2374 7.73382C17.4968 7.76124 18.7017 8.01116 19.8156 8.44672C19.5643 9.21148 19.1366 9.66915 19.4987 9.81909C19.5278 9.83098 19.5578 9.83681 19.5871 9.83681C19.8572 9.83681 19.8236 9.52429 20.2428 8.62432C21.3705 9.12367 22.3939 9.81619 23.2727 10.6596L22.1319 11.8031C22.0417 11.8936 22.0417 12.0404 22.1319 12.1309C22.1772 12.1763 22.2363 12.1989 22.2956 12.1989C22.3549 12.1989 22.4139 12.1763 22.4592 12.1309L23.5999 10.9874C24.4413 11.8684 25.1319 12.8945 25.6302 14.0247L24.5635 14.4678C24.4454 14.5168 24.3895 14.6524 24.4384 14.7708C24.4754 14.8601 24.5614 14.914 24.6521 14.914C24.6817 14.914 24.7117 14.9084 24.7405 14.8963L25.8072 14.4532C26.2417 15.5698 26.491 16.7777 26.5183 18.0404H24.9005C24.7727 18.0404 24.6691 18.144 24.6691 18.2723C24.6691 18.4004 24.7727 18.5043 24.9005 18.5043H26.5183C26.491 19.7667 26.2417 20.9746 25.8072 22.0912L24.7405 21.6484C24.6219 21.5994 24.4871 21.6557 24.4382 21.7738C24.3895 21.892 24.4458 22.0278 24.5639 22.0768Z" stroke="#26C4F7" stroke-width="0.6" mask="url(#path-1-outside-1_2865_40615)"/>
<rect x="15.5" y="11" width="1" height="8" rx="0.5" fill="#26C4F7"/>
</svg>
