<svg width="32" height="32" viewBox="0 0 32 32" fill="none" xmlns="http://www.w3.org/2000/svg">
<path d="M23.0665 7.56464C26.5222 9.86591 28.807 13.8008 28.807 18.2628C28.807 25.3409 23.0619 31.1 16 31.1C8.93803 31.1 3.19297 25.341 3.19297 18.2628C3.19297 13.797 5.48179 9.85911 8.94274 7.55847L8.40391 6.64898L7.3114 7.34444L7.31139 7.34444C7.15481 7.4441 6.95172 7.39403 6.85557 7.24273L6.85549 7.2426C6.5884 6.82086 6.50106 6.31956 6.60967 5.83232C6.60967 5.83231 6.60967 5.8323 6.60967 5.8323L6.70728 5.85405C6.81008 5.39243 7.0864 4.9986 7.48458 4.74506L23.0665 7.56464ZM23.0665 7.56464L23.5988 6.65004M23.0665 7.56464L23.5988 6.65004M23.5988 6.65004C23.814 6.78594 23.9938 6.90493 24.1459 7.00553L24.1684 7.02043C24.3437 7.13638 24.4844 7.22908 24.5978 7.29202C24.7077 7.35302 24.81 7.39696 24.9045 7.39473C25.014 7.39215 25.0895 7.33012 25.1448 7.2428C25.4119 6.82106 25.4993 6.31976 25.3906 5.8325C25.282 5.34502 24.9902 4.92865 24.5696 4.6609L24.4042 4.55543L24.4041 4.55539C23.6775 4.09274 22.9234 4.24188 22.4194 4.54279C22.1685 4.69262 21.9718 4.88441 21.869 5.06714C21.8179 5.1581 21.7856 5.25475 21.79 5.3471C21.7945 5.4448 21.8402 5.53119 21.9293 5.58782L23.5988 6.65004ZM24.7259 6.58446L22.6006 5.23138C22.7522 5.09573 22.9366 5.00013 23.1409 4.95444M24.7259 6.58446L24.05 5.11356C23.7803 4.94193 23.461 4.8847 23.1491 4.95261C23.1464 4.9532 23.1437 4.9538 23.141 4.9544L23.1409 4.95444M24.7259 6.58446C24.8745 6.08372 24.6857 5.51851 24.2156 5.2191L24.2155 5.21907L24.0501 5.1136L24.7259 6.58446ZM23.1409 4.95444L23.125 4.88322L23.1409 4.95444ZM7.59601 4.55527L7.43087 4.66071L18.8788 2.33912C18.8791 1.546 18.2352 0.9 17.4431 0.9H14.4627C13.6706 0.9 13.0267 1.54575 13.0267 2.33912C13.0267 3.13248 13.6706 3.77824 14.4627 3.77824H15.6353L15.6641 5.43344C13.4201 5.49172 11.3174 6.1291 9.50145 7.20529L8.95901 6.28948C9.22511 6.10123 9.45952 5.96529 9.6547 5.8521C9.75186 5.79575 9.83931 5.74504 9.9161 5.69632C10.0321 5.62275 10.1344 5.54709 10.1885 5.45739C10.2175 5.40923 10.2339 5.35527 10.2305 5.29596C10.2272 5.23794 10.2055 5.1832 10.1728 5.13149C9.62125 4.26075 8.46551 4.0017 7.59613 4.55519L7.59601 4.55527ZM21.9293 5.58786L23.0406 6.29533L22.5078 7.21033C20.6868 6.12908 18.5768 5.48963 16.3245 5.43305L16.2956 3.77824H17.4429C18.2349 3.77824 18.8788 3.13252 18.8788 2.33915L21.9293 5.58786ZM7.27496 6.58454C7.12602 6.08328 7.31554 5.51818 7.78555 5.21918L7.78569 5.21909L7.95078 5.11368C8.42865 4.80978 9.01765 4.88971 9.40037 5.23144L7.27496 6.58454ZM13.6872 2.33918C13.6872 1.91033 14.0356 1.56174 14.4626 1.56174H17.4431C17.8703 1.56174 18.2184 1.91055 18.2184 2.33918C18.2184 2.76804 17.8701 3.11662 17.4431 3.11662L14.4626 3.11686C14.0356 3.11686 13.6872 2.76806 13.6872 2.33918ZM16.0003 30.4388C9.30261 30.4388 3.85328 24.9769 3.85328 18.2627C3.85328 11.5492 9.30261 6.08721 16.0003 6.08721C22.6979 6.08721 28.1472 11.5492 28.1472 18.2633C28.1472 24.9769 22.6979 30.4388 16.0003 30.4388Z" fill="#26C4F7" stroke="#26C4F7" stroke-width="0.2"/>
<path d="M24.5102 22.1627L24.5089 22.1616C24.3511 22.086 24.2783 21.8992 24.3456 21.7357L24.3457 21.7356C24.4157 21.5665 24.6089 21.4858 24.7786 21.556L24.7788 21.556L25.7505 21.9594C26.1468 20.9106 26.3787 19.782 26.4156 18.6043H24.9005C24.7172 18.6043 24.5691 18.4554 24.5691 18.2723C24.5691 18.0889 24.7173 17.9404 24.9005 17.9404H26.4156C26.3787 16.7624 26.1468 15.6339 25.7505 14.585L24.7792 14.9884C24.7791 14.9885 24.779 14.9885 24.7789 14.9885L24.7788 14.9886L24.7404 14.8963L24.5102 22.1627ZM24.5102 22.1627L24.5255 22.1691M24.5102 22.1627L24.5255 22.1691M24.5255 22.1691L25.4974 22.5726C25.0208 23.6252 24.3751 24.5849 23.5947 25.4171C23.3046 25.1512 23.088 24.9163 22.9127 24.7263C22.8316 24.6383 22.7593 24.56 22.6927 24.4926C22.5868 24.3854 22.4858 24.296 22.3842 24.2592C22.3296 24.2394 22.2718 24.2335 22.2129 24.2493C22.1552 24.2648 22.1054 24.2987 22.0614 24.3427C21.9322 24.4723 21.9322 24.6822 22.0614 24.8118L23.1298 25.8828C22.299 26.6647 21.3414 27.3118 20.2905 27.7891C20.2221 27.6441 20.1668 27.5037 20.1185 27.3734C20.1003 27.3244 20.0828 27.276 20.0659 27.2292C20.0298 27.1295 19.9962 27.0365 19.9631 26.9576C19.9152 26.8436 19.8599 26.7364 19.7811 26.6707C19.7392 26.6358 19.6895 26.6116 19.6315 26.6049C19.5746 26.5984 19.5174 26.6097 19.4608 26.6331L19.4607 26.6331M24.5255 22.1691L19.4607 26.6331M19.4607 26.6331C19.4041 26.6566 19.3556 26.6892 19.32 26.7342C19.2838 26.78 19.2659 26.8325 19.261 26.8869C19.2518 26.9893 19.2883 27.1046 19.335 27.2195C19.3675 27.2994 19.4095 27.3895 19.4546 27.4859C19.4755 27.5308 19.4971 27.577 19.5186 27.6242C19.5763 27.7507 19.6361 27.8888 19.6898 28.0392C18.642 28.4377 17.5144 28.6707 16.3375 28.7078V27.1887C16.3375 27.0847 16.2972 26.9994 16.2314 26.9412C16.1675 26.8847 16.0851 26.8586 16.0062 26.8586C15.9272 26.8587 15.8448 26.8848 15.7809 26.9413C15.7151 26.9995 15.6749 27.0847 15.6749 27.1887V28.7078C14.498 28.6708 13.3704 28.4375 12.3226 28.039C12.3764 27.8882 12.4363 27.7498 12.4941 27.6232C12.5158 27.5758 12.5374 27.5293 12.5585 27.4843C12.6034 27.3881 12.6453 27.2983 12.6777 27.2187C12.7244 27.104 12.7609 26.9888 12.7517 26.8866C12.7467 26.8321 12.7288 26.7798 12.6926 26.7341C12.6569 26.6891 12.6085 26.6566 12.5519 26.6331L19.4607 26.6331ZM5.59657 18.6043C5.63354 19.7842 5.86623 20.9147 6.2638 21.9652C6.41356 21.9114 6.55113 21.8516 6.6771 21.7938C6.72417 21.7722 6.77027 21.7506 6.81501 21.7296C6.9112 21.6844 7.00108 21.6423 7.08075 21.6097C7.19533 21.5629 7.31047 21.5262 7.4128 21.5354C7.46727 21.5403 7.51968 21.5582 7.56545 21.5945C7.61047 21.6301 7.64301 21.6787 7.66647 21.7353L7.66651 21.7354C7.6899 21.7921 7.70119 21.8494 7.69464 21.9064C7.68798 21.9644 7.66377 22.0141 7.62884 22.0562C7.56321 22.1352 7.45606 22.1907 7.34215 22.2388C7.26311 22.2721 7.17005 22.3059 7.07041 22.3421C7.02381 22.359 6.97577 22.3765 6.92705 22.3946C6.79704 22.4431 6.65723 22.4984 6.51292 22.5668C6.98977 23.6218 7.63639 24.5831 8.41797 25.4168C8.71262 25.147 8.93108 24.9103 9.10683 24.7199C9.18708 24.633 9.25843 24.5557 9.32406 24.4893C9.4293 24.3828 9.52951 24.2941 9.63058 24.258C9.68503 24.2386 9.74249 24.2331 9.80104 24.2493C9.8582 24.2651 9.90752 24.2989 9.95117 24.3427C9.99514 24.3868 10.0289 24.4366 10.0443 24.4943C10.06 24.5533 10.0541 24.611 10.0344 24.6657C9.99775 24.7674 9.90866 24.8686 9.80171 24.9748C9.73447 25.0416 9.6563 25.1141 9.56856 25.1954C9.37887 25.3711 9.14445 25.5884 8.8791 25.8793C9.71068 26.6628 10.6698 27.311 11.722 27.7891C11.7886 27.6476 11.8427 27.5095 11.8905 27.3802C11.9082 27.3325 11.9251 27.2854 11.9417 27.2395C11.978 27.1386 12.0122 27.0439 12.046 26.9632C12.0943 26.8481 12.1502 26.7397 12.2293 26.673C12.2713 26.6375 12.3212 26.6125 12.3795 26.6053L5.59657 18.6043ZM5.59657 18.6043H7.1117C7.29489 18.6043 7.4431 18.4558 7.4431 18.2723C7.4431 18.0892 7.29496 17.9404 7.1117 17.9404H5.59657C5.63344 16.7626 5.86535 15.6341 6.26162 14.585L7.2334 14.9886L7.2336 14.9887C7.27448 15.0056 7.3177 15.014 7.3601 15.014C7.48997 15.014 7.61354 14.937 7.66629 14.8089M5.59657 18.6043L12.4251 9.93681C12.2951 9.93681 12.172 9.85966 12.1191 9.73196L12.119 9.73183L11.7166 8.75778C10.668 9.23485 9.71226 9.88095 8.88294 10.6615L9.95133 11.7323L9.95133 11.7323C10.0806 11.8618 10.0806 12.0718 9.95133 12.2013C9.88658 12.2662 9.80172 12.2986 9.71691 12.2986C9.63211 12.2986 9.54726 12.2662 9.4825 12.2013C9.4825 12.2013 9.4825 12.2013 9.4825 12.2013L8.41445 11.1309C7.6356 11.9622 6.99108 12.9206 6.51518 13.9718L7.48702 14.3754C7.65632 14.4457 7.73607 14.6398 7.66629 14.8089M7.66629 14.8089C7.66628 14.8089 7.66627 14.809 7.66626 14.809L7.57383 14.7708L7.66629 14.8089ZM15.6796 7.83636C14.5009 7.87294 13.3716 8.10629 12.3227 8.50536L15.6796 7.83636ZM15.6796 7.83636C15.6977 8.23751 15.6853 8.56086 15.6752 8.82086C15.6707 8.93952 15.6666 9.04499 15.6662 9.13865C15.6655 9.28888 15.6738 9.4227 15.7197 9.51986C15.7444 9.57218 15.7811 9.61675 15.8339 9.64687C15.8854 9.6763 15.9442 9.68734 16.006 9.68734C16.0678 9.68734 16.1267 9.67624 16.1783 9.6467C16.231 9.61648 16.2677 9.5718 16.2924 9.51942C16.3382 9.42209 16.3466 9.28808 16.3459 9.13765C16.3455 9.0437 16.3414 8.93792 16.3368 8.81895C16.3268 8.55908 16.3143 8.23629 16.3323 7.83636C17.511 7.87291 18.6404 8.10626 19.6897 8.50537C19.6359 8.65618 19.5759 8.79457 19.5181 8.92117C19.4965 8.96859 19.4748 9.01501 19.4538 9.06005C19.4088 9.15629 19.3669 9.24616 19.3345 9.32578C19.2878 9.44052 19.2512 9.55571 19.2605 9.65799C19.2654 9.71244 19.2834 9.76481 19.3196 9.81054C19.3553 9.85553 19.4038 9.88804 19.4604 9.91149L19.4608 9.91164C19.5016 9.92835 19.5445 9.93681 19.587 9.93681C19.6783 9.93681 19.7543 9.90851 19.8168 9.84296C19.8725 9.78457 19.9126 9.70128 19.9516 9.60582C19.9752 9.54786 19.9997 9.48211 20.0277 9.40699C20.0895 9.24124 20.1683 9.0299 20.2922 8.75612C21.3423 9.23315 22.2993 9.88003 23.1295 10.6615L22.0611 11.7325C21.9319 11.862 21.9319 12.072 22.0611 12.2016C22.1258 12.2665 22.2107 12.2989 22.2955 12.2989C22.3803 12.2989 22.4652 12.2665 22.5299 12.2015L23.598 11.1309C24.3766 11.9623 25.0211 12.9206 25.497 13.9717L24.5252 14.3754C24.5251 14.3754 24.5251 14.3754 24.5251 14.3754L15.6796 7.83636ZM26.2485 14.0375C26.2475 14.0331 26.2459 14.028 26.2436 14.0223C26.2412 14.0164 26.2385 14.0114 26.2361 14.0073C24.2283 9.18372 19.8823 7.06459 15.6561 7.21293C11.431 7.36123 7.31268 9.7767 5.76617 14.0313C2.71795 21.3993 8.2308 29.3802 16.006 29.3802H16.106V29.3795C20.5604 29.3395 24.4939 26.6305 26.2015 22.619L26.2023 22.6194L26.2371 22.5352C26.2388 22.5323 26.2406 22.5287 26.2424 22.5246C26.2449 22.5191 26.2466 22.5139 26.2478 22.5095C26.7877 21.2029 27.0873 19.7723 27.0873 18.2724C27.0873 16.7733 26.788 15.3433 26.2485 14.0375ZM26.2511 14.0522C26.2512 14.0532 26.2512 14.0535 26.2512 14.053L26.2511 14.0522ZM12.4251 9.83681C12.4547 9.83681 12.4844 9.83123 12.5135 9.8191L11.8079 8.71679L12.2114 9.69365C12.2485 9.78294 12.3344 9.83681 12.4251 9.83681Z" fill="#26C4F7" stroke="#26C4F7" stroke-width="0.2"/>
<rect x="15.5" y="11" width="1" height="8" rx="0.5" fill="#26C4F7"/>
</svg>
