<svg width="85" height="84" viewBox="0 0 85 84" fill="none" xmlns="http://www.w3.org/2000/svg">
<path d="M69.0906 69.8624C67.2932 69.8473 65.8433 71.2731 65.8298 72.8908C65.8147 74.6882 67.2405 76.1381 69.0378 76.1532C70.8351 76.1682 72.2851 74.7424 72.3001 72.9451C72.3137 71.3274 70.8879 69.8775 69.0906 69.8624Z" fill="white"/>
<path d="M53.4535 69.7313C51.8358 69.7177 50.3859 71.1435 50.3723 72.7613C50.3573 74.5586 51.7831 76.0085 53.4008 76.0221C55.1981 76.0371 56.648 74.6113 56.6631 72.814C56.6767 71.1963 55.2509 69.7464 53.4535 69.7313Z" fill="white"/>
<path d="M83.2 45.2394C84.922 45.2539 84.9467 42.3136 83.2247 42.2992L77.1201 42.248L74.8765 48.4562L47.4826 48.2265L51.1175 62.7864L69.7452 62.9425L69.1045 64.6668L51.729 64.5211C50.007 64.5067 49.9824 67.447 51.7043 67.4614L70.8016 67.6215L78.817 45.2032L83.2001 45.24L83.2 45.2394Z" fill="white"/>
<path fill-rule="evenodd" clip-rule="evenodd" d="M40.6875 5.25C21.1478 5.25 5.25 21.1471 5.25 40.6875C5.25 60.2266 21.1465 76.125 40.6875 76.125C43.3418 76.125 46.3543 75.901 48.9834 75.3678C48.2376 74.7735 47.7384 73.8287 47.7473 72.7613C47.7582 71.4698 48.6844 70.3006 49.8807 69.8885C48.8432 70.0973 46.7485 70.5154 45.8687 70.6667C44.6764 70.8718 43.4642 71.0157 42.2282 71.0779V55.9027H47.8593L46.5468 52.7041L42.2279 52.8209V42.2282H58.2876C58.2652 43.0559 58.296 43.5928 58.3265 44.1254C58.3589 44.689 58.3909 45.2479 58.3593 46.1416H61.3682C61.4784 45.1785 61.4444 44.5842 61.4061 43.9159C61.379 43.4429 61.3498 42.9327 61.3682 42.2282H71.0765C71.0225 43.3063 70.8216 43.9316 70.5901 44.6518C70.4533 45.0775 70.3059 45.5364 70.1718 46.1416H75.4218C75.4895 45.7816 75.5544 45.4514 75.6156 45.1404C75.9157 43.6139 76.125 42.5497 76.125 40.6875C76.125 21.1471 60.2272 5.25 40.6875 5.25ZM28.469 63.2003C27.1945 61.0129 26.1335 58.5544 25.297 55.9021H39.1466V71.0772C37.9111 71.015 36.6982 70.8722 35.507 70.6661C32.9074 69.2191 30.4999 66.6913 28.469 63.2003ZM10.2962 42.2282H20.0045C20.0999 45.8973 20.539 49.4612 21.2875 52.822H12.7883C11.3588 49.547 10.485 45.9769 10.2962 42.2282ZM35.5058 10.708C36.6975 10.5019 37.9103 10.358 39.1454 10.2958V24.5088H25.6129C26.3956 22.2233 27.3507 20.0949 28.4681 18.1742C30.499 14.6832 32.9074 12.1538 35.5058 10.708ZM52.9054 18.1744C54.0223 20.0951 54.9769 22.2242 55.7606 24.5091H42.2282V10.296C43.4642 10.3582 44.6754 10.5021 45.8687 10.7082C48.4672 12.1541 50.8736 14.6834 52.9054 18.1744ZM56.6852 27.5905C57.6276 31.1927 58.1763 35.097 58.287 39.1468H42.2272V27.5905H56.6852ZM39.1466 27.5905V39.1468H23.0868C23.198 35.097 23.7462 31.1934 24.6881 27.5905H39.1466ZM20.0049 39.1468H10.2961C10.5027 35.0275 11.5337 31.1227 13.224 27.5905H21.5086C20.621 31.2281 20.1088 35.126 20.0049 39.1468ZM23.0863 42.2282H39.146V52.822H24.4437C23.6504 49.4897 23.188 45.9185 23.0863 42.2282ZM61.3682 39.1468C61.2633 35.126 60.7525 31.2281 59.8649 27.5905H68.1495C69.8398 31.1221 70.8703 35.0279 71.0763 39.1468H61.3682ZM66.4414 24.5087H59.0026C58.0977 21.6496 56.948 18.9947 55.5687 16.6242C54.7597 15.2337 53.8895 13.9819 52.9702 12.8554C58.534 15.3217 63.223 19.4053 66.4414 24.5087ZM28.4037 12.8561C27.4861 13.9814 26.6142 15.2344 25.8052 16.6249C24.4258 18.9952 23.2757 21.6503 22.3713 24.5093H14.9325C18.1504 19.4049 22.8399 15.3207 28.4037 12.8561ZM14.3518 55.9014H22.0814C23.0265 59.1267 24.2725 62.1154 25.8053 64.7498C26.6144 66.1404 27.4846 67.3922 28.4039 68.5176C22.4931 65.8984 17.5712 61.4544 14.3518 55.9014Z" fill="white"/>
</svg>
