<svg width="43" height="40" viewBox="0 0 43 40" fill="none" xmlns="http://www.w3.org/2000/svg">
<g clip-path="url(#clip0_1646_4021)">
<path d="M22.1219 38.7131C21.5175 38.3924 20.9131 38.0758 20.3086 37.7551C18.8531 36.9862 17.3935 36.2173 15.9379 35.4484C14.1821 34.5192 12.4264 33.594 10.6666 32.6648C9.14533 31.8589 7.61988 31.0571 6.0985 30.2512C5.36249 29.8647 4.6347 29.4494 3.89051 29.0835C3.87817 29.0794 3.86995 29.0711 3.86173 29.067C4.06732 29.4206 4.26879 29.7784 4.47437 30.132V28.2077V23.6107V18.0311V13.2287C4.47437 12.4515 4.49493 11.6703 4.47437 10.8932V10.8603C3.85761 11.214 3.23674 11.5717 2.61998 11.9253C3.22441 12.246 3.82883 12.5626 4.43325 12.8833C5.88877 13.6522 7.34843 14.4211 8.80403 15.194C10.5598 16.1233 12.3154 17.0526 14.0752 17.9776C15.5966 18.7836 17.122 19.5895 18.6434 20.3913C19.3794 20.7819 20.1072 21.193 20.8514 21.559C20.8637 21.5631 20.8719 21.5713 20.8802 21.5754C20.6746 21.2218 20.4731 20.8641 20.2675 20.5105V22.4306V27.0234V32.5989V37.3973C20.2675 38.1744 20.2511 38.9556 20.2675 39.7327V39.7656C20.2675 40.4111 20.8349 41.0279 21.501 40.9991C22.1712 40.9703 22.7345 40.4563 22.7345 39.7656V37.8454V33.2526V27.6771V22.8788C22.7345 22.1017 22.751 21.3204 22.7345 20.5434V20.5105C22.7345 20.0911 22.5043 19.647 22.1219 19.4456C21.5174 19.1248 20.913 18.8082 20.3086 18.4875C18.8531 17.7186 17.3934 16.9498 15.9378 16.1768C14.1821 15.2476 12.4264 14.3183 10.6666 13.3932C9.1453 12.5873 7.61985 11.7814 6.09846 10.9796C5.36246 10.589 4.63061 10.1901 3.89048 9.81187C3.87814 9.80775 3.86992 9.79953 3.8617 9.79542C3.04345 9.36369 2.00731 9.8941 2.00731 10.8603V12.7846V17.3816V22.9612V27.7637C2.00731 28.5408 1.99086 29.322 2.00731 30.0991V30.132C2.00731 30.5514 2.23757 30.9954 2.61996 31.1969C3.22438 31.5176 3.82879 31.8342 4.43321 32.1549C5.88874 32.9238 7.3484 33.6927 8.804 34.4616C10.5597 35.3908 12.3154 36.316 14.0752 37.2452C15.5965 38.0511 17.122 38.8529 18.6434 39.6588C19.3794 40.0494 20.1112 40.4441 20.8514 40.8265C20.8637 40.8306 20.8719 40.8389 20.8801 40.843C21.4517 41.1431 22.2493 41.0074 22.566 40.3989C22.8661 39.8315 22.7345 39.0338 22.1219 38.7131L22.1219 38.7131Z" fill="#26C4F7"/>
<path d="M39.1403 29.0704C38.5359 29.3911 37.9315 29.7077 37.3271 30.0284C35.8715 30.7974 34.4119 31.5662 32.9563 32.3351C31.2005 33.2644 29.4449 34.1895 27.6851 35.1187C26.1638 35.9247 24.6383 36.7264 23.1169 37.5323C22.3809 37.9188 21.6326 38.293 20.9089 38.7001C20.9007 38.7042 20.8884 38.7124 20.8801 38.7165C21.4969 39.0701 22.1178 39.4278 22.7345 39.7814V37.8613V33.2685V27.693V22.8947C22.7345 22.1175 22.7551 21.3363 22.7345 20.5592V20.5264C22.5289 20.88 22.3275 21.2377 22.1219 21.5913C22.7263 21.2706 23.3307 20.954 23.9351 20.6333C25.3907 19.8643 26.8503 19.0955 28.3059 18.3225C30.0617 17.3933 31.8173 16.464 33.5772 15.5389C35.0985 14.733 36.6239 13.9271 38.1453 13.1253C38.8813 12.7347 39.6296 12.3646 40.3533 11.9576C40.3615 11.9535 40.3738 11.9453 40.3821 11.9411C39.7653 11.5875 39.1444 11.2298 38.5277 10.8762V12.8005V17.3974V22.977V27.7795C38.5277 28.5566 38.5112 29.3379 38.5277 30.1149V30.1478C38.5277 30.7934 39.0951 31.4101 39.7612 31.3813C40.4314 31.3526 40.9947 30.8386 40.9947 30.1478V28.2235V23.6266V18.047V13.2445C40.9947 12.4674 41.0111 11.6862 40.9947 10.9091V10.8762C40.9947 9.90993 39.9544 9.37957 39.1403 9.81129C38.5359 10.132 37.9315 10.4486 37.327 10.7693C35.8715 11.5382 34.4118 12.3071 32.9562 13.0801C31.2005 14.0093 29.4448 14.9386 27.685 15.8637C26.1637 16.6696 24.6383 17.4755 23.1169 18.2773C22.3809 18.6679 21.6326 19.0379 20.9089 19.445C20.9007 19.4491 20.8883 19.4573 20.8801 19.4614C20.5018 19.6629 20.2675 20.107 20.2675 20.5264V22.4465V27.0393V32.6148V37.4131C20.2675 38.1902 20.251 38.9715 20.2675 39.7485V39.7814C20.2675 40.7477 21.3077 41.2781 22.1219 40.8464C22.7263 40.5256 23.3307 40.209 23.9351 39.8883C25.3906 39.1194 26.8503 38.3506 28.3059 37.5816C30.0616 36.6524 31.8173 35.7273 33.5771 34.798C35.0984 33.9921 36.6239 33.1904 38.1453 32.3844C38.8813 31.9979 39.6296 31.6238 40.3533 31.2167C40.3615 31.2126 40.3738 31.2044 40.382 31.2003C40.9536 30.9001 41.1756 30.0572 40.8261 29.5145C40.4519 28.9306 39.753 28.7456 39.1403 29.0704L39.1403 29.0704Z" fill="#26C4F7"/>
<path d="M39.14 9.79869C38.5356 10.1194 37.9312 10.436 37.3268 10.7567C35.8712 11.5256 34.4116 12.2945 32.956 13.0675C31.2002 13.9967 29.4446 14.926 27.6848 15.8511C26.1634 16.657 24.638 17.4629 23.1166 18.2647C22.3806 18.6553 21.6323 19.0253 20.9086 19.4324C20.9004 19.4365 20.8881 19.4447 20.8798 19.4488H22.1257C21.5212 19.1281 20.9168 18.8115 20.3124 18.4908C18.8569 17.7219 17.3972 16.953 15.9416 16.1801C14.1859 15.2508 12.4302 14.3215 10.6704 13.3965C9.14911 12.5905 7.62366 11.7846 6.10228 10.9828C5.36627 10.5922 4.63848 10.1852 3.89429 9.81513C3.88195 9.81102 3.87373 9.8028 3.86551 9.79869V11.9285C4.46993 11.6078 5.07435 11.2912 5.67877 10.9705C7.13429 10.2016 8.59395 9.43276 10.0496 8.66384C11.8053 7.73462 13.561 6.80946 15.3208 5.88024C16.8421 5.07432 18.3675 4.27254 19.8889 3.46663C20.6249 3.07601 21.3732 2.70597 22.0969 2.29892C22.1051 2.29481 22.1175 2.28658 22.1257 2.28247H20.8798C21.4843 2.60318 22.0887 2.91979 22.6931 3.24049C24.1486 4.00941 25.6083 4.77826 27.0639 5.54718C28.8196 6.4764 30.5753 7.40156 32.3351 8.33078C33.8564 9.1367 35.3819 9.93848 36.9032 10.7444C37.6392 11.135 38.3711 11.5338 39.1112 11.9121C39.1236 11.9162 39.1318 11.9244 39.14 11.9285C39.7115 12.2287 40.5092 12.093 40.8258 11.4845C41.126 10.913 40.9944 10.1194 40.3818 9.79867C39.7691 9.47385 39.1606 9.15314 38.5479 8.82833C37.0883 8.05534 35.6286 7.28642 34.1648 6.51344C32.4009 5.58422 30.6411 4.65086 28.8771 3.72157C27.3599 2.91979 25.8427 2.11801 24.3213 1.31623C23.5935 0.933841 22.8781 0.530913 22.1421 0.164984C21.7063 -0.0529337 21.2787 -0.0570463 20.8469 0.164984C20.7646 0.206102 20.6865 0.251328 20.6084 0.292447C20.2301 0.493922 19.8519 0.691284 19.4777 0.892759C18.1043 1.61642 16.7351 2.34422 15.3619 3.06788C13.6021 3.9971 11.8422 4.92639 10.0824 5.85561C8.49933 6.69033 6.91637 7.5291 5.33333 8.36373C4.46576 8.82013 3.60232 9.27656 2.73475 9.73707C2.69363 9.75763 2.65251 9.77819 2.61551 9.80286C1.81373 10.2264 1.81373 11.5092 2.61551 11.9327C3.22816 12.2575 3.83668 12.5783 4.44937 12.9031C5.90903 13.6761 7.36869 14.445 8.83249 15.218C10.5964 16.1513 12.3562 17.0805 14.1202 18.014C15.6374 18.8157 17.1546 19.6175 18.676 20.4193C19.4038 20.8017 20.1192 21.2046 20.8552 21.5705C21.291 21.7885 21.7186 21.7926 22.1504 21.5705C22.2326 21.5294 22.3108 21.4842 22.3889 21.4431C22.7672 21.2416 23.1454 21.0442 23.5196 20.8428C24.893 20.1191 26.2622 19.3913 27.6354 18.6676C29.3952 17.7384 31.155 16.8091 32.9149 15.8799C34.498 15.0411 36.0809 14.2064 37.664 13.3677C38.5315 12.9113 39.395 12.4508 40.2625 11.9943C40.3037 11.9738 40.3448 11.9532 40.3818 11.9285C40.9533 11.6284 41.1754 10.7855 40.8258 10.2427C40.4517 9.66297 39.7527 9.47793 39.14 9.79866V9.79869Z" fill="#26C4F7"/>
<path d="M12.9935 16.7644C13.598 16.4437 14.2024 16.1271 14.8068 15.8064C16.2623 15.0375 17.722 14.2686 19.1776 13.4956C20.9333 12.5664 22.689 11.6371 24.4488 10.712C25.9701 9.90613 27.4955 9.10021 29.0169 8.29843C29.7529 7.90782 30.5013 7.53778 31.2249 7.13072C31.2331 7.12661 31.2455 7.11839 31.2537 7.11428C31.8252 6.81412 32.0473 5.97123 31.6978 5.42846C31.3236 4.84872 30.6205 4.66368 30.0119 4.9844C29.4075 5.30512 28.8031 5.62172 28.1987 5.94242C26.7432 6.71134 25.2835 7.48019 23.8279 8.25317C22.0722 9.18239 20.3165 10.1117 18.5567 11.0368C17.0354 11.8427 15.5099 12.6486 13.9885 13.4504C13.2525 13.841 12.5042 14.211 11.7806 14.6181C11.7723 14.6222 11.76 14.6304 11.7518 14.6345C11.1802 14.9347 10.9582 15.7776 11.3077 16.3203C11.6778 16.9001 12.3808 17.0851 12.9935 16.7644Z" fill="#26C4F7"/>
</g>
<defs>
<clipPath id="clip0_1646_4021">
<rect width="42.1704" height="40" fill="white"/>
</clipPath>
</defs>
</svg>
