<svg width="32" height="32" viewBox="0 0 32 32" fill="none" xmlns="http://www.w3.org/2000/svg">
<path d="M10.3793 15.4583H21.6207V4.625H10.3793V15.4583ZM9.82759 3H22.1724C22.7818 3 23.2759 3.48508 23.2759 4.08333V17.0833H8.72414V4.08333C8.72414 3.48508 9.21822 3 9.82759 3ZM14.3448 4.625V7.33333H17.6552V4.625H14.3448ZM12.6897 3H19.3103V8.41667C19.3103 8.71579 19.0633 8.95833 18.7586 8.95833H13.2414C12.9367 8.95833 12.6897 8.71579 12.6897 8.41667V3ZM16.5517 27.375H28.3448V17.0833H16.5517V27.375ZM14.8966 15.4583H28.8966C29.5059 15.4583 30 15.9434 30 16.5417V29H14.8966V15.4583ZM21.069 17.0833V19.25H24.3793V17.0833H21.069ZM19.4138 15.4583H26.0345V20.3333C26.0345 20.6325 25.7874 20.875 25.4828 20.875H19.9655C19.6608 20.875 19.4138 20.6325 19.4138 20.3333V15.4583ZM3.65517 27.375H14.8966V17.0833H3.65517V27.375ZM3.10345 15.4583H16.5517V29H2V16.5417C2 15.9434 2.49409 15.4583 3.10345 15.4583ZM7.62069 17.0833V19.25H10.931V17.0833H7.62069ZM5.96552 15.4583H12.5862V20.3333C12.5862 20.6325 12.3392 20.875 12.0345 20.875H6.51724C6.21256 20.875 5.96552 20.6325 5.96552 20.3333V15.4583Z" fill="#26C4F7"/>
</svg>
