<svg width="32" height="32" viewBox="0 0 32 32" fill="none" xmlns="http://www.w3.org/2000/svg">
<path d="M16.2108 18.9933H26.6681C27.4638 18.9933 28.2268 19.3094 28.7894 19.872C29.3521 20.4346 29.6681 21.1977 29.6681 21.9933V23.2C29.6681 23.9205 29.5124 24.6325 29.2116 25.2872C28.9108 25.942 28.4721 26.5239 27.9255 26.9933C25.8375 28.7867 22.8508 29.6627 18.9975 29.6627H18.7588C18.96 29.2578 19.0392 28.8033 18.9869 28.3543C18.9346 27.9052 18.753 27.4811 18.4641 27.1333L18.3161 26.972L15.3428 24.0067C16.2229 22.4933 16.5318 20.7143 16.2108 18.9933ZM8.99746 14.3267C10.1373 14.3267 11.2535 14.6514 12.2155 15.2628C13.1774 15.8742 13.9454 16.7469 14.4294 17.7788C14.9134 18.8108 15.0935 19.9592 14.9485 21.0898C14.8035 22.2204 14.3395 23.2862 13.6108 24.1627L17.3748 27.9147C17.5525 28.0931 17.6563 28.3321 17.6656 28.5837C17.6748 28.8354 17.5887 29.0813 17.4245 29.2723C17.2603 29.4632 17.0301 29.5852 16.7799 29.6138C16.5297 29.6425 16.2779 29.5756 16.0748 29.4267L15.9615 29.3307L12.0908 25.4693C11.2982 25.9457 10.4063 26.2324 9.48469 26.3071C8.56305 26.3818 7.63661 26.2424 6.7777 25.8999C5.9188 25.5575 5.15067 25.0211 4.53329 24.3327C3.91591 23.6444 3.46599 22.8226 3.21864 21.9316C2.9713 21.0407 2.93323 20.1046 3.10741 19.1965C3.28158 18.2884 3.66329 17.4328 4.22273 16.6966C4.78218 15.9603 5.50421 15.3634 6.33247 14.9523C7.16072 14.5412 8.07279 14.3271 8.99746 14.3267ZM8.99746 16.3267C7.93659 16.3267 6.91917 16.7481 6.16903 17.4982C5.41888 18.2484 4.99746 19.2658 4.99746 20.3267C4.99746 21.3875 5.41888 22.4049 6.16903 23.1551C6.91917 23.9052 7.93659 24.3267 8.99746 24.3267C10.0583 24.3267 11.0757 23.9052 11.8259 23.1551C12.576 22.4049 12.9975 21.3875 12.9975 20.3267C12.9975 19.2658 12.576 18.2484 11.8259 17.4982C11.0757 16.7481 10.0583 16.3267 8.99746 16.3267ZM18.9975 3C19.8729 3 20.7398 3.17244 21.5487 3.50747C22.3575 3.8425 23.0924 4.33356 23.7115 4.95262C24.3306 5.57168 24.8216 6.30661 25.1567 7.11544C25.4917 7.92428 25.6641 8.79119 25.6641 9.66667C25.6641 10.5421 25.4917 11.4091 25.1567 12.2179C24.8216 13.0267 24.3306 13.7617 23.7115 14.3807C23.0924 14.9998 22.3575 15.4908 21.5487 15.8259C20.7398 16.1609 19.8729 16.3333 18.9975 16.3333C17.2293 16.3333 15.5337 15.631 14.2834 14.3807C13.0332 13.1305 12.3308 11.4348 12.3308 9.66667C12.3308 7.89856 13.0332 6.20286 14.2834 4.95262C15.5337 3.70238 17.2293 3 18.9975 3Z" fill="#26C4F7"/>
</svg>
