<svg width="32" height="32" viewBox="0 0 32 32" fill="none" xmlns="http://www.w3.org/2000/svg">
<g clip-path="url(#clip0_2652_390)">
<path d="M0.287473 24.715L0.333016 24.7356L0.287472 24.715C-0.241411 25.8824 -0.143845 27.238 0.546356 28.3176L0.588484 28.2907L0.546358 28.3176C1.23656 29.3971 2.42617 30.0545 3.70758 30.0644H3.70797H28.2634C29.6163 30.0644 30.8663 29.3425 31.5427 28.1711C32.2191 26.9996 32.2191 25.5559 31.5427 24.3844C30.8663 23.2129 29.6163 22.491 28.2634 22.491H28.2634H24.5767V14.5338C24.5767 14.379 24.5152 14.2304 24.4057 14.121C24.2962 14.0115 24.1477 13.95 23.9928 13.95H14.918C14.5956 13.95 14.3342 14.2114 14.3342 14.5338V22.491H13.3666V14.5338C13.3666 14.379 13.3051 14.2304 13.1956 14.121C13.0861 14.0115 12.9376 13.95 12.7828 13.95H3.70794C3.38554 13.95 3.12412 14.2114 3.12412 14.5338V22.541C1.87552 22.7457 0.810393 23.5609 0.287473 24.715ZM1.43986 27.5872L1.43985 27.5872C0.971932 26.777 0.971932 25.7784 1.43985 24.9682L1.43986 24.9682C1.90755 24.1579 2.77232 23.6586 3.70794 23.6586H28.2634C29.199 23.6586 30.0637 24.1579 30.5314 24.9682L30.5747 24.9432L30.5314 24.9682C30.9994 25.7784 30.9994 26.777 30.5314 27.5872L30.5747 27.6122L30.5314 27.5872C30.0637 28.3975 29.199 28.8968 28.2634 28.8968H3.70794C2.77232 28.8968 1.90758 28.3975 1.43986 27.5872ZM15.5018 15.1176H23.409V22.491H15.5018V15.1176ZM4.29175 15.1176H12.1989V22.491H4.29175V15.1176Z" fill="#26C4F7" stroke="#26C4F7" stroke-width="0.1"/>
<path d="M3.261 26.4628L3.26098 26.4628C3.18603 26.282 3.22728 26.074 3.36573 25.9356C3.50417 25.7971 3.71214 25.7559 3.89294 25.8308L3.89299 25.8309C4.07373 25.9056 4.19167 26.082 4.19167 26.2777C4.19167 26.406 4.14069 26.5291 4.04998 26.6198C3.95927 26.7105 3.83615 26.7615 3.70785 26.7615C3.51216 26.7615 3.33572 26.6436 3.261 26.4628ZM3.70785 24.6263C3.26994 24.6263 2.84968 24.8003 2.54008 25.1099C2.23049 25.4196 2.05645 25.8398 2.05645 26.2777C2.05645 26.7155 2.23043 27.1359 2.54009 27.4455C2.84973 27.755 3.26999 27.9291 3.70785 27.9291C4.14572 27.9291 4.56603 27.7551 4.87563 27.4454C5.18522 27.1358 5.35926 26.7155 5.35926 26.2777C5.35926 25.8398 5.18528 25.4195 4.87562 25.1099C4.56597 24.8003 4.14572 24.6263 3.70785 24.6263Z" fill="#26C4F7" stroke="#26C4F7" stroke-width="0.1"/>
<path d="M8.06538 26.4628L8.06536 26.4628C7.99041 26.282 8.03167 26.074 8.17011 25.9356C8.30855 25.7971 8.51653 25.7559 8.69732 25.8308L8.69737 25.8309C8.87812 25.9056 8.99605 26.082 8.99605 26.2777C8.99605 26.406 8.94507 26.5291 8.85436 26.6198C8.76366 26.7105 8.64054 26.7615 8.51224 26.7615C8.31655 26.7615 8.1401 26.6436 8.06538 26.4628ZM8.51224 24.6263C8.07432 24.6263 7.65406 24.8003 7.34446 25.1099C7.03487 25.4196 6.86083 25.8398 6.86083 26.2777C6.86083 26.7155 7.03481 27.1359 7.34447 27.4455C7.65412 27.755 8.07437 27.9291 8.51224 27.9291C8.9501 27.9291 9.37041 27.7551 9.68001 27.4454C9.9896 27.1358 10.1636 26.7155 10.1636 26.2777C10.1636 25.8398 9.98966 25.4195 9.68001 25.1099C9.37036 24.8003 8.95011 24.6263 8.51224 24.6263Z" fill="#26C4F7" stroke="#26C4F7" stroke-width="0.1"/>
<path d="M12.8697 26.4628L12.8697 26.4628C12.7947 26.282 12.836 26.074 12.9744 25.9356C13.1129 25.7971 13.3208 25.7559 13.5016 25.8308L13.5017 25.8309C13.6824 25.9056 13.8004 26.082 13.8004 26.2777C13.8004 26.406 13.7494 26.5291 13.6587 26.6198C13.568 26.7105 13.4449 26.7615 13.3166 26.7615C13.1209 26.7615 12.9444 26.6436 12.8697 26.4628ZM13.3166 24.6263C12.8786 24.6263 12.4584 24.8003 12.1488 25.1099C11.8392 25.4196 11.6651 25.8398 11.6651 26.2777C11.6651 26.7155 11.8391 27.1359 12.1488 27.4455C12.4584 27.755 12.8787 27.9291 13.3166 27.9291C13.7544 27.9291 14.1747 27.7551 14.4843 27.4454C14.7939 27.1358 14.968 26.7155 14.968 26.2777C14.968 25.8398 14.794 25.4195 14.4843 25.1099C14.1747 24.8003 13.7544 24.6263 13.3166 24.6263Z" fill="#26C4F7" stroke="#26C4F7" stroke-width="0.1"/>
<path d="M18.2078 26.4628L18.2078 26.4628C18.1328 26.282 18.1741 26.074 18.3125 25.9356C18.4509 25.7971 18.6589 25.7559 18.8397 25.8308L18.8398 25.8309C19.0205 25.9056 19.1384 26.082 19.1384 26.2777C19.1384 26.406 19.0875 26.5291 18.9968 26.6198C18.9061 26.7105 18.7829 26.7615 18.6546 26.7615C18.4589 26.7615 18.2825 26.6436 18.2078 26.4628ZM18.6546 24.6263C18.2167 24.6263 17.7965 24.8003 17.4869 25.1099C17.1773 25.4196 17.0032 25.8398 17.0032 26.2777C17.0032 26.7155 17.1772 27.1359 17.4869 27.4455C17.7965 27.755 18.2168 27.9291 18.6546 27.9291C19.0925 27.9291 19.5128 27.7551 19.8224 27.4454C20.132 27.1358 20.306 26.7155 20.306 26.2777C20.306 25.8398 20.1321 25.4195 19.8224 25.1099C19.5128 24.8003 19.0925 24.6263 18.6546 24.6263Z" fill="#26C4F7" stroke="#26C4F7" stroke-width="0.1"/>
<path d="M23.0123 26.4628L23.0123 26.4628C22.9373 26.282 22.9786 26.074 23.117 25.9356C23.2555 25.7971 23.4634 25.7559 23.6442 25.8308L23.6443 25.8309C23.825 25.9056 23.943 26.082 23.943 26.2777C23.943 26.406 23.892 26.5291 23.8013 26.6198C23.7106 26.7105 23.5874 26.7615 23.4591 26.7615C23.2634 26.7615 23.087 26.6436 23.0123 26.4628ZM23.4591 24.6263C23.0212 24.6263 22.601 24.8003 22.2914 25.1099C21.9818 25.4196 21.8077 25.8398 21.8077 26.2777C21.8077 26.7155 21.9817 27.1359 22.2914 27.4455C22.601 27.755 23.0213 27.9291 23.4591 27.9291C23.897 27.9291 24.3173 27.7551 24.6269 27.4454C24.9365 27.1358 25.1105 26.7155 25.1105 26.2777C25.1105 25.8398 24.9366 25.4195 24.6269 25.1099C24.3173 24.8003 23.897 24.6263 23.4591 24.6263Z" fill="#26C4F7" stroke="#26C4F7" stroke-width="0.1"/>
<path d="M27.8165 26.4628L27.8165 26.4628C27.7415 26.282 27.7828 26.074 27.9212 25.9356C28.0597 25.7971 28.2676 25.7559 28.4484 25.8308L28.4485 25.8309C28.6292 25.9056 28.7471 26.082 28.7471 26.2777C28.7471 26.406 28.6962 26.5291 28.6055 26.6198C28.5148 26.7105 28.3916 26.7615 28.2633 26.7615C28.0676 26.7615 27.8912 26.6436 27.8165 26.4628ZM28.2633 24.6263C27.8254 24.6263 27.4052 24.8003 27.0956 25.1099C26.786 25.4196 26.6119 25.8398 26.6119 26.2777C26.6119 26.7155 26.7859 27.1359 27.0956 27.4455C27.4052 27.755 27.8255 27.9291 28.2633 27.9291C28.7012 27.9291 29.1215 27.7551 29.4311 27.4454C29.7407 27.1358 29.9147 26.7155 29.9147 26.2777C29.9147 25.8398 29.7408 25.4195 29.4311 25.1099C29.1215 24.8003 28.7012 24.6263 28.2633 24.6263Z" fill="#26C4F7" stroke="#26C4F7" stroke-width="0.1"/>
<path d="M5.48057 16.9108L5.48056 16.9109C5.18566 17.4218 5.18566 18.0514 5.48056 18.5623L5.48057 18.5623C5.77571 19.0732 6.32075 19.388 6.9108 19.388H9.57987C10.1699 19.388 10.715 19.0732 11.0101 18.5623L11.0101 18.5623C11.305 18.0514 11.305 17.4218 11.0101 16.9109L11.0101 16.9108C10.715 16.3999 10.1699 16.0851 9.57987 16.0851H6.9108C6.32075 16.0851 5.77568 16.3999 5.48057 16.9108ZM9.57987 18.2204H6.9108C6.64363 18.2204 6.42699 18.0037 6.42699 17.7366C6.42699 17.4694 6.64363 17.2528 6.9108 17.2528H9.57987C9.84704 17.2528 10.0637 17.4694 10.0637 17.7366C10.0637 18.0037 9.84704 18.2204 9.57987 18.2204Z" fill="#26C4F7" stroke="#26C4F7" stroke-width="0.1"/>
<path d="M16.6907 16.9108L16.6906 16.9109C16.3957 17.4218 16.3957 18.0514 16.6906 18.5623L16.6907 18.5623C16.9858 19.0732 17.5308 19.388 18.1209 19.388H20.79C21.38 19.388 21.9251 19.0732 22.2202 18.5623L22.2202 18.5623C22.5151 18.0514 22.5151 17.4218 22.2202 16.9109L22.2202 16.9108C21.9251 16.3999 21.38 16.0851 20.79 16.0851H18.1209C17.5308 16.0851 16.9858 16.3999 16.6907 16.9108ZM20.79 18.2204H18.1209C17.8537 18.2204 17.6371 18.0037 17.6371 17.7366C17.6371 17.4694 17.8537 17.2528 18.1209 17.2528H20.79C21.0571 17.2528 21.2738 17.4694 21.2738 17.7366C21.2738 18.0037 21.0571 18.2204 20.79 18.2204Z" fill="#26C4F7" stroke="#26C4F7" stroke-width="0.1"/>
<path d="M7 7.5L7 2L9.5 2L9.5 7.5L11.5 7.5L8.5 12L5 7.5L7 7.5Z" fill="#26C4F7"/>
</g>
<defs>
<clipPath id="clip0_2652_390">
<rect width="32" height="32" fill="white"/>
</clipPath>
</defs>
</svg>
