<svg width="32" height="32" viewBox="0 0 32 32" fill="none" xmlns="http://www.w3.org/2000/svg">
<path d="M24.773 21.6415H7.08879C6.73945 21.6415 6.45721 21.9237 6.45721 22.2731V24.7994C6.45721 25.1487 6.73945 25.431 7.08879 25.431H24.773C25.1223 25.431 25.4046 25.1487 25.4046 24.7994V22.2731C25.4046 21.9237 25.1223 21.6415 24.773 21.6415Z" fill="#26C4F7"/>
<path d="M7.72034 16.5889H8.98349V17.852H7.72034V16.5889Z" fill="#26C4F7"/>
<path d="M10.2467 16.5889H11.5099V17.852H10.2467V16.5889Z" fill="#26C4F7"/>
<path d="M12.7729 16.5889H14.0361V17.852H12.7729V16.5889Z" fill="#26C4F7"/>
<path d="M7.72034 14.0626H8.98349V15.3258H7.72034V14.0626Z" fill="#26C4F7"/>
<path d="M10.2467 14.0626H11.5099V15.3258H10.2467V14.0626Z" fill="#26C4F7"/>
<path d="M12.7729 14.0626H14.0361V15.3258H12.7729V14.0626Z" fill="#26C4F7"/>
<path d="M23.5099 14.0626H15.931C15.5816 14.0626 15.2994 14.3449 15.2994 14.6942V17.2205C15.2994 17.5699 15.5816 17.8521 15.931 17.8521H23.5099C23.8592 17.8521 24.1415 17.5699 24.1415 17.2205V14.6942C24.1415 14.3449 23.8592 14.0626 23.5099 14.0626ZM22.8783 16.5889H16.5625V15.3258H22.8783V16.5889Z" fill="#26C4F7"/>
<path d="M11.5098 6.48364H14.0361V7.7468H11.5098V6.48364Z" fill="#26C4F7"/>
<path d="M11.5098 9.01001H14.0361V10.2732H11.5098V9.01001Z" fill="#26C4F7"/>
<path fill-rule="evenodd" clip-rule="evenodd" d="M28 27V20.0526C28 19.7033 27.7178 19.4211 27.3684 19.4211H26.7368V9.94737C26.7368 9.59803 26.4546 9.31579 26.1053 9.31579H24.2105V8.05263H27.3684C27.7178 8.05263 28 7.77039 28 7.42105V3.63158C28 3.28224 27.7178 3 27.3684 3H19.7895C19.4401 3 19.1579 3.28224 19.1579 3.63158V7.42105C19.1579 7.77039 19.4401 8.05263 19.7895 8.05263H22.9474V9.31579H16.6316V4.89474C16.6316 4.5454 16.3493 4.26316 16 4.26316H9.68421C9.33487 4.26316 9.05263 4.5454 9.05263 4.89474V9.31579H5.89474C5.5454 9.31579 5.26316 9.59803 5.26316 9.94737V19.4211H4.63158C4.28224 19.4211 4 19.7033 4 20.0526V27H5.26316V20.6842H26.7368V27H28ZM26.7369 4.26312H20.4211V6.78944H26.7369V4.26312ZM15.3685 11.8421V5.52628H10.3159V11.8421H15.3685ZM6.52639 10.5789H9.0527V11.8421H7.78955V13.1052H17.8948V11.8421H16.6317V10.5789H25.4738V19.421H6.52639V10.5789Z" fill="#26C4F7"/>
<path d="M4 27H28V27.4C28 27.9523 27.5523 28.4 27 28.4H5C4.44772 28.4 4 27.9523 4 27.4V27Z" fill="#26C4F7"/>
</svg>
