<svg width="32" height="32" viewBox="0 0 32 32" fill="none" xmlns="http://www.w3.org/2000/svg">
<path d="M6 3C4.93913 3 3.92172 3.42143 3.17157 4.17157C2.42143 4.92172 2 5.93913 2 7V21.4C2 22.4609 2.42143 23.4783 3.17157 24.2284C3.92172 24.9786 4.93913 25.4 6 25.4H13.2368C13.2138 25.1874 13.2016 24.9738 13.2 24.76C13.2 24.4293 13.2373 24.1093 13.312 23.8H6C5.36348 23.8 4.75303 23.5471 4.30294 23.0971C3.85286 22.647 3.6 22.0365 3.6 21.4V11H10.1376C10.7739 10.9994 11.3839 10.7462 11.8336 10.296L14.3312 7.8H23.6C24.2365 7.8 24.847 8.05286 25.2971 8.50294C25.7471 8.95303 26 9.56348 26 10.2V15C26.576 15 27.1184 15.1344 27.6 15.3744V10.2C27.6 9.13913 27.1786 8.12172 26.4284 7.37157C25.6783 6.62143 24.6609 6.2 23.6 6.2H14.3312L11.952 3.8208C11.6919 3.56056 11.3832 3.35413 11.0433 3.21329C10.7034 3.07245 10.3391 2.99997 9.9712 3H6ZM3.6 7C3.6 6.36348 3.85286 5.75303 4.30294 5.30294C4.75303 4.85286 5.36348 4.6 6 4.6H9.9712C10.2894 4.60028 10.5944 4.72689 10.8192 4.952L12.8672 7L10.704 9.1664C10.6296 9.24064 10.5412 9.29949 10.444 9.33957C10.3469 9.37965 10.2427 9.40019 10.1376 9.4H3.6V7ZM22.4 17.8C22.4 18.5426 22.105 19.2548 21.5799 19.7799C21.0548 20.305 20.3426 20.6 19.6 20.6C18.8574 20.6 18.1452 20.305 17.6201 19.7799C17.095 19.2548 16.8 18.5426 16.8 17.8C16.8 17.0574 17.095 16.3452 17.6201 15.8201C18.1452 15.295 18.8574 15 19.6 15C20.3426 15 21.0548 15.295 21.5799 15.8201C22.105 16.3452 22.4 17.0574 22.4 17.8ZM28 18.6C28 19.1304 27.7893 19.6391 27.4142 20.0142C27.0391 20.3893 26.5304 20.6 26 20.6C25.4696 20.6 24.9609 20.3893 24.5858 20.0142C24.2107 19.6391 24 19.1304 24 18.6C24 18.0696 24.2107 17.5609 24.5858 17.1858C24.9609 16.8107 25.4696 16.6 26 16.6C26.5304 16.6 27.0391 16.8107 27.4142 17.1858C27.7893 17.5609 28 18.0696 28 18.6ZM24.4 24.76C24.4 26.6528 23.12 28.6 19.6 28.6C16.08 28.6 14.8 26.6544 14.8 24.76C14.8 24.081 15.0697 23.4299 15.5498 22.9498C16.0299 22.4697 16.681 22.2 17.36 22.2H21.84C22.519 22.2 23.1701 22.4697 23.6502 22.9498C24.1303 23.4299 24.4 24.081 24.4 24.76ZM25.5264 27H25.6C28.24 27 29.2 25.5408 29.2 24.12C29.2 23.6108 28.9977 23.1224 28.6376 22.7624C28.2776 22.4023 27.7892 22.2 27.28 22.2H25.12C25.672 22.9056 26 23.7952 26 24.76C26.0028 25.5318 25.8414 26.2954 25.5264 27Z" fill="#26C4F7"/>
</svg>
