<svg width="32" height="32" viewBox="0 0 32 32" fill="none" xmlns="http://www.w3.org/2000/svg">
<mask id="path-1-outside-1_2652_409" maskUnits="userSpaceOnUse" x="1" y="3" width="30" height="26" fill="black">
<rect fill="white" x="1" y="3" width="30" height="26"/>
<path d="M30 12.2295C30 11.1931 28.2453 10.411 25.9184 10.411C24.4966 10.411 23.2894 10.7036 22.5647 11.1671L22.5649 10.0884C22.5647 10.0583 22.5604 10.0281 22.5516 9.99901C22.5599 9.94746 22.5644 9.89532 22.5649 9.84299V7.95132C22.5647 7.92118 22.5604 7.89105 22.5516 7.86191C22.5599 7.81037 22.5642 7.75822 22.5649 7.70589V5.81853C22.5649 4.78168 20.8101 4 18.4833 4C16.1564 4 14.4024 4.78147 14.4024 5.81853V6.7955C13.6777 6.332 12.4705 6.03941 11.0486 6.03941C8.72174 6.03941 6.96707 6.82088 6.96707 7.85794V9.74803L6.96729 9.74823C6.96772 9.80037 6.97222 9.85251 6.98102 9.90406C6.97222 9.9332 6.9675 9.96333 6.96729 9.99346V11.8836C6.9675 11.9359 6.97222 11.988 6.98102 12.0396C6.97222 12.0687 6.9675 12.0987 6.96729 12.129V14.2939H4.67238C4.47236 14.2952 4.3114 14.4455 4.31182 14.6303V16.8973H2.3642C2.1631 16.8973 2 17.0477 2 17.2337V27.6642C2 27.7532 2.03842 27.8388 2.10666 27.9017C2.17491 27.9647 2.26763 28 2.3642 28H19.8895C19.986 28 20.0785 27.9647 20.147 27.9017C20.2152 27.8388 20.2537 27.7532 20.2537 27.6642V25.3988H22.1983C22.2947 25.3988 22.3874 25.3633 22.4554 25.3002C22.5237 25.237 22.5619 25.1515 22.5619 25.0623V21.6408C23.2866 22.1271 24.4938 22.4333 25.9157 22.4333C28.2426 22.4333 29.9972 21.6134 29.9972 20.5266L29.997 18.6359C29.9968 18.6058 29.9925 18.5758 29.9837 18.5467C29.9921 18.4952 29.9966 18.4432 29.997 18.3913V16.5C29.997 16.4696 29.9925 16.4397 29.9833 16.4105C29.9921 16.359 29.9966 16.3069 29.997 16.2545V14.3672C29.997 14.337 29.9925 14.3069 29.9833 14.278C29.9921 14.2262 29.9966 14.1741 29.997 14.1219L30 12.2295ZM29.2722 18.3913C29.2722 18.9741 27.8378 19.6258 25.9184 19.6258C23.9991 19.6258 22.5647 18.9741 22.5647 18.3913V17.3699C23.2864 17.856 24.4938 18.1653 25.9137 18.1653C27.3336 18.1653 28.5428 17.8588 29.2675 17.3727L29.2722 18.3913ZM25.9137 15.3543C23.9944 15.3543 22.5599 14.7027 22.5599 14.1198V13.2921C23.2847 13.7562 24.4919 14.0482 25.9137 14.0482C27.3356 14.0482 28.5428 13.7562 29.2675 13.2927V14.1198C29.2692 14.7026 27.8367 15.3543 25.9137 15.3543V15.3543ZM18.4801 13.2138C16.5615 13.2138 15.127 12.5622 15.127 11.9787V10.9579C15.8517 11.4437 17.059 11.7501 18.4801 11.7501C19.9013 11.7501 21.1092 11.4436 21.8339 10.9579V11.9787C21.8339 12.5622 20.3995 13.2138 18.4801 13.2138ZM21.8339 9.84318C21.8339 10.426 20.3995 11.0777 18.4801 11.0777C16.5608 11.0777 15.127 10.426 15.127 9.84318V8.82181C15.8517 9.30811 17.059 9.61439 18.4801 9.61439C19.9013 9.61439 21.1092 9.3079 21.8339 8.82181V9.84318ZM21.8339 7.70765C21.8339 8.29049 20.3995 8.94214 18.4801 8.94214C16.5608 8.94214 15.127 8.29049 15.127 7.70765V6.88015C15.8517 7.34425 17.059 7.63625 18.4801 7.63625C19.9013 7.63625 21.1092 7.34423 21.8339 6.88015V7.70765ZM14.3992 9.74843C14.3992 10.3313 12.9648 10.9829 11.0454 10.9829C9.12611 10.9829 7.69165 10.3313 7.69165 9.74843L7.69186 8.92072C8.41659 9.38423 9.62383 9.67682 11.0457 9.67682C12.4675 9.67682 13.6747 9.3842 14.3995 8.92072L14.3992 9.74843ZM7.69198 10.8624C8.41671 11.3487 9.62394 11.655 11.0458 11.655C12.4676 11.655 13.6748 11.3485 14.3996 10.8624V11.8838C14.3996 12.4666 12.9651 13.1182 11.0458 13.1182C9.12645 13.1182 7.69198 12.4666 7.69198 11.8838V10.8624ZM15.1272 13.0933C15.8519 13.579 17.0592 13.8859 18.4804 13.8859C19.9015 13.8859 21.1094 13.579 21.8341 13.0933V14.1198C21.8346 14.172 21.8391 14.2241 21.8479 14.2756C21.8479 14.2824 21.8436 14.2889 21.8419 14.2957H15.1275L15.1272 13.0933ZM29.2692 16.2573C29.2692 16.8402 27.8347 17.4924 25.9154 17.4924C23.996 17.4924 22.5616 16.8402 22.5616 16.2573V15.236C23.2863 15.7223 24.4935 16.0285 25.9154 16.0285C27.3372 16.0285 28.5444 15.722 29.2692 15.236V16.2573ZM25.9137 11.0832C27.9916 11.0832 29.2675 11.7493 29.2675 12.2295C29.2675 12.7096 27.9935 13.3758 25.9137 13.3758C23.8339 13.3758 22.5599 12.7096 22.5599 12.2295C22.5599 11.7493 23.8375 11.0832 25.9137 11.0832ZM18.4801 4.67123C20.558 4.67123 21.8339 5.33735 21.8339 5.81751C21.8339 6.29767 20.558 6.96379 18.4801 6.96379C16.4022 6.96379 15.1269 6.29767 15.1269 5.81751C15.1269 5.33735 16.4026 4.67123 18.4801 4.67123ZM11.0454 6.7118C13.1233 6.7118 14.3992 7.37792 14.3992 7.85808C14.3992 8.33824 13.1235 9.00593 11.0454 9.00593C8.9675 9.00593 7.69159 8.33982 7.69159 7.85966C7.69181 7.3795 8.9675 6.7118 11.0454 6.7118ZM7.69181 12.9984C8.41654 13.4841 9.62377 13.7906 11.0456 13.7906C12.4674 13.7906 13.6747 13.4841 14.3994 12.9984V14.2957L7.69159 14.2955L7.69181 12.9984ZM5.33619 17.5712C5.01942 18.2762 4.22385 19.6201 2.72757 19.7673V17.5712H5.33619ZM16.135 17.5712C16.409 18.2885 17.3651 20.2974 19.5259 20.4451V24.4572C17.3595 24.6077 16.4071 26.6132 16.135 27.3293H6.11911C5.84741 26.6132 4.89754 24.6059 2.72757 24.4572V20.4451C4.89089 20.2974 5.84462 18.2885 6.11851 17.5712H16.135ZM19.5259 19.766C18.0309 19.6156 17.2351 18.2744 16.9179 17.5712H19.5259V19.766ZM2.72751 25.133C4.22319 25.2758 5.0194 26.6247 5.33614 27.3296L2.72751 27.3294V25.133ZM16.9173 27.3296C17.234 26.6246 18.0303 25.2758 19.5259 25.133V27.3296H16.9173ZM21.8341 24.7268H20.2536V17.2354C20.2536 17.1462 20.2152 17.0605 20.147 16.9975C20.0787 16.9344 19.986 16.8989 19.8894 16.8989H5.036V14.9678H21.8344L21.8341 24.7268ZM25.9137 21.7612C23.9944 21.7612 22.5599 21.1095 22.5599 20.5267V19.5053C23.2847 19.9916 24.4919 20.2979 25.9137 20.2979C27.3356 20.2979 28.5428 19.9914 29.2675 19.5053V20.5267C29.2692 21.1074 27.8367 21.7612 25.9137 21.7612Z"/>
</mask>
<path d="M30 12.2295C30 11.1931 28.2453 10.411 25.9184 10.411C24.4966 10.411 23.2894 10.7036 22.5647 11.1671L22.5649 10.0884C22.5647 10.0583 22.5604 10.0281 22.5516 9.99901C22.5599 9.94746 22.5644 9.89532 22.5649 9.84299V7.95132C22.5647 7.92118 22.5604 7.89105 22.5516 7.86191C22.5599 7.81037 22.5642 7.75822 22.5649 7.70589V5.81853C22.5649 4.78168 20.8101 4 18.4833 4C16.1564 4 14.4024 4.78147 14.4024 5.81853V6.7955C13.6777 6.332 12.4705 6.03941 11.0486 6.03941C8.72174 6.03941 6.96707 6.82088 6.96707 7.85794V9.74803L6.96729 9.74823C6.96772 9.80037 6.97222 9.85251 6.98102 9.90406C6.97222 9.9332 6.9675 9.96333 6.96729 9.99346V11.8836C6.9675 11.9359 6.97222 11.988 6.98102 12.0396C6.97222 12.0687 6.9675 12.0987 6.96729 12.129V14.2939H4.67238C4.47236 14.2952 4.3114 14.4455 4.31182 14.6303V16.8973H2.3642C2.1631 16.8973 2 17.0477 2 17.2337V27.6642C2 27.7532 2.03842 27.8388 2.10666 27.9017C2.17491 27.9647 2.26763 28 2.3642 28H19.8895C19.986 28 20.0785 27.9647 20.147 27.9017C20.2152 27.8388 20.2537 27.7532 20.2537 27.6642V25.3988H22.1983C22.2947 25.3988 22.3874 25.3633 22.4554 25.3002C22.5237 25.237 22.5619 25.1515 22.5619 25.0623V21.6408C23.2866 22.1271 24.4938 22.4333 25.9157 22.4333C28.2426 22.4333 29.9972 21.6134 29.9972 20.5266L29.997 18.6359C29.9968 18.6058 29.9925 18.5758 29.9837 18.5467C29.9921 18.4952 29.9966 18.4432 29.997 18.3913V16.5C29.997 16.4696 29.9925 16.4397 29.9833 16.4105C29.9921 16.359 29.9966 16.3069 29.997 16.2545V14.3672C29.997 14.337 29.9925 14.3069 29.9833 14.278C29.9921 14.2262 29.9966 14.1741 29.997 14.1219L30 12.2295ZM29.2722 18.3913C29.2722 18.9741 27.8378 19.6258 25.9184 19.6258C23.9991 19.6258 22.5647 18.9741 22.5647 18.3913V17.3699C23.2864 17.856 24.4938 18.1653 25.9137 18.1653C27.3336 18.1653 28.5428 17.8588 29.2675 17.3727L29.2722 18.3913ZM25.9137 15.3543C23.9944 15.3543 22.5599 14.7027 22.5599 14.1198V13.2921C23.2847 13.7562 24.4919 14.0482 25.9137 14.0482C27.3356 14.0482 28.5428 13.7562 29.2675 13.2927V14.1198C29.2692 14.7026 27.8367 15.3543 25.9137 15.3543V15.3543ZM18.4801 13.2138C16.5615 13.2138 15.127 12.5622 15.127 11.9787V10.9579C15.8517 11.4437 17.059 11.7501 18.4801 11.7501C19.9013 11.7501 21.1092 11.4436 21.8339 10.9579V11.9787C21.8339 12.5622 20.3995 13.2138 18.4801 13.2138ZM21.8339 9.84318C21.8339 10.426 20.3995 11.0777 18.4801 11.0777C16.5608 11.0777 15.127 10.426 15.127 9.84318V8.82181C15.8517 9.30811 17.059 9.61439 18.4801 9.61439C19.9013 9.61439 21.1092 9.3079 21.8339 8.82181V9.84318ZM21.8339 7.70765C21.8339 8.29049 20.3995 8.94214 18.4801 8.94214C16.5608 8.94214 15.127 8.29049 15.127 7.70765V6.88015C15.8517 7.34425 17.059 7.63625 18.4801 7.63625C19.9013 7.63625 21.1092 7.34423 21.8339 6.88015V7.70765ZM14.3992 9.74843C14.3992 10.3313 12.9648 10.9829 11.0454 10.9829C9.12611 10.9829 7.69165 10.3313 7.69165 9.74843L7.69186 8.92072C8.41659 9.38423 9.62383 9.67682 11.0457 9.67682C12.4675 9.67682 13.6747 9.3842 14.3995 8.92072L14.3992 9.74843ZM7.69198 10.8624C8.41671 11.3487 9.62394 11.655 11.0458 11.655C12.4676 11.655 13.6748 11.3485 14.3996 10.8624V11.8838C14.3996 12.4666 12.9651 13.1182 11.0458 13.1182C9.12645 13.1182 7.69198 12.4666 7.69198 11.8838V10.8624ZM15.1272 13.0933C15.8519 13.579 17.0592 13.8859 18.4804 13.8859C19.9015 13.8859 21.1094 13.579 21.8341 13.0933V14.1198C21.8346 14.172 21.8391 14.2241 21.8479 14.2756C21.8479 14.2824 21.8436 14.2889 21.8419 14.2957H15.1275L15.1272 13.0933ZM29.2692 16.2573C29.2692 16.8402 27.8347 17.4924 25.9154 17.4924C23.996 17.4924 22.5616 16.8402 22.5616 16.2573V15.236C23.2863 15.7223 24.4935 16.0285 25.9154 16.0285C27.3372 16.0285 28.5444 15.722 29.2692 15.236V16.2573ZM25.9137 11.0832C27.9916 11.0832 29.2675 11.7493 29.2675 12.2295C29.2675 12.7096 27.9935 13.3758 25.9137 13.3758C23.8339 13.3758 22.5599 12.7096 22.5599 12.2295C22.5599 11.7493 23.8375 11.0832 25.9137 11.0832ZM18.4801 4.67123C20.558 4.67123 21.8339 5.33735 21.8339 5.81751C21.8339 6.29767 20.558 6.96379 18.4801 6.96379C16.4022 6.96379 15.1269 6.29767 15.1269 5.81751C15.1269 5.33735 16.4026 4.67123 18.4801 4.67123ZM11.0454 6.7118C13.1233 6.7118 14.3992 7.37792 14.3992 7.85808C14.3992 8.33824 13.1235 9.00593 11.0454 9.00593C8.9675 9.00593 7.69159 8.33982 7.69159 7.85966C7.69181 7.3795 8.9675 6.7118 11.0454 6.7118ZM7.69181 12.9984C8.41654 13.4841 9.62377 13.7906 11.0456 13.7906C12.4674 13.7906 13.6747 13.4841 14.3994 12.9984V14.2957L7.69159 14.2955L7.69181 12.9984ZM5.33619 17.5712C5.01942 18.2762 4.22385 19.6201 2.72757 19.7673V17.5712H5.33619ZM16.135 17.5712C16.409 18.2885 17.3651 20.2974 19.5259 20.4451V24.4572C17.3595 24.6077 16.4071 26.6132 16.135 27.3293H6.11911C5.84741 26.6132 4.89754 24.6059 2.72757 24.4572V20.4451C4.89089 20.2974 5.84462 18.2885 6.11851 17.5712H16.135ZM19.5259 19.766C18.0309 19.6156 17.2351 18.2744 16.9179 17.5712H19.5259V19.766ZM2.72751 25.133C4.22319 25.2758 5.0194 26.6247 5.33614 27.3296L2.72751 27.3294V25.133ZM16.9173 27.3296C17.234 26.6246 18.0303 25.2758 19.5259 25.133V27.3296H16.9173ZM21.8341 24.7268H20.2536V17.2354C20.2536 17.1462 20.2152 17.0605 20.147 16.9975C20.0787 16.9344 19.986 16.8989 19.8894 16.8989H5.036V14.9678H21.8344L21.8341 24.7268ZM25.9137 21.7612C23.9944 21.7612 22.5599 21.1095 22.5599 20.5267V19.5053C23.2847 19.9916 24.4919 20.2979 25.9137 20.2979C27.3356 20.2979 28.5428 19.9914 29.2675 19.5053V20.5267C29.2692 21.1074 27.8367 21.7612 25.9137 21.7612Z" fill="#26C4F7"/>
<path d="M30 12.2295C30 11.1931 28.2453 10.411 25.9184 10.411C24.4966 10.411 23.2894 10.7036 22.5647 11.1671L22.5649 10.0884C22.5647 10.0583 22.5604 10.0281 22.5516 9.99901C22.5599 9.94746 22.5644 9.89532 22.5649 9.84299V7.95132C22.5647 7.92118 22.5604 7.89105 22.5516 7.86191C22.5599 7.81037 22.5642 7.75822 22.5649 7.70589V5.81853C22.5649 4.78168 20.8101 4 18.4833 4C16.1564 4 14.4024 4.78147 14.4024 5.81853V6.7955C13.6777 6.332 12.4705 6.03941 11.0486 6.03941C8.72174 6.03941 6.96707 6.82088 6.96707 7.85794V9.74803L6.96729 9.74823C6.96772 9.80037 6.97222 9.85251 6.98102 9.90406C6.97222 9.9332 6.9675 9.96333 6.96729 9.99346V11.8836C6.9675 11.9359 6.97222 11.988 6.98102 12.0396C6.97222 12.0687 6.9675 12.0987 6.96729 12.129V14.2939H4.67238C4.47236 14.2952 4.3114 14.4455 4.31182 14.6303V16.8973H2.3642C2.1631 16.8973 2 17.0477 2 17.2337V27.6642C2 27.7532 2.03842 27.8388 2.10666 27.9017C2.17491 27.9647 2.26763 28 2.3642 28H19.8895C19.986 28 20.0785 27.9647 20.147 27.9017C20.2152 27.8388 20.2537 27.7532 20.2537 27.6642V25.3988H22.1983C22.2947 25.3988 22.3874 25.3633 22.4554 25.3002C22.5237 25.237 22.5619 25.1515 22.5619 25.0623V21.6408C23.2866 22.1271 24.4938 22.4333 25.9157 22.4333C28.2426 22.4333 29.9972 21.6134 29.9972 20.5266L29.997 18.6359C29.9968 18.6058 29.9925 18.5758 29.9837 18.5467C29.9921 18.4952 29.9966 18.4432 29.997 18.3913V16.5C29.997 16.4696 29.9925 16.4397 29.9833 16.4105C29.9921 16.359 29.9966 16.3069 29.997 16.2545V14.3672C29.997 14.337 29.9925 14.3069 29.9833 14.278C29.9921 14.2262 29.9966 14.1741 29.997 14.1219L30 12.2295ZM29.2722 18.3913C29.2722 18.9741 27.8378 19.6258 25.9184 19.6258C23.9991 19.6258 22.5647 18.9741 22.5647 18.3913V17.3699C23.2864 17.856 24.4938 18.1653 25.9137 18.1653C27.3336 18.1653 28.5428 17.8588 29.2675 17.3727L29.2722 18.3913ZM25.9137 15.3543C23.9944 15.3543 22.5599 14.7027 22.5599 14.1198V13.2921C23.2847 13.7562 24.4919 14.0482 25.9137 14.0482C27.3356 14.0482 28.5428 13.7562 29.2675 13.2927V14.1198C29.2692 14.7026 27.8367 15.3543 25.9137 15.3543V15.3543ZM18.4801 13.2138C16.5615 13.2138 15.127 12.5622 15.127 11.9787V10.9579C15.8517 11.4437 17.059 11.7501 18.4801 11.7501C19.9013 11.7501 21.1092 11.4436 21.8339 10.9579V11.9787C21.8339 12.5622 20.3995 13.2138 18.4801 13.2138ZM21.8339 9.84318C21.8339 10.426 20.3995 11.0777 18.4801 11.0777C16.5608 11.0777 15.127 10.426 15.127 9.84318V8.82181C15.8517 9.30811 17.059 9.61439 18.4801 9.61439C19.9013 9.61439 21.1092 9.3079 21.8339 8.82181V9.84318ZM21.8339 7.70765C21.8339 8.29049 20.3995 8.94214 18.4801 8.94214C16.5608 8.94214 15.127 8.29049 15.127 7.70765V6.88015C15.8517 7.34425 17.059 7.63625 18.4801 7.63625C19.9013 7.63625 21.1092 7.34423 21.8339 6.88015V7.70765ZM14.3992 9.74843C14.3992 10.3313 12.9648 10.9829 11.0454 10.9829C9.12611 10.9829 7.69165 10.3313 7.69165 9.74843L7.69186 8.92072C8.41659 9.38423 9.62383 9.67682 11.0457 9.67682C12.4675 9.67682 13.6747 9.3842 14.3995 8.92072L14.3992 9.74843ZM7.69198 10.8624C8.41671 11.3487 9.62394 11.655 11.0458 11.655C12.4676 11.655 13.6748 11.3485 14.3996 10.8624V11.8838C14.3996 12.4666 12.9651 13.1182 11.0458 13.1182C9.12645 13.1182 7.69198 12.4666 7.69198 11.8838V10.8624ZM15.1272 13.0933C15.8519 13.579 17.0592 13.8859 18.4804 13.8859C19.9015 13.8859 21.1094 13.579 21.8341 13.0933V14.1198C21.8346 14.172 21.8391 14.2241 21.8479 14.2756C21.8479 14.2824 21.8436 14.2889 21.8419 14.2957H15.1275L15.1272 13.0933ZM29.2692 16.2573C29.2692 16.8402 27.8347 17.4924 25.9154 17.4924C23.996 17.4924 22.5616 16.8402 22.5616 16.2573V15.236C23.2863 15.7223 24.4935 16.0285 25.9154 16.0285C27.3372 16.0285 28.5444 15.722 29.2692 15.236V16.2573ZM25.9137 11.0832C27.9916 11.0832 29.2675 11.7493 29.2675 12.2295C29.2675 12.7096 27.9935 13.3758 25.9137 13.3758C23.8339 13.3758 22.5599 12.7096 22.5599 12.2295C22.5599 11.7493 23.8375 11.0832 25.9137 11.0832ZM18.4801 4.67123C20.558 4.67123 21.8339 5.33735 21.8339 5.81751C21.8339 6.29767 20.558 6.96379 18.4801 6.96379C16.4022 6.96379 15.1269 6.29767 15.1269 5.81751C15.1269 5.33735 16.4026 4.67123 18.4801 4.67123ZM11.0454 6.7118C13.1233 6.7118 14.3992 7.37792 14.3992 7.85808C14.3992 8.33824 13.1235 9.00593 11.0454 9.00593C8.9675 9.00593 7.69159 8.33982 7.69159 7.85966C7.69181 7.3795 8.9675 6.7118 11.0454 6.7118ZM7.69181 12.9984C8.41654 13.4841 9.62377 13.7906 11.0456 13.7906C12.4674 13.7906 13.6747 13.4841 14.3994 12.9984V14.2957L7.69159 14.2955L7.69181 12.9984ZM5.33619 17.5712C5.01942 18.2762 4.22385 19.6201 2.72757 19.7673V17.5712H5.33619ZM16.135 17.5712C16.409 18.2885 17.3651 20.2974 19.5259 20.4451V24.4572C17.3595 24.6077 16.4071 26.6132 16.135 27.3293H6.11911C5.84741 26.6132 4.89754 24.6059 2.72757 24.4572V20.4451C4.89089 20.2974 5.84462 18.2885 6.11851 17.5712H16.135ZM19.5259 19.766C18.0309 19.6156 17.2351 18.2744 16.9179 17.5712H19.5259V19.766ZM2.72751 25.133C4.22319 25.2758 5.0194 26.6247 5.33614 27.3296L2.72751 27.3294V25.133ZM16.9173 27.3296C17.234 26.6246 18.0303 25.2758 19.5259 25.133V27.3296H16.9173ZM21.8341 24.7268H20.2536V17.2354C20.2536 17.1462 20.2152 17.0605 20.147 16.9975C20.0787 16.9344 19.986 16.8989 19.8894 16.8989H5.036V14.9678H21.8344L21.8341 24.7268ZM25.9137 21.7612C23.9944 21.7612 22.5599 21.1095 22.5599 20.5267V19.5053C23.2847 19.9916 24.4919 20.2979 25.9137 20.2979C27.3356 20.2979 28.5428 19.9914 29.2675 19.5053V20.5267C29.2692 21.1074 27.8367 21.7612 25.9137 21.7612Z" stroke="#26C4F7" stroke-width="0.4" mask="url(#path-1-outside-1_2652_409)"/>
</svg>
