<svg width="32" height="32" viewBox="0 0 32 32" fill="none" xmlns="http://www.w3.org/2000/svg">
<path d="M3.99999 26.2973V28C3.99999 28.3536 4.14047 28.6927 4.39051 28.9428C4.64056 29.1928 4.9797 29.3333 5.33332 29.3333H6.66666C7.02028 29.3333 7.35942 29.1928 7.60946 28.9428C7.85951 28.6927 7.99999 28.3536 7.99999 28V26.6666H24V28C24 28.3536 24.1405 28.6927 24.3905 28.9428C24.6406 29.1928 24.9797 29.3333 25.3333 29.3333H26.6667C27.0203 29.3333 27.3594 29.1928 27.6095 28.9428C27.8595 28.6927 28 28.3536 28 28V26.2973C28.4045 26.0653 28.7407 25.7308 28.9748 25.3275C29.2089 24.9242 29.3326 24.4663 29.3333 24V20C29.3333 18.892 28.6573 17.944 27.696 17.54L25.872 12.068C25.6074 11.2713 25.0984 10.5782 24.4175 10.0873C23.7365 9.5964 22.9181 9.33257 22.0787 9.33331H9.92132C9.08184 9.33257 8.26347 9.5964 7.5825 10.0873C6.90153 10.5782 6.39259 11.2713 6.12799 12.068L4.30399 17.54C3.81895 17.7429 3.40474 18.0847 3.11341 18.5224C2.82209 18.9601 2.66666 19.4742 2.66666 20V24C2.66666 24.984 3.20532 25.8346 3.99999 26.2973ZM7.33332 24C7.07059 23.9999 6.81045 23.9481 6.56775 23.8474C6.32505 23.7468 6.10455 23.5994 5.91883 23.4135C5.54376 23.0382 5.33315 22.5293 5.33332 21.9986C5.3335 21.468 5.54445 20.9592 5.91978 20.5842C6.2951 20.2091 6.80405 19.9985 7.33466 19.9986C7.86527 19.9988 8.37407 20.2098 8.74915 20.5851C9.12422 20.9604 9.33483 21.4694 9.33466 22C9.33448 22.5306 9.12353 23.0394 8.7482 23.4145C8.37288 23.7895 7.86393 24.0002 7.33332 24ZM24.6667 24C24.136 23.9998 23.6272 23.7889 23.2522 23.4135C22.8771 23.0382 22.6665 22.5293 22.6667 21.9986C22.6668 21.468 22.8778 20.9592 23.2531 20.5842C23.6284 20.2091 24.1374 19.9985 24.668 19.9986C25.1986 19.9988 25.7074 20.2098 26.0825 20.5851C26.4576 20.9604 26.6682 21.4694 26.668 22C26.6678 22.5306 26.4569 23.0394 26.0815 23.4145C25.7062 23.7895 25.1973 24.0002 24.6667 24ZM9.92132 12H22.0773C22.3573 11.9999 22.6301 12.088 22.8573 12.2517C23.0844 12.4153 23.2542 12.6464 23.3427 12.912L24.8173 17.3333H7.18266L8.65599 12.912C8.83866 12.3666 9.34799 12 9.92132 12Z" fill="#00B4F1"/>
<path d="M29.3333 9.85068V7.03868L16.4213 2.73468C16.1359 2.63959 15.8267 2.64382 15.544 2.74668L2.66666 7.42935V10.2667L16.02 5.41068L29.3333 9.85068Z" fill="#00B4F1"/>
</svg>
