<svg width="32" height="32" viewBox="0 0 32 32" fill="none" xmlns="http://www.w3.org/2000/svg">
<g clip-path="url(#clip0_2652_415)">
<path d="M25.9231 0.5H6.23076C5.90438 0.500549 5.59175 0.630223 5.36099 0.860989C5.13023 1.09175 5.00055 1.4044 5 1.73076V31.2692C5.00055 31.5956 5.13022 31.9083 5.36099 32.139C5.59175 32.3698 5.9044 32.4995 6.23076 32.5H25.9231C26.2495 32.4995 26.5621 32.3698 26.7929 32.139C27.0236 31.9082 27.1533 31.5956 27.1538 31.2692V1.73076C27.1533 1.40438 27.0236 1.09175 26.7929 0.860989C26.5621 0.63023 26.2494 0.500549 25.9231 0.5ZM6.23076 31.2693V1.73077H25.9231L25.9242 31.2693H6.23076ZM24.6923 2.34616H19.1538C18.9481 2.34616 18.756 2.4489 18.6418 2.62005L17.5937 4.19228H14.5599L13.5121 2.62005C13.3978 2.4489 13.2058 2.34616 13 2.34616H7.46157C7.29838 2.34616 7.14179 2.41099 7.0264 2.52638C6.91102 2.64176 6.84618 2.79835 6.84618 2.96154V30.0385C6.84618 30.2017 6.91102 30.3583 7.0264 30.4737C7.14179 30.589 7.29838 30.6539 7.46157 30.6539H24.6924C24.8555 30.6539 25.0121 30.589 25.1275 30.4737C25.2429 30.3583 25.3077 30.2017 25.3077 30.0385V2.96154C25.3077 2.79835 25.2429 2.64176 25.1275 2.52638C25.0121 2.41099 24.8555 2.34616 24.6924 2.34616H24.6923ZM24.0769 29.4231H8.07691V3.57693H12.6706L13.7186 5.14915C13.8329 5.3203 14.0249 5.42305 14.2307 5.42305H17.923C18.1288 5.42305 18.3208 5.3203 18.4351 5.14915L19.4832 3.57693H24.0768L24.0769 29.4231ZM15.4615 2.96154C15.4615 2.71264 15.6115 2.48819 15.8415 2.39314C16.0714 2.2978 16.336 2.35028 16.5121 2.52638C16.6882 2.70247 16.7407 2.96703 16.6453 3.19698C16.5503 3.42693 16.3258 3.57693 16.0769 3.57693C15.7371 3.57693 15.4615 3.30137 15.4615 2.96154ZM19.7692 13.4231H17.3077C17.1445 13.4231 16.9879 13.4879 16.8725 13.6033L16.077 14.3989L15.2814 13.6033C15.166 13.4879 15.0094 13.4231 14.8462 13.4231H12.3847C12.2215 13.4231 12.0649 13.4879 11.9495 13.6033C11.8341 13.7187 11.7693 13.8753 11.7693 14.0385V16.5C11.7693 16.6632 11.8341 16.8198 11.9495 16.9352C12.0649 17.0506 12.2215 17.1154 12.3847 17.1154H13.6154V20.1923C13.6154 20.3555 13.6803 20.5121 13.7957 20.6275C13.9111 20.7429 14.0676 20.8077 14.2308 20.8077H17.9231C18.0863 20.8077 18.2429 20.7429 18.3583 20.6275C18.4737 20.5121 18.5385 20.3555 18.5385 20.1923V17.1154H19.7693C19.9325 17.1154 20.0891 17.0506 20.2045 16.9352C20.3198 16.8198 20.3847 16.6632 20.3847 16.5V14.0385C20.3847 13.8753 20.3198 13.7187 20.2045 13.6033C20.0891 13.4879 19.9325 13.4231 19.7693 13.4231H19.7692ZM19.1538 15.8846H17.9231C17.7599 15.8846 17.6033 15.9495 17.4879 16.0648C17.3725 16.1802 17.3077 16.3368 17.3077 16.5V19.5769H14.8461V16.5C14.8461 16.3368 14.7813 16.1802 14.6659 16.0648C14.5505 15.9495 14.3939 15.8846 14.2308 15.8846H13V14.6539H14.5912L15.6418 15.7044C15.8822 15.9446 16.2717 15.9446 16.5121 15.7044L17.5627 14.6539H19.1539L19.1538 15.8846ZM13 10.3462V7.88462C13 7.72144 12.9352 7.56484 12.8198 7.44946C12.7044 7.33407 12.5478 7.26924 12.3846 7.26924H9.92307C9.75988 7.26924 9.60329 7.33407 9.4879 7.44946C9.37252 7.56484 9.30768 7.72144 9.30768 7.88462V10.3462C9.30768 10.5093 9.37252 10.6659 9.4879 10.7813C9.60329 10.8967 9.75988 10.9615 9.92307 10.9615H12.3846C12.5478 10.9615 12.7044 10.8967 12.8198 10.7813C12.9352 10.6659 13 10.5093 13 10.3462ZM11.7692 9.73078H10.5385V8.50001H11.7692V9.73078ZM14.2308 8.50001C14.2308 8.33682 14.2956 8.18022 14.411 8.06484C14.5264 7.94946 14.683 7.88462 14.8461 7.88462H17.9231C18.2629 7.88462 18.5385 8.16017 18.5385 8.50001C18.5385 8.83984 18.2629 9.11539 17.9231 9.11539H14.8461C14.683 9.11539 14.5264 9.05056 14.411 8.93517C14.2956 8.81979 14.2308 8.66319 14.2308 8.50001ZM14.8461 9.73078H21.6154C21.9552 9.73078 22.2308 10.0063 22.2308 10.3462C22.2308 10.686 21.9552 10.9615 21.6154 10.9615H14.8461C14.5063 10.9615 14.2308 10.686 14.2308 10.3462C14.2308 10.0063 14.5063 9.73078 14.8461 9.73078ZM19.7692 23.2693H12.3846C12.2214 23.2693 12.0648 23.3341 11.9494 23.4495C11.8341 23.5649 11.7692 23.7215 11.7692 23.8846V26.3462C11.7692 26.5094 11.8341 26.666 11.9494 26.7813C12.0648 26.8967 12.2214 26.9616 12.3846 26.9616H19.7692C19.9324 26.9616 20.089 26.8967 20.2044 26.7813C20.3198 26.666 20.3846 26.5094 20.3846 26.3462V23.8846C20.3846 23.7215 20.3198 23.5649 20.2044 23.4495C20.089 23.3341 19.9324 23.2693 19.7692 23.2693ZM19.1538 25.7308H13V24.5H19.1538V25.7308Z" fill="#26C4F7"/>
</g>
<defs>
<clipPath id="clip0_2652_415">
<rect width="32" height="32" fill="white"/>
</clipPath>
</defs>
</svg>
