<svg width="27" height="26" viewBox="0 0 27 26" fill="none" xmlns="http://www.w3.org/2000/svg">
<path d="M13.1038 0.200012C5.97823 0.200012 0.200134 6.07555 0.200134 13.324C0.200134 19.1226 3.89742 24.0421 9.02444 25.7775C9.66933 25.8989 9.90608 25.4928 9.90608 25.1461C9.90608 24.8332 9.89412 23.7993 9.88856 22.7027C6.29875 23.4966 5.54126 21.1542 5.54126 21.1542C4.95428 19.6372 4.10854 19.2338 4.10854 19.2338C2.93779 18.4193 4.19679 18.436 4.19679 18.436C5.49254 18.5284 6.17482 19.7885 6.17482 19.7885C7.32569 21.7949 9.19346 21.2148 9.9298 20.8795C10.0456 20.0314 10.38 19.452 10.749 19.1245C7.88297 18.7927 4.87009 17.6673 4.87009 12.6385C4.87009 11.2056 5.37416 10.0349 6.1996 9.11579C6.06563 8.78501 5.62395 7.45038 6.32461 5.64263C6.32461 5.64263 7.40817 5.2899 9.87403 6.9879C10.9033 6.69712 12.0072 6.55129 13.1038 6.54629C14.2004 6.55129 15.3051 6.69712 16.3363 6.9879C18.7992 5.2899 19.8813 5.64263 19.8813 5.64263C20.5836 7.45038 20.1417 8.78501 20.0078 9.11579C20.8351 10.0349 21.3358 11.2056 21.3358 12.6385C21.3358 17.6793 18.3171 18.7892 15.4438 19.1141C15.9066 19.5214 16.319 20.3201 16.319 21.5445C16.319 23.3003 16.3041 24.7136 16.3041 25.1461C16.3041 25.4954 16.5363 25.9046 17.1904 25.7757C22.3146 24.0384 26.0072 19.1206 26.0072 13.324C26.0072 6.07555 20.23 0.200012 13.1038 0.200012Z" fill="white"/>
<path d="M5.08746 19.0432C5.05904 19.1087 4.95818 19.128 4.8663 19.0832C4.77271 19.0404 4.72014 18.9515 4.75049 18.8861C4.77827 18.819 4.87934 18.8005 4.97271 18.845C5.06652 18.8881 5.11994 18.9778 5.08746 19.0432Z" fill="white"/>
<path d="M5.60995 19.6361C5.54841 19.6942 5.42811 19.6672 5.34648 19.5755C5.26208 19.484 5.24626 19.3616 5.30866 19.3027C5.37212 19.2447 5.48879 19.2719 5.57341 19.3634C5.65781 19.456 5.67426 19.5774 5.60995 19.6361Z" fill="white"/>
<path d="M6.11882 20.392C6.03976 20.4479 5.91048 20.3955 5.83057 20.2788C5.75151 20.1621 5.75151 20.0221 5.83228 19.9661C5.91241 19.91 6.03976 19.9604 6.12074 20.0763C6.19959 20.1947 6.19959 20.3349 6.11882 20.392Z" fill="white"/>
<path d="M6.81583 21.1222C6.7451 21.2016 6.59446 21.1803 6.4842 21.072C6.37138 20.9662 6.33997 20.816 6.41091 20.7367C6.48249 20.6572 6.63399 20.6795 6.7451 20.7869C6.85707 20.8925 6.89126 21.0438 6.81583 21.1222Z" fill="white"/>
<path d="M7.77737 21.5462C7.74617 21.649 7.60108 21.6958 7.45493 21.6521C7.30898 21.6071 7.21347 21.4867 7.24296 21.3828C7.2733 21.2794 7.41903 21.2307 7.56625 21.2774C7.71198 21.3222 7.80771 21.4417 7.77737 21.5462Z" fill="white"/>
<path d="M8.83343 21.6249C8.83706 21.7331 8.71313 21.8229 8.55971 21.8246C8.40543 21.8283 8.28064 21.7407 8.27893 21.6342C8.27893 21.5249 8.40009 21.436 8.55436 21.4334C8.70779 21.4304 8.83343 21.5173 8.83343 21.6249Z" fill="white"/>
<path d="M9.81615 21.4547C9.83453 21.5604 9.7279 21.6688 9.57555 21.6975C9.42576 21.7255 9.28708 21.6603 9.26806 21.5556C9.24947 21.4474 9.35802 21.3389 9.5076 21.3109C9.66017 21.2839 9.79671 21.3474 9.81615 21.4547Z" fill="white"/>
</svg>
