<svg width="43" height="40" viewBox="0 0 43 40" fill="none" xmlns="http://www.w3.org/2000/svg">
<path d="M32.8461 1H9.46152C9.07396 1.00065 8.7027 1.15464 8.42867 1.42867C8.15465 1.70271 8.00065 2.07397 8 2.46152V37.5385C8.00065 37.926 8.15464 38.2973 8.42867 38.5713C8.70271 38.8453 9.07397 38.9993 9.46152 39H32.8461C33.2337 38.9993 33.605 38.8454 33.879 38.5713C34.153 38.2973 34.307 37.926 34.3077 37.5385V2.46152C34.307 2.07396 34.153 1.7027 33.879 1.42867C33.605 1.15465 33.2337 1.00065 32.8461 1ZM9.46152 37.5385V2.46154H32.8461L32.8475 37.5385H9.46152ZM31.3846 3.19231H24.8077C24.5633 3.19231 24.3353 3.31432 24.1996 3.51756L22.955 5.38458H19.3524L18.1081 3.51756C17.9724 3.31432 17.7444 3.19231 17.5 3.19231H10.9231C10.7293 3.19231 10.5434 3.2693 10.4064 3.40632C10.2693 3.54334 10.1923 3.7293 10.1923 3.92308V36.077C10.1923 36.2707 10.2693 36.4567 10.4064 36.5937C10.5434 36.7307 10.7293 36.8077 10.9231 36.8077H31.3847C31.5784 36.8077 31.7644 36.7307 31.9014 36.5937C32.0384 36.4567 32.1154 36.2707 32.1154 36.077V3.92308C32.1154 3.7293 32.0384 3.54334 31.9014 3.40632C31.7644 3.2693 31.5784 3.19231 31.3847 3.19231H31.3846ZM30.6538 35.3462H11.6538V4.65385H17.1088L18.3534 6.52086C18.4891 6.72411 18.7171 6.84612 18.9615 6.84612H23.3461C23.5904 6.84612 23.8185 6.72411 23.9542 6.52086L25.1987 4.65385H30.6537L30.6538 35.3462ZM20.4231 3.92308C20.4231 3.62751 20.6012 3.36097 20.8742 3.2481C21.1473 3.13489 21.4615 3.19721 21.6706 3.40632C21.8797 3.61544 21.942 3.9296 21.8288 4.20267C21.7159 4.47573 21.4494 4.65385 21.1538 4.65385C20.7503 4.65385 20.4231 4.32663 20.4231 3.92308ZM25.5385 16.3462H22.6154C22.4216 16.3462 22.2356 16.4232 22.0986 16.5602L21.1539 17.5049L20.2091 16.5602C20.0721 16.4232 19.8862 16.3462 19.6924 16.3462H16.7693C16.5755 16.3462 16.3896 16.4232 16.2525 16.5602C16.1155 16.6972 16.0385 16.8832 16.0385 17.0769V20C16.0385 20.1938 16.1155 20.3798 16.2525 20.5168C16.3896 20.6538 16.5755 20.7308 16.7693 20.7308H18.2308V24.3846C18.2308 24.5784 18.3078 24.7644 18.4449 24.9014C18.5819 25.0384 18.7678 25.1154 18.9616 25.1154H23.3462C23.54 25.1154 23.726 25.0384 23.863 24.9014C24 24.7644 24.077 24.5784 24.077 24.3846V20.7308H25.5385C25.7323 20.7308 25.9183 20.6538 26.0553 20.5168C26.1923 20.3798 26.2693 20.1938 26.2693 20V17.0769C26.2693 16.8832 26.1923 16.6972 26.0553 16.5602C25.9183 16.4232 25.7323 16.3462 25.5385 16.3462H25.5385ZM24.8077 19.2692H23.3461C23.1524 19.2692 22.9664 19.3462 22.8294 19.4833C22.6924 19.6203 22.6154 19.8062 22.6154 20V23.6539H19.6923V20C19.6923 19.8062 19.6153 19.6203 19.4783 19.4833C19.3413 19.3462 19.1553 19.2692 18.9615 19.2692H17.5V17.8077H19.3895L20.6371 19.0553C20.9226 19.3404 21.3852 19.3404 21.6706 19.0553L22.9182 17.8077H24.8078L24.8077 19.2692ZM17.5 12.6923V9.76924C17.5 9.57545 17.423 9.3895 17.286 9.25248C17.149 9.11546 16.963 9.03847 16.7692 9.03847H13.8461C13.6524 9.03847 13.4664 9.11546 13.3294 9.25248C13.1924 9.3895 13.1154 9.57545 13.1154 9.76924V12.6923C13.1154 12.8861 13.1924 13.0721 13.3294 13.2091C13.4664 13.3461 13.6524 13.4231 13.8461 13.4231H16.7692C16.963 13.4231 17.149 13.3461 17.286 13.2091C17.423 13.0721 17.5 12.8861 17.5 12.6923ZM16.0384 11.9615H14.5769V10.5H16.0384V11.9615ZM18.9615 10.5C18.9615 10.3062 19.0385 10.1203 19.1755 9.98325C19.3126 9.84623 19.4985 9.76924 19.6923 9.76924H23.3461C23.7497 9.76924 24.0769 10.0965 24.0769 10.5C24.0769 10.9036 23.7497 11.2308 23.3461 11.2308H19.6923C19.4985 11.2308 19.3126 11.1538 19.1755 11.0168C19.0385 10.8797 18.9615 10.6938 18.9615 10.5ZM19.6923 11.9615H27.7308C28.1343 11.9615 28.4615 12.2888 28.4615 12.6923C28.4615 13.0959 28.1343 13.4231 27.7308 13.4231H19.6923C19.2887 13.4231 18.9615 13.0959 18.9615 12.6923C18.9615 12.2888 19.2887 11.9615 19.6923 11.9615ZM25.5385 28.0385H16.7692C16.5754 28.0385 16.3895 28.1155 16.2525 28.2525C16.1154 28.3895 16.0384 28.5755 16.0384 28.7693V31.6923C16.0384 31.8861 16.1154 32.0721 16.2525 32.2091C16.3895 32.3461 16.5754 32.4231 16.7692 32.4231H25.5385C25.7322 32.4231 25.9182 32.3461 26.0552 32.2091C26.1922 32.0721 26.2692 31.8861 26.2692 31.6923V28.7693C26.2692 28.5755 26.1922 28.3895 26.0552 28.2525C25.9182 28.1155 25.7322 28.0385 25.5385 28.0385ZM24.8077 30.9616H17.5V29.5H24.8077V30.9616Z" fill="#26C4F7"/>
</svg>
