<svg width="43" height="40" viewBox="0 0 43 40" fill="none" xmlns="http://www.w3.org/2000/svg">
<path d="M40.0003 20C40.0034 22.4946 39.5143 24.9652 38.5609 27.2704C37.6074 29.5756 36.2084 31.67 34.444 33.4335C32.6788 35.1991 30.5829 36.5995 28.2761 37.5546C25.9694 38.5098 23.497 39.0009 21.0003 39C18.3132 39.0059 15.6557 38.4387 13.2051 37.3362L5.26213 38.5111C4.86776 38.5755 4.46362 38.5426 4.08483 38.4154C3.70603 38.2881 3.36404 38.0703 3.08855 37.7808C2.81306 37.4914 2.6124 37.139 2.50401 36.7544C2.39562 36.3698 2.38276 35.9645 2.46657 35.5738L3.56959 27.5158C2.52037 25.1498 1.98548 22.5881 2.0003 20C1.99711 17.5054 2.48625 15.0347 3.4397 12.7295C4.39314 10.4243 5.79214 8.32998 7.55651 6.56648C9.32174 4.80085 11.4176 3.40045 13.7244 2.44531C16.0312 1.49018 18.5036 0.99905 21.0003 1C26.0422 1.00034 30.8777 3.00251 34.444 6.56648C36.2075 8.33066 37.6059 10.4251 38.5593 12.7302C39.5127 15.0352 40.0023 17.5056 40.0003 20Z" stroke="#26C4F7" stroke-width="2" stroke-linecap="round" stroke-linejoin="round"/>
<path d="M31.2982 24.7328C31.1984 24.6125 31.1004 24.4923 31.0042 24.3762C29.6814 22.7762 28.8812 21.8106 28.8812 17.2813C28.8812 14.9363 28.3202 13.0123 27.2145 11.5692C26.3991 10.5032 25.297 9.6945 23.8444 9.09684C23.8257 9.08645 23.809 9.0728 23.7951 9.05656C23.2726 7.30688 21.8427 6.13501 20.2302 6.13501C18.6176 6.13501 17.1883 7.30688 16.6658 9.05476C16.6519 9.07043 16.6355 9.08364 16.6171 9.09384C13.2272 10.4894 11.5797 13.1668 11.5797 17.2795C11.5797 21.8106 10.7807 22.7762 9.45667 24.3744C9.36047 24.4904 9.26247 24.6083 9.16265 24.731C8.90483 25.0419 8.74148 25.4202 8.69193 25.821C8.64238 26.2219 8.70871 26.6286 8.88307 26.9929C9.25405 27.7746 10.0447 28.2598 10.9472 28.2598H29.5197C30.418 28.2598 31.2032 27.7752 31.5754 26.9971C31.7505 26.6327 31.8175 26.2257 31.7684 25.8244C31.7192 25.423 31.5561 25.0442 31.2982 24.7328ZM20.2302 33.0717C21.099 33.071 21.9515 32.8352 22.6971 32.3892C23.4428 31.9432 24.0538 31.3037 24.4655 30.5386C24.4849 30.5019 24.4944 30.4608 24.4933 30.4194C24.4921 30.3779 24.4802 30.3375 24.4588 30.3019C24.4374 30.2664 24.4071 30.237 24.371 30.2167C24.3349 30.1963 24.2941 30.1856 24.2526 30.1856H16.2089C16.1674 30.1855 16.1265 30.1961 16.0903 30.2164C16.0541 30.2368 16.0237 30.2661 16.0022 30.3017C15.9808 30.3372 15.9688 30.3777 15.9676 30.4192C15.9664 30.4607 15.976 30.5019 15.9954 30.5386C16.407 31.3036 17.018 31.9431 17.7635 32.389C18.5091 32.835 19.3614 33.0709 20.2302 33.0717Z" fill="#26C4F7"/>
</svg>
