<svg width="32" height="32" viewBox="0 0 32 32" fill="none" xmlns="http://www.w3.org/2000/svg">
<g clip-path="url(#clip0_1646_4153)">
<path d="M19.6517 4.59551L17.9663 1L14.0337 1.11236L12.236 4.48315L10.4382 5.38202L6.8427 4.03371L4.03371 6.8427L5.1573 10.5506L4.59551 12.3483L1 14.0337L1.11236 17.9663L4.48315 19.764L5.38202 21.5618L4.03371 25.1573L6.8427 27.9663L10.5506 26.8427L12.3483 27.5169L14.0337 31H17.9663L19.764 27.5169L21.5618 26.7303L25.1573 27.9663L27.9663 25.1573L26.8427 21.5618L27.5169 19.6517L31 17.9663V14.0337L27.5169 12.236L26.7303 10.4382L27.9663 6.8427L25.1573 4.03371L21.5618 5.1573L19.6517 4.59551Z" stroke="#26C4F7" stroke-width="1.5"/>
<path d="M12.2105 17.8105V11.3684H14.7368V17.8105L13.4737 16.6316L12.2105 17.8105ZM16.4211 19.0737V8H18.9474V16.5474L16.4211 19.0737ZM8 21.9789V14.7368H10.5263V19.4526L8 21.9789ZM8 24.0421L13.4316 18.6105L16.4211 21.1789L21.1368 16.4632H19.7895V14.7789H24V18.9895H22.3158V17.6421L16.5053 23.4526L13.5158 20.8842L10.3579 24.0421H8Z" fill="#26C4F7"/>
</g>
<defs>
<clipPath id="clip0_1646_4153">
<rect width="32" height="32" fill="white"/>
</clipPath>
</defs>
</svg>
