<svg width="145" height="145" viewBox="0 0 145 145" fill="none" xmlns="http://www.w3.org/2000/svg">
<mask id="path-1-outside-1_171_510" maskUnits="userSpaceOnUse" x="8.0625" y="17.125" width="129" height="111" fill="black">
<rect fill="white" x="8.0625" y="17.125" width="129" height="111"/>
<path d="M135.938 55.415C135.938 50.7186 127.986 47.1748 117.443 47.1748C111 47.1748 105.53 48.5007 102.246 50.6009L102.247 45.7131C102.246 45.5766 102.227 45.44 102.187 45.308C102.225 45.0744 102.245 44.8382 102.247 44.601V36.0294C102.246 35.8929 102.227 35.7563 102.187 35.6243C102.225 35.3907 102.244 35.1544 102.247 34.9173V26.3652C102.247 21.667 94.296 18.125 83.7525 18.125C73.2088 18.125 65.261 21.6661 65.261 26.3652V30.7921C61.977 28.6919 56.5067 27.3661 50.0641 27.3661C39.5204 27.3661 31.5695 30.9071 31.5695 35.6063V44.1708L31.5705 44.1717C31.5725 44.4079 31.5929 44.6442 31.6328 44.8777C31.5929 45.0098 31.5715 45.1464 31.5705 45.2829V53.8474C31.5715 54.0845 31.5929 54.3208 31.6328 54.5543C31.5929 54.6864 31.5715 54.822 31.5705 54.9595V64.769H21.1717C20.2654 64.7753 19.536 65.4562 19.538 66.2935V76.5657H10.7128C9.80157 76.5657 9.0625 77.2475 9.0625 78.0901V125.353C9.0625 125.757 9.23657 126.145 9.54582 126.429C9.85507 126.715 10.2752 126.875 10.7128 126.875H90.1241C90.5617 126.875 90.9808 126.715 91.2911 126.429C91.6003 126.145 91.7744 125.757 91.7744 125.353V115.088H100.586C101.023 115.088 101.443 114.927 101.751 114.642C102.06 114.355 102.233 113.968 102.233 113.564V98.0597C105.517 100.263 110.988 101.651 117.43 101.651C127.974 101.651 135.925 97.9357 135.925 93.0112L135.924 84.4439C135.923 84.3074 135.904 84.1718 135.864 84.0397C135.902 83.8062 135.922 83.5708 135.924 83.3354V74.7654C135.924 74.628 135.904 74.4923 135.862 74.3603C135.902 74.1267 135.922 73.8905 135.924 73.6533V65.1012C135.924 64.9647 135.904 64.8282 135.862 64.697C135.902 64.4626 135.922 64.2263 135.924 63.99L135.938 55.415ZM132.64 83.3355C132.64 85.9765 126.14 88.9293 117.443 88.9293C108.746 88.9293 102.246 85.9765 102.246 83.3355V78.7074C105.517 80.9101 110.988 82.3115 117.422 82.3115C123.856 82.3115 129.334 80.9227 132.618 78.7201L132.64 83.3355ZM117.422 69.5742C108.725 69.5742 102.225 66.6214 102.225 63.9804V60.2299C105.509 62.3328 110.979 63.656 117.422 63.656C123.864 63.656 129.334 62.3327 132.618 60.2324V63.9802C132.626 66.6212 126.135 69.574 117.422 69.574V69.5742ZM83.7381 59.875C75.0441 59.875 68.5442 56.9223 68.5442 54.2785V49.6532C71.8281 51.854 77.2984 53.2428 83.7381 53.2428C90.1778 53.2428 95.651 51.854 98.935 49.6532V54.2785C98.935 56.9223 92.435 59.875 83.7381 59.875ZM98.935 44.6019C98.935 47.2429 92.435 50.1957 83.7381 50.1957C75.0411 50.1957 68.5442 47.2429 68.5442 44.6019V39.9738C71.8281 42.1774 77.2984 43.5652 83.7381 43.5652C90.1778 43.5652 95.651 42.1764 98.935 39.9738V44.6019ZM98.935 34.9253C98.935 37.5663 92.435 40.5191 83.7381 40.5191C75.0411 40.5191 68.5442 37.5663 68.5442 34.9253V31.1757C71.8281 33.2786 77.2984 34.6017 83.7381 34.6017C90.1778 34.6017 95.651 33.2785 98.935 31.1757V34.9253ZM65.2465 44.1726C65.2465 46.8135 58.7466 49.7663 50.0497 49.7663C41.3527 49.7663 34.8528 46.8135 34.8528 44.1726L34.8537 40.422C38.1377 42.5223 43.608 43.8481 50.0506 43.8481C56.4933 43.8481 61.9636 42.5222 65.2475 40.422L65.2465 44.1726ZM34.8543 49.2201C38.1382 51.4237 43.6085 52.8116 50.0512 52.8116C56.4938 52.8116 61.9641 51.4228 65.248 49.2201V53.8483C65.248 56.4892 58.7481 59.442 50.0512 59.442C41.3542 59.442 34.8543 56.4892 34.8543 53.8483V49.2201ZM68.5452 59.3289C71.8291 61.5297 77.2994 62.9203 83.7391 62.9203C90.1788 62.9203 95.652 61.5297 98.936 59.3289V63.9804C98.9379 64.2167 98.9583 64.453 98.9982 64.6865C98.9982 64.7171 98.9788 64.7467 98.971 64.7773H68.5463L68.5452 59.3289ZM132.626 73.666C132.626 76.307 126.126 79.2625 117.429 79.2625C108.732 79.2625 102.232 76.307 102.232 73.666V69.0379C105.516 71.2415 110.986 72.6293 117.429 72.6293C123.872 72.6293 129.342 71.2405 132.626 69.0379V73.666ZM117.421 50.2207C126.837 50.2207 132.618 53.2391 132.618 55.4148C132.618 57.5905 126.845 60.6089 117.421 60.6089C107.997 60.6089 102.224 57.5905 102.224 55.4148C102.224 53.2391 108.014 50.2207 117.421 50.2207ZM83.7378 21.1665C93.1533 21.1665 98.9347 24.1849 98.9347 26.3606C98.9347 28.5363 93.1533 31.5547 83.7378 31.5547C74.3224 31.5547 68.5439 28.5363 68.5439 26.3606C68.5439 24.1849 74.3244 21.1665 83.7378 21.1665ZM50.0494 30.4129C59.4648 30.4129 65.2463 33.4312 65.2463 35.6069C65.2463 37.7826 59.4658 40.8081 50.0494 40.8081C40.634 40.8081 34.8525 37.7898 34.8525 35.6141C34.8535 33.4384 40.634 30.4129 50.0494 30.4129ZM34.8535 58.8991C38.1375 61.0999 43.6077 62.4886 50.0504 62.4886C56.4931 62.4886 61.9633 61.0998 65.2473 58.8991V64.7775L34.8525 64.7766L34.8535 58.8991ZM24.1796 79.6197C22.7443 82.8142 19.1393 88.9037 12.3593 89.5704V79.6197H24.1796ZM73.1115 79.6197C74.3534 82.8698 78.6858 91.9724 88.4767 92.6417V110.822C78.6604 111.504 74.3446 120.591 73.1115 123.836H27.7272C26.4961 120.591 22.192 111.496 12.3593 110.822V92.6417C22.1618 91.9724 26.4834 82.8698 27.7245 79.6197H73.1115ZM88.4767 89.5649C81.7024 88.8831 78.0965 82.8059 76.6591 79.6197H88.4767V89.5649ZM12.359 113.884C19.1363 114.531 22.7442 120.643 24.1794 123.837L12.359 123.836V113.884ZM76.6564 123.837C78.0917 120.643 81.6997 114.531 88.4767 113.884V123.837H76.6564ZM98.9357 112.043H91.7743V78.0978C91.7743 77.6935 91.6003 77.3054 91.291 77.0198C90.9818 76.7341 90.5616 76.5733 90.124 76.5733H22.8194V67.8228H98.937L98.9357 112.043ZM117.422 98.6054C108.725 98.6054 102.225 95.6526 102.225 93.0117V88.3836C105.509 90.5871 110.979 91.975 117.422 91.975C123.864 91.975 129.334 90.5862 132.618 88.3836V93.0117C132.626 95.6427 126.135 98.6054 117.422 98.6054Z"/>
</mask>
<path d="M135.938 55.415C135.938 50.7186 127.986 47.1748 117.443 47.1748C111 47.1748 105.53 48.5007 102.246 50.6009L102.247 45.7131C102.246 45.5766 102.227 45.44 102.187 45.308C102.225 45.0744 102.245 44.8382 102.247 44.601V36.0294C102.246 35.8929 102.227 35.7563 102.187 35.6243C102.225 35.3907 102.244 35.1544 102.247 34.9173V26.3652C102.247 21.667 94.296 18.125 83.7525 18.125C73.2088 18.125 65.261 21.6661 65.261 26.3652V30.7921C61.977 28.6919 56.5067 27.3661 50.0641 27.3661C39.5204 27.3661 31.5695 30.9071 31.5695 35.6063V44.1708L31.5705 44.1717C31.5725 44.4079 31.5929 44.6442 31.6328 44.8777C31.5929 45.0098 31.5715 45.1464 31.5705 45.2829V53.8474C31.5715 54.0845 31.5929 54.3208 31.6328 54.5543C31.5929 54.6864 31.5715 54.822 31.5705 54.9595V64.769H21.1717C20.2654 64.7753 19.536 65.4562 19.538 66.2935V76.5657H10.7128C9.80157 76.5657 9.0625 77.2475 9.0625 78.0901V125.353C9.0625 125.757 9.23657 126.145 9.54582 126.429C9.85507 126.715 10.2752 126.875 10.7128 126.875H90.1241C90.5617 126.875 90.9808 126.715 91.2911 126.429C91.6003 126.145 91.7744 125.757 91.7744 125.353V115.088H100.586C101.023 115.088 101.443 114.927 101.751 114.642C102.06 114.355 102.233 113.968 102.233 113.564V98.0597C105.517 100.263 110.988 101.651 117.43 101.651C127.974 101.651 135.925 97.9357 135.925 93.0112L135.924 84.4439C135.923 84.3074 135.904 84.1718 135.864 84.0397C135.902 83.8062 135.922 83.5708 135.924 83.3354V74.7654C135.924 74.628 135.904 74.4923 135.862 74.3603C135.902 74.1267 135.922 73.8905 135.924 73.6533V65.1012C135.924 64.9647 135.904 64.8282 135.862 64.697C135.902 64.4626 135.922 64.2263 135.924 63.99L135.938 55.415ZM132.64 83.3355C132.64 85.9765 126.14 88.9293 117.443 88.9293C108.746 88.9293 102.246 85.9765 102.246 83.3355V78.7074C105.517 80.9101 110.988 82.3115 117.422 82.3115C123.856 82.3115 129.334 80.9227 132.618 78.7201L132.64 83.3355ZM117.422 69.5742C108.725 69.5742 102.225 66.6214 102.225 63.9804V60.2299C105.509 62.3328 110.979 63.656 117.422 63.656C123.864 63.656 129.334 62.3327 132.618 60.2324V63.9802C132.626 66.6212 126.135 69.574 117.422 69.574V69.5742ZM83.7381 59.875C75.0441 59.875 68.5442 56.9223 68.5442 54.2785V49.6532C71.8281 51.854 77.2984 53.2428 83.7381 53.2428C90.1778 53.2428 95.651 51.854 98.935 49.6532V54.2785C98.935 56.9223 92.435 59.875 83.7381 59.875ZM98.935 44.6019C98.935 47.2429 92.435 50.1957 83.7381 50.1957C75.0411 50.1957 68.5442 47.2429 68.5442 44.6019V39.9738C71.8281 42.1774 77.2984 43.5652 83.7381 43.5652C90.1778 43.5652 95.651 42.1764 98.935 39.9738V44.6019ZM98.935 34.9253C98.935 37.5663 92.435 40.5191 83.7381 40.5191C75.0411 40.5191 68.5442 37.5663 68.5442 34.9253V31.1757C71.8281 33.2786 77.2984 34.6017 83.7381 34.6017C90.1778 34.6017 95.651 33.2785 98.935 31.1757V34.9253ZM65.2465 44.1726C65.2465 46.8135 58.7466 49.7663 50.0497 49.7663C41.3527 49.7663 34.8528 46.8135 34.8528 44.1726L34.8537 40.422C38.1377 42.5223 43.608 43.8481 50.0506 43.8481C56.4933 43.8481 61.9636 42.5222 65.2475 40.422L65.2465 44.1726ZM34.8543 49.2201C38.1382 51.4237 43.6085 52.8116 50.0512 52.8116C56.4938 52.8116 61.9641 51.4228 65.248 49.2201V53.8483C65.248 56.4892 58.7481 59.442 50.0512 59.442C41.3542 59.442 34.8543 56.4892 34.8543 53.8483V49.2201ZM68.5452 59.3289C71.8291 61.5297 77.2994 62.9203 83.7391 62.9203C90.1788 62.9203 95.652 61.5297 98.936 59.3289V63.9804C98.9379 64.2167 98.9583 64.453 98.9982 64.6865C98.9982 64.7171 98.9788 64.7467 98.971 64.7773H68.5463L68.5452 59.3289ZM132.626 73.666C132.626 76.307 126.126 79.2625 117.429 79.2625C108.732 79.2625 102.232 76.307 102.232 73.666V69.0379C105.516 71.2415 110.986 72.6293 117.429 72.6293C123.872 72.6293 129.342 71.2405 132.626 69.0379V73.666ZM117.421 50.2207C126.837 50.2207 132.618 53.2391 132.618 55.4148C132.618 57.5905 126.845 60.6089 117.421 60.6089C107.997 60.6089 102.224 57.5905 102.224 55.4148C102.224 53.2391 108.014 50.2207 117.421 50.2207ZM83.7378 21.1665C93.1533 21.1665 98.9347 24.1849 98.9347 26.3606C98.9347 28.5363 93.1533 31.5547 83.7378 31.5547C74.3224 31.5547 68.5439 28.5363 68.5439 26.3606C68.5439 24.1849 74.3244 21.1665 83.7378 21.1665ZM50.0494 30.4129C59.4648 30.4129 65.2463 33.4312 65.2463 35.6069C65.2463 37.7826 59.4658 40.8081 50.0494 40.8081C40.634 40.8081 34.8525 37.7898 34.8525 35.6141C34.8535 33.4384 40.634 30.4129 50.0494 30.4129ZM34.8535 58.8991C38.1375 61.0999 43.6077 62.4886 50.0504 62.4886C56.4931 62.4886 61.9633 61.0998 65.2473 58.8991V64.7775L34.8525 64.7766L34.8535 58.8991ZM24.1796 79.6197C22.7443 82.8142 19.1393 88.9037 12.3593 89.5704V79.6197H24.1796ZM73.1115 79.6197C74.3534 82.8698 78.6858 91.9724 88.4767 92.6417V110.822C78.6604 111.504 74.3446 120.591 73.1115 123.836H27.7272C26.4961 120.591 22.192 111.496 12.3593 110.822V92.6417C22.1618 91.9724 26.4834 82.8698 27.7245 79.6197H73.1115ZM88.4767 89.5649C81.7024 88.8831 78.0965 82.8059 76.6591 79.6197H88.4767V89.5649ZM12.359 113.884C19.1363 114.531 22.7442 120.643 24.1794 123.837L12.359 123.836V113.884ZM76.6564 123.837C78.0917 120.643 81.6997 114.531 88.4767 113.884V123.837H76.6564ZM98.9357 112.043H91.7743V78.0978C91.7743 77.6935 91.6003 77.3054 91.291 77.0198C90.9818 76.7341 90.5616 76.5733 90.124 76.5733H22.8194V67.8228H98.937L98.9357 112.043ZM117.422 98.6054C108.725 98.6054 102.225 95.6526 102.225 93.0117V88.3836C105.509 90.5871 110.979 91.975 117.422 91.975C123.864 91.975 129.334 90.5862 132.618 88.3836V93.0117C132.626 95.6427 126.135 98.6054 117.422 98.6054Z" fill="white"/>
<path d="M135.938 55.415C135.938 50.7186 127.986 47.1748 117.443 47.1748C111 47.1748 105.53 48.5007 102.246 50.6009L102.247 45.7131C102.246 45.5766 102.227 45.44 102.187 45.308C102.225 45.0744 102.245 44.8382 102.247 44.601V36.0294C102.246 35.8929 102.227 35.7563 102.187 35.6243C102.225 35.3907 102.244 35.1544 102.247 34.9173V26.3652C102.247 21.667 94.296 18.125 83.7525 18.125C73.2088 18.125 65.261 21.6661 65.261 26.3652V30.7921C61.977 28.6919 56.5067 27.3661 50.0641 27.3661C39.5204 27.3661 31.5695 30.9071 31.5695 35.6063V44.1708L31.5705 44.1717C31.5725 44.4079 31.5929 44.6442 31.6328 44.8777C31.5929 45.0098 31.5715 45.1464 31.5705 45.2829V53.8474C31.5715 54.0845 31.5929 54.3208 31.6328 54.5543C31.5929 54.6864 31.5715 54.822 31.5705 54.9595V64.769H21.1717C20.2654 64.7753 19.536 65.4562 19.538 66.2935V76.5657H10.7128C9.80157 76.5657 9.0625 77.2475 9.0625 78.0901V125.353C9.0625 125.757 9.23657 126.145 9.54582 126.429C9.85507 126.715 10.2752 126.875 10.7128 126.875H90.1241C90.5617 126.875 90.9808 126.715 91.2911 126.429C91.6003 126.145 91.7744 125.757 91.7744 125.353V115.088H100.586C101.023 115.088 101.443 114.927 101.751 114.642C102.06 114.355 102.233 113.968 102.233 113.564V98.0597C105.517 100.263 110.988 101.651 117.43 101.651C127.974 101.651 135.925 97.9357 135.925 93.0112L135.924 84.4439C135.923 84.3074 135.904 84.1718 135.864 84.0397C135.902 83.8062 135.922 83.5708 135.924 83.3354V74.7654C135.924 74.628 135.904 74.4923 135.862 74.3603C135.902 74.1267 135.922 73.8905 135.924 73.6533V65.1012C135.924 64.9647 135.904 64.8282 135.862 64.697C135.902 64.4626 135.922 64.2263 135.924 63.99L135.938 55.415ZM132.64 83.3355C132.64 85.9765 126.14 88.9293 117.443 88.9293C108.746 88.9293 102.246 85.9765 102.246 83.3355V78.7074C105.517 80.9101 110.988 82.3115 117.422 82.3115C123.856 82.3115 129.334 80.9227 132.618 78.7201L132.64 83.3355ZM117.422 69.5742C108.725 69.5742 102.225 66.6214 102.225 63.9804V60.2299C105.509 62.3328 110.979 63.656 117.422 63.656C123.864 63.656 129.334 62.3327 132.618 60.2324V63.9802C132.626 66.6212 126.135 69.574 117.422 69.574V69.5742ZM83.7381 59.875C75.0441 59.875 68.5442 56.9223 68.5442 54.2785V49.6532C71.8281 51.854 77.2984 53.2428 83.7381 53.2428C90.1778 53.2428 95.651 51.854 98.935 49.6532V54.2785C98.935 56.9223 92.435 59.875 83.7381 59.875ZM98.935 44.6019C98.935 47.2429 92.435 50.1957 83.7381 50.1957C75.0411 50.1957 68.5442 47.2429 68.5442 44.6019V39.9738C71.8281 42.1774 77.2984 43.5652 83.7381 43.5652C90.1778 43.5652 95.651 42.1764 98.935 39.9738V44.6019ZM98.935 34.9253C98.935 37.5663 92.435 40.5191 83.7381 40.5191C75.0411 40.5191 68.5442 37.5663 68.5442 34.9253V31.1757C71.8281 33.2786 77.2984 34.6017 83.7381 34.6017C90.1778 34.6017 95.651 33.2785 98.935 31.1757V34.9253ZM65.2465 44.1726C65.2465 46.8135 58.7466 49.7663 50.0497 49.7663C41.3527 49.7663 34.8528 46.8135 34.8528 44.1726L34.8537 40.422C38.1377 42.5223 43.608 43.8481 50.0506 43.8481C56.4933 43.8481 61.9636 42.5222 65.2475 40.422L65.2465 44.1726ZM34.8543 49.2201C38.1382 51.4237 43.6085 52.8116 50.0512 52.8116C56.4938 52.8116 61.9641 51.4228 65.248 49.2201V53.8483C65.248 56.4892 58.7481 59.442 50.0512 59.442C41.3542 59.442 34.8543 56.4892 34.8543 53.8483V49.2201ZM68.5452 59.3289C71.8291 61.5297 77.2994 62.9203 83.7391 62.9203C90.1788 62.9203 95.652 61.5297 98.936 59.3289V63.9804C98.9379 64.2167 98.9583 64.453 98.9982 64.6865C98.9982 64.7171 98.9788 64.7467 98.971 64.7773H68.5463L68.5452 59.3289ZM132.626 73.666C132.626 76.307 126.126 79.2625 117.429 79.2625C108.732 79.2625 102.232 76.307 102.232 73.666V69.0379C105.516 71.2415 110.986 72.6293 117.429 72.6293C123.872 72.6293 129.342 71.2405 132.626 69.0379V73.666ZM117.421 50.2207C126.837 50.2207 132.618 53.2391 132.618 55.4148C132.618 57.5905 126.845 60.6089 117.421 60.6089C107.997 60.6089 102.224 57.5905 102.224 55.4148C102.224 53.2391 108.014 50.2207 117.421 50.2207ZM83.7378 21.1665C93.1533 21.1665 98.9347 24.1849 98.9347 26.3606C98.9347 28.5363 93.1533 31.5547 83.7378 31.5547C74.3224 31.5547 68.5439 28.5363 68.5439 26.3606C68.5439 24.1849 74.3244 21.1665 83.7378 21.1665ZM50.0494 30.4129C59.4648 30.4129 65.2463 33.4312 65.2463 35.6069C65.2463 37.7826 59.4658 40.8081 50.0494 40.8081C40.634 40.8081 34.8525 37.7898 34.8525 35.6141C34.8535 33.4384 40.634 30.4129 50.0494 30.4129ZM34.8535 58.8991C38.1375 61.0999 43.6077 62.4886 50.0504 62.4886C56.4931 62.4886 61.9633 61.0998 65.2473 58.8991V64.7775L34.8525 64.7766L34.8535 58.8991ZM24.1796 79.6197C22.7443 82.8142 19.1393 88.9037 12.3593 89.5704V79.6197H24.1796ZM73.1115 79.6197C74.3534 82.8698 78.6858 91.9724 88.4767 92.6417V110.822C78.6604 111.504 74.3446 120.591 73.1115 123.836H27.7272C26.4961 120.591 22.192 111.496 12.3593 110.822V92.6417C22.1618 91.9724 26.4834 82.8698 27.7245 79.6197H73.1115ZM88.4767 89.5649C81.7024 88.8831 78.0965 82.8059 76.6591 79.6197H88.4767V89.5649ZM12.359 113.884C19.1363 114.531 22.7442 120.643 24.1794 123.837L12.359 123.836V113.884ZM76.6564 123.837C78.0917 120.643 81.6997 114.531 88.4767 113.884V123.837H76.6564ZM98.9357 112.043H91.7743V78.0978C91.7743 77.6935 91.6003 77.3054 91.291 77.0198C90.9818 76.7341 90.5616 76.5733 90.124 76.5733H22.8194V67.8228H98.937L98.9357 112.043ZM117.422 98.6054C108.725 98.6054 102.225 95.6526 102.225 93.0117V88.3836C105.509 90.5871 110.979 91.975 117.422 91.975C123.864 91.975 129.334 90.5862 132.618 88.3836V93.0117C132.626 95.6427 126.135 98.6054 117.422 98.6054Z" stroke="white" stroke-width="1.8125" mask="url(#path-1-outside-1_171_510)"/>
</svg>
