<svg width="123" height="138" viewBox="0 0 123 138" fill="none" xmlns="http://www.w3.org/2000/svg">
<path fill-rule="evenodd" clip-rule="evenodd" d="M101.613 45.385C101.613 66.8696 84.1967 84.2864 62.7121 84.2864C41.2274 84.2864 23.8107 66.8696 23.8107 45.385C23.8107 23.9003 41.2274 6.48357 62.7121 6.48357C75.624 6.48357 83.1731 8.67429 90.249 18.358L95.0183 13.9062C86.7316 2.96683 77.4939 0 62.7121 0C37.6466 0 17.3271 20.3195 17.3271 45.385C17.3271 70.4504 37.6466 90.77 62.7121 90.77C87.7775 90.77 108.097 70.4504 108.097 45.385C108.097 39.5261 107.569 37.2679 105.547 32.1264L100.384 36.9593C101.561 40.6715 101.613 41.2834 101.613 45.385Z" fill="white"/>
<path d="M47.1518 36.7413C44.7592 34.4374 40.8919 34.4374 38.4994 36.7413C36.1068 39.0453 36.1068 42.7694 38.4994 45.0734L57.6309 62.7247C58.8241 63.8738 60.3906 64.4512 61.9571 64.4512C63.5236 64.4512 65.0901 63.8738 66.2833 62.7247L116.011 16.1794C118.403 13.8754 118.403 10.1513 116.011 7.84737C113.618 5.54339 109.751 5.54339 107.358 7.84737L61.9571 50.2267L47.1518 36.7413Z" fill="white"/>
<path d="M1.98934 118.858C3.67006 117.61 29.5837 82.2622 32.2359 78.9963C32.2359 78.9963 39.9474 85.6664 43.327 87.0745C46.5374 88.4121 56.4809 90.3247 56.4809 90.3247L38.3366 137.834L30.0749 112.544C20.4447 114.009 3.32847 118.504 1.98934 118.858C1.94145 118.893 1.91323 118.901 1.90579 118.88C1.90579 118.88 1.93418 118.872 1.98934 118.858Z" fill="white"/>
<path d="M32.2359 78.9963C29.5081 82.3552 2.17445 119.65 1.90579 118.88C1.90579 118.88 20.0481 114.069 30.0749 112.544L38.3366 137.834L56.4809 90.3247C56.4809 90.3247 46.5374 88.4121 43.327 87.0745C39.9474 85.6664 32.2359 78.9963 32.2359 78.9963Z" stroke="white" stroke-width="1.01989"/>
<path d="M121.564 118.653C119.883 117.406 93.9693 82.0578 91.317 78.792C91.317 78.792 83.6056 85.4621 80.2259 86.8702C77.0155 88.2077 67.072 90.1204 67.072 90.1204L85.2163 137.63L93.478 112.34C103.108 113.804 120.224 118.3 121.564 118.653C121.611 118.689 121.64 118.697 121.647 118.676C121.647 118.676 121.619 118.668 121.564 118.653Z" fill="white"/>
<path d="M91.317 78.792C94.0448 82.1509 121.378 119.446 121.647 118.676C121.647 118.676 103.505 113.865 93.478 112.34L85.2163 137.63L67.072 90.1204C67.072 90.1204 77.0155 88.2077 80.2259 86.8702C83.6056 85.4621 91.317 78.792 91.317 78.792Z" stroke="white" stroke-width="1.01989"/>
</svg>
