<svg width="43" height="40" viewBox="0 0 43 40" fill="none" xmlns="http://www.w3.org/2000/svg">
<path d="M9 0.75H23.542C23.8595 0.75 24.1658 0.870713 24.3975 1.08789L34.7441 10.7881C34.996 11.0244 35.1387 11.3548 35.1387 11.7002V37C35.1387 37.6904 34.579 38.25 33.8887 38.25H9C8.30965 38.25 7.75 37.6904 7.75 37V2C7.75 1.30964 8.30964 0.75 9 0.75Z" stroke="#26C4F7" stroke-width="1.5"/>
<path d="M22.1665 8.66772C21.5905 8.66772 21.1231 9.13508 21.1231 9.71105V10.754C16.5205 10.754 12.7776 14.497 12.7776 19.0996C12.7776 23.7022 16.5205 27.4451 21.1231 27.4451C25.7258 27.4451 29.4687 23.7022 29.4687 19.0996H30.512C31.088 19.0996 31.5554 18.6322 31.5554 18.0563C31.5554 12.8801 27.343 8.66772 22.1665 8.66772ZM21.1231 25.3594C17.6722 25.3594 14.8639 22.5511 14.8639 19.1001C14.8639 15.6491 17.6722 12.8409 21.1231 12.8409V18.0568C21.1231 18.6328 21.5905 19.1001 22.1665 19.1001H27.3824C27.3824 22.5511 24.5741 25.3594 21.1231 25.3594Z" fill="#26C4F7"/>
<rect x="12.7776" y="30.334" width="17.3333" height="2.02222" fill="#26C4F7"/>
</svg>
