<svg width="85" height="85" viewBox="0 0 85 85" fill="none" xmlns="http://www.w3.org/2000/svg">
<g clip-path="url(#clip0_133_216)">
<path d="M61.5917 1.34048e-06C62.2583 -0.000640646 62.9046 0.229332 63.421 0.650915L63.7098 0.920525L76.3145 14.5165L76.43 14.6629C76.8229 15.1867 77 15.7799 77 16.3576L76.9923 23.7526C76.9923 27.581 75.5366 31.0706 73.1412 33.6896V74.1426C73.1412 74.8406 72.8884 75.5151 72.4296 76.0411C71.9709 76.5672 71.3372 76.9094 70.6457 77.0043L70.2529 77.0312H6.7211C6.02247 77.0322 5.34719 76.7798 4.82037 76.3209C4.29354 75.862 3.95088 75.2277 3.85587 74.5354L3.83276 74.1426L3.82506 33.6935C1.54792 31.2012 0.19762 28.0011 0.000908628 24.6308L-0.026049 23.7526V16.5232C-0.0595119 15.9745 0.0690523 15.428 0.343657 14.9518L0.59398 14.5859L0.748024 14.4087L13.2603 0.924377C13.7124 0.436347 14.3191 0.119357 14.9779 0.0269622L15.3784 1.34048e-06H61.5917ZM50.3542 32.511C48.9818 34.3526 47.1519 35.9211 45.0992 36.9509C43.0465 37.9807 40.7816 38.5165 38.4851 38.5156C36.1742 38.5178 33.8952 37.9766 31.8321 36.9355C29.769 35.8945 27.9795 34.3828 26.6082 32.5226C25.2381 34.3822 23.45 35.8936 21.3882 36.9346C19.3264 37.9757 17.0488 38.5172 14.7391 38.5156C12.9329 38.5156 8.13831 37.0951 6.7211 35.0582L6.96757 74.1426H15.3784V45.2636C15.3785 44.5649 15.6319 43.89 16.0914 43.3639C16.551 42.8377 17.1856 42.4959 17.8778 42.4019L18.2667 42.3672H35.5813C36.2793 42.3672 36.9536 42.62 37.4797 43.0788C38.0057 43.5376 38.3478 44.1714 38.4427 44.863L38.4697 45.2559L38.4851 74.1426H69.8832L69.9739 35.0582C67.4839 36.9346 63.974 37.5582 60.621 37.5582C56.4739 36.9346 52.6595 35.0582 50.3542 32.511ZM35.5813 44.863H18.2667V74.1426H35.5813V44.863ZM58.7226 42.371C59.4206 42.3711 60.095 42.6239 60.621 43.0827C61.147 43.5415 61.4891 44.1753 61.584 44.8669L61.611 45.2597V58.7479C61.6109 59.4459 61.3582 60.1204 60.8994 60.6464C60.4407 61.1725 59.8069 61.5147 59.1155 61.6096L58.7226 61.6366H45.2399C44.5419 61.6365 43.8676 61.3837 43.3416 60.9249C42.8156 60.4661 42.4735 59.8323 42.3785 59.1407L42.3516 58.7479V45.2597C42.3516 44.5617 42.6044 43.8872 43.0631 43.3612C43.5219 42.8351 44.1556 42.4929 44.8471 42.398L45.2399 42.371H58.7226ZM58.7226 44.8669L45.2399 45.2636V58.7479H58.7226V44.8669ZM24.9739 17.554H2.97395V23.5V25L3.08411 26C3.08411 26 3.45259 27.1646 3.58411 27.5C3.67697 27.7369 3.80415 28 4.05933 28.5C4.3145 29 4.29928 29.1106 4.3145 29.1456C4.46875 29.5 4.5 29.5 4.5 29.5L5.07855 30.389L5.57855 30.889L6.57855 31.889L7.65942 32.7344L8.80027 33.6935C9.30028 34.1061 10.1594 34.5582 11.1594 35.0582L13.2603 35.527H14.9779C17.254 35.5274 20.117 34.7801 21.3882 33.6456C22.6595 32.511 23.6594 32.027 24.9739 29.1456V25V20.6296V17.554ZM49.3302 17.6456H28.1043V24.6308C28.1043 30.7052 33.0932 34.4651 37.4797 35.0582H38.4851C40.7612 35.0586 43.9959 34.0647 45.6594 32.511C47.323 30.9574 47.8302 30.3773 48.6594 28.4554L49.3302 25.0506V21.6186V17.6456ZM74.1594 17.527L52.0157 17.6456V24.6308C52.0157 29.1756 52.1594 31.527 54.1595 32.511C54.1595 32.511 56.5281 35.027 61.1595 35.027C63.9699 35.027 66.1594 34.2317 66.6594 34.027C67.4675 33.696 69.1909 32.6594 69.9739 32.027C70.757 31.3946 71.0589 31.1778 71.1594 31.027C71.26 30.8761 72.4296 29.7906 72.4296 29.7906L73.1594 28.527C73.1594 28.527 73.1594 28.527 73.6594 27.527C74.1594 26.527 74.1594 25.527 74.1594 25.527V23.7526V17.527ZM28.6594 3.05823H15.3784L3.85587 14.9518H24.9739L28.6594 3.05823ZM45.6594 3.05404L31.8321 3.05823L28.6594 14.9518H48.6594L45.6594 3.05404ZM61.6148 3.05404H48.6594L52.6594 14.9518L72.4296 14.6629L61.6148 3.05404Z" fill="white"/>
</g>
<defs>
<clipPath id="clip0_133_216">
<rect width="85" height="85" fill="white"/>
</clipPath>
</defs>
</svg>
