<svg width="32" height="32" viewBox="0 0 32 32" fill="none" xmlns="http://www.w3.org/2000/svg">
<path fill-rule="evenodd" clip-rule="evenodd" d="M3.25 16.5C3.25 15.2574 4.25736 14.25 5.5 14.25H15.5C16.7426 14.25 17.75 15.2574 17.75 16.5V26.5C17.75 27.7426 16.7426 28.75 15.5 28.75H5.5C4.25736 28.75 3.25 27.7426 3.25 26.5V16.5ZM5.5 15.75C5.08579 15.75 4.75 16.0858 4.75 16.5V26.5C4.75 26.9142 5.08579 27.25 5.5 27.25H15.5C15.9142 27.25 16.25 26.9142 16.25 26.5V16.5C16.25 16.0858 15.9142 15.75 15.5 15.75H5.5Z" fill="#26C4F7"/>
<path fill-rule="evenodd" clip-rule="evenodd" d="M10.25 5.5C10.25 4.25736 11.2574 3.25 12.5 3.25H26.5C27.7426 3.25 28.75 4.25736 28.75 5.5V19.5C28.75 20.7426 27.7426 21.75 26.5 21.75H19.5V20.25H26.5C26.9142 20.25 27.25 19.9142 27.25 19.5V5.5C27.25 5.08579 26.9142 4.75 26.5 4.75H12.5C12.0858 4.75 11.75 5.08579 11.75 5.5V12.5H10.25V5.5Z" fill="#26C4F7"/>
<path fill-rule="evenodd" clip-rule="evenodd" d="M18.4894 9.1626L22.4747 9.16259C22.7013 9.16259 22.8849 9.34627 22.8849 9.57285L22.8849 13.5581C22.8849 13.7847 22.7012 13.9684 22.4747 13.9684C22.2481 13.9684 22.0644 13.7847 22.0644 13.5581L22.0644 10.5633L16.8629 15.7648C16.7027 15.925 16.443 15.925 16.2827 15.7648C16.1225 15.6046 16.1225 15.3448 16.2827 15.1846L21.4842 9.98311L18.4894 9.98312C18.2628 9.98312 18.0791 9.79944 18.0791 9.57286C18.0791 9.34628 18.2628 9.1626 18.4894 9.1626Z" fill="#26C4F7" stroke="#26C4F7"/>
</svg>
