<svg width="64" height="65" viewBox="0 0 64 65" fill="none" xmlns="http://www.w3.org/2000/svg">
<mask id="path-1-outside-1_265_226" maskUnits="userSpaceOnUse" x="5.53256" y="1.74377" width="53" height="62" fill="black">
<rect fill="white" x="5.53256" y="1.74377" width="53" height="62"/>
<path d="M45.4927 15.8284L46.7461 13.6749C48.8635 14.9979 49.3629 15.5755 49.7136 15.0218C50.2153 14.2295 50.3792 13.2888 50.1752 12.3734C49.9711 11.4576 49.4235 10.6763 48.6336 10.1734L48.3053 9.96412C45.5806 8.22927 42.6518 11.0692 43.6089 11.6775L45.9743 13.1834L44.7204 15.3369C41.0467 13.1159 36.7646 11.813 32.1888 11.7321L32.1248 8.05674H34.6025C36.0637 8.05674 37.2526 6.865 37.2526 5.40026C37.2531 3.93603 36.0642 2.74377 34.6029 2.74377H28.6904C27.2292 2.74377 26.0403 3.93551 26.0403 5.40026C26.0403 6.86498 27.2292 8.05674 28.6904 8.05674H31.2116L31.2756 11.7326C26.7145 11.8159 22.4448 13.1145 18.7795 15.326L17.5093 13.1816C19.2315 11.9267 20.4343 11.7111 20.0128 11.0458C18.9773 9.41097 16.8074 8.92478 15.1755 9.96373L14.8477 10.173C14.0578 10.676 13.5096 11.4573 13.3057 12.373C13.1016 13.2884 13.2656 14.2291 13.7673 15.0214C13.9006 15.2312 14.1816 15.2997 14.3976 15.1622L16.7377 13.6726L18.0073 15.8157C11.1066 20.3293 6.53256 28.1318 6.53256 36.9888C6.53256 50.9211 17.841 62.2563 31.7401 62.2563C45.6392 62.2563 56.9476 50.921 56.9476 36.9888C56.9476 28.1394 52.3829 20.3433 45.4927 15.8284ZM45.8625 10.3948C46.5382 10.2429 47.232 10.3651 47.816 10.7368L48.1443 10.9461C49.2319 11.6387 49.618 12.9928 49.154 14.1232L44.5179 11.1717C44.8735 10.7832 45.3379 10.5121 45.8625 10.3948ZM26.9538 5.40038C26.9538 4.44048 27.7332 3.65976 28.6903 3.65976H34.6028C35.5604 3.65976 36.3393 4.441 36.3393 5.40038C36.3393 6.36028 35.5599 7.141 34.6028 7.141L28.6903 7.14148C27.7332 7.14148 26.9538 6.36025 26.9538 5.40038ZM14.3281 14.1233C13.8631 12.9915 14.2511 11.6378 15.3382 10.9462L15.666 10.7369C16.7732 10.0328 18.1571 10.2881 18.9642 11.1718L14.3281 14.1233ZM31.7406 61.3414C18.3442 61.3414 7.44571 50.417 7.44571 36.9887C7.44571 23.5615 18.3442 12.6372 31.7406 12.6372C45.1371 12.6372 56.0356 23.5615 56.0356 36.9899C56.0356 50.417 45.1371 61.3414 31.7406 61.3414Z"/>
<path d="M51.88 45.3514C52.945 42.7792 53.5361 39.962 53.5361 37.008C53.5361 34.054 52.9451 31.2368 51.88 28.665C51.8781 28.6607 51.8791 28.6559 51.8772 28.6516C51.8757 28.6477 51.8724 28.6453 51.8704 28.6415C43.9824 9.64938 17.6923 11.9598 11.6237 28.6665C5.62804 43.1511 16.4657 58.8446 31.752 58.8446C40.6542 58.8446 48.5282 53.4191 51.8692 45.376C51.8711 45.3717 51.875 45.3683 51.8769 45.3635C51.8788 45.3597 51.8786 45.3553 51.88 45.3514ZM48.7287 44.5548L50.8448 45.4333C49.8561 47.6753 48.4862 49.7109 46.8167 51.4585C44.957 49.7922 44.4711 48.6225 43.9049 49.19C43.7258 49.3695 43.7258 49.6608 43.9049 49.8403L46.1679 52.1088C44.4244 53.7819 42.3944 55.1552 40.1573 56.1463C39.4376 54.7163 39.4001 53.4796 38.6813 53.7767C37.9635 54.0742 38.8124 54.9858 39.3094 56.4992C37.0996 57.3632 34.7094 57.8584 32.2112 57.9129V54.6957C32.2112 54.0868 31.2936 54.0873 31.2936 54.6957V57.9129C28.7954 57.8585 26.405 57.3627 24.1954 56.4987C24.6938 54.9816 25.5418 54.0742 24.824 53.7767C24.1023 53.4773 24.0519 54.7485 23.3479 56.1463C21.1114 55.1552 19.0807 53.7819 17.3373 52.1088C18.9996 50.2446 20.1665 49.7575 19.6003 49.1899C19.0356 48.6239 18.5689 49.7738 16.6886 51.4579C15.0196 49.7102 13.6496 47.6752 12.661 45.433C14.0836 44.7135 15.3224 44.6735 15.0252 43.9534C14.7275 43.2343 13.8186 44.0853 12.3094 44.5835C11.4475 42.3683 10.953 39.9723 10.8986 37.4679H14.108C14.3615 37.4679 14.567 37.2624 14.567 37.0078C14.567 36.7536 14.3615 36.5476 14.108 36.5476H10.8986C10.9529 34.0433 11.4475 31.6471 12.3094 29.4316L14.4255 30.3105C14.4826 30.3341 14.5426 30.3456 14.6007 30.3456C14.7808 30.3456 14.9517 30.2388 15.0247 30.0617C15.1217 29.8268 15.0108 29.5577 14.7765 29.4605L12.6604 28.5816C13.649 26.3396 15.019 24.3039 16.6885 22.5563L18.9515 24.8243C19.0413 24.9143 19.1584 24.9591 19.2761 24.9591C19.3937 24.9591 19.5109 24.9143 19.6006 24.8243C19.7797 24.6448 19.7797 24.3536 19.6006 24.174L17.3377 21.906C19.0812 20.2329 21.1112 18.8596 23.3483 17.8686L24.2245 19.9898C24.298 20.1669 24.4685 20.2738 24.6485 20.2738C24.7071 20.2738 24.7662 20.2627 24.8238 20.2387C25.5416 19.9412 24.6927 19.0291 24.1957 17.5162C26.4045 16.6522 28.7947 16.1565 31.2929 16.102C31.4346 18.6333 30.9539 19.7789 31.752 19.7789C32.5505 19.7789 32.0698 18.6281 32.211 16.102C34.7092 16.1564 37.0996 16.6522 39.3092 17.5162C38.8108 19.0333 37.9623 19.9412 38.6806 20.2387C38.7383 20.2622 38.7978 20.2738 38.8559 20.2738C39.3918 20.2738 39.325 19.6538 40.1567 17.8685C42.3937 18.8591 44.4238 20.2329 46.1672 21.906L43.9043 24.1745C43.7252 24.354 43.7252 24.6452 43.9043 24.8248C43.994 24.9148 44.1112 24.9595 44.2288 24.9595C44.3465 24.9595 44.4636 24.9148 44.5534 24.8248L46.8164 22.5563C48.4854 24.304 49.8554 26.3395 50.844 28.5815L48.7279 29.4604C48.4936 29.5577 48.3827 29.8267 48.4797 30.0616C48.5532 30.2388 48.7236 30.3456 48.9037 30.3456C48.9622 30.3456 49.0218 30.3345 49.0789 30.3105L51.195 29.4316C52.0569 31.6467 52.5514 34.0427 52.6058 36.5476H49.3964C49.1429 36.5476 48.9374 36.7531 48.9374 37.0077C48.9374 37.2619 49.1429 37.4679 49.3964 37.4679H52.6058C52.5515 39.9722 52.057 42.3684 51.195 44.5834L49.0789 43.705C48.8436 43.6078 48.5762 43.7194 48.4792 43.9538C48.3827 44.1882 48.4944 44.4576 48.7287 44.5548Z"/>
</mask>
<path d="M45.4927 15.8284L46.7461 13.6749C48.8635 14.9979 49.3629 15.5755 49.7136 15.0218C50.2153 14.2295 50.3792 13.2888 50.1752 12.3734C49.9711 11.4576 49.4235 10.6763 48.6336 10.1734L48.3053 9.96412C45.5806 8.22927 42.6518 11.0692 43.6089 11.6775L45.9743 13.1834L44.7204 15.3369C41.0467 13.1159 36.7646 11.813 32.1888 11.7321L32.1248 8.05674H34.6025C36.0637 8.05674 37.2526 6.865 37.2526 5.40026C37.2531 3.93603 36.0642 2.74377 34.6029 2.74377H28.6904C27.2292 2.74377 26.0403 3.93551 26.0403 5.40026C26.0403 6.86498 27.2292 8.05674 28.6904 8.05674H31.2116L31.2756 11.7326C26.7145 11.8159 22.4448 13.1145 18.7795 15.326L17.5093 13.1816C19.2315 11.9267 20.4343 11.7111 20.0128 11.0458C18.9773 9.41097 16.8074 8.92478 15.1755 9.96373L14.8477 10.173C14.0578 10.676 13.5096 11.4573 13.3057 12.373C13.1016 13.2884 13.2656 14.2291 13.7673 15.0214C13.9006 15.2312 14.1816 15.2997 14.3976 15.1622L16.7377 13.6726L18.0073 15.8157C11.1066 20.3293 6.53256 28.1318 6.53256 36.9888C6.53256 50.9211 17.841 62.2563 31.7401 62.2563C45.6392 62.2563 56.9476 50.921 56.9476 36.9888C56.9476 28.1394 52.3829 20.3433 45.4927 15.8284ZM45.8625 10.3948C46.5382 10.2429 47.232 10.3651 47.816 10.7368L48.1443 10.9461C49.2319 11.6387 49.618 12.9928 49.154 14.1232L44.5179 11.1717C44.8735 10.7832 45.3379 10.5121 45.8625 10.3948ZM26.9538 5.40038C26.9538 4.44048 27.7332 3.65976 28.6903 3.65976H34.6028C35.5604 3.65976 36.3393 4.441 36.3393 5.40038C36.3393 6.36028 35.5599 7.141 34.6028 7.141L28.6903 7.14148C27.7332 7.14148 26.9538 6.36025 26.9538 5.40038ZM14.3281 14.1233C13.8631 12.9915 14.2511 11.6378 15.3382 10.9462L15.666 10.7369C16.7732 10.0328 18.1571 10.2881 18.9642 11.1718L14.3281 14.1233ZM31.7406 61.3414C18.3442 61.3414 7.44571 50.417 7.44571 36.9887C7.44571 23.5615 18.3442 12.6372 31.7406 12.6372C45.1371 12.6372 56.0356 23.5615 56.0356 36.9899C56.0356 50.417 45.1371 61.3414 31.7406 61.3414Z" fill="white"/>
<path d="M51.88 45.3514C52.945 42.7792 53.5361 39.962 53.5361 37.008C53.5361 34.054 52.9451 31.2368 51.88 28.665C51.8781 28.6607 51.8791 28.6559 51.8772 28.6516C51.8757 28.6477 51.8724 28.6453 51.8704 28.6415C43.9824 9.64938 17.6923 11.9598 11.6237 28.6665C5.62804 43.1511 16.4657 58.8446 31.752 58.8446C40.6542 58.8446 48.5282 53.4191 51.8692 45.376C51.8711 45.3717 51.875 45.3683 51.8769 45.3635C51.8788 45.3597 51.8786 45.3553 51.88 45.3514ZM48.7287 44.5548L50.8448 45.4333C49.8561 47.6753 48.4862 49.7109 46.8167 51.4585C44.957 49.7922 44.4711 48.6225 43.9049 49.19C43.7258 49.3695 43.7258 49.6608 43.9049 49.8403L46.1679 52.1088C44.4244 53.7819 42.3944 55.1552 40.1573 56.1463C39.4376 54.7163 39.4001 53.4796 38.6813 53.7767C37.9635 54.0742 38.8124 54.9858 39.3094 56.4992C37.0996 57.3632 34.7094 57.8584 32.2112 57.9129V54.6957C32.2112 54.0868 31.2936 54.0873 31.2936 54.6957V57.9129C28.7954 57.8585 26.405 57.3627 24.1954 56.4987C24.6938 54.9816 25.5418 54.0742 24.824 53.7767C24.1023 53.4773 24.0519 54.7485 23.3479 56.1463C21.1114 55.1552 19.0807 53.7819 17.3373 52.1088C18.9996 50.2446 20.1665 49.7575 19.6003 49.1899C19.0356 48.6239 18.5689 49.7738 16.6886 51.4579C15.0196 49.7102 13.6496 47.6752 12.661 45.433C14.0836 44.7135 15.3224 44.6735 15.0252 43.9534C14.7275 43.2343 13.8186 44.0853 12.3094 44.5835C11.4475 42.3683 10.953 39.9723 10.8986 37.4679H14.108C14.3615 37.4679 14.567 37.2624 14.567 37.0078C14.567 36.7536 14.3615 36.5476 14.108 36.5476H10.8986C10.9529 34.0433 11.4475 31.6471 12.3094 29.4316L14.4255 30.3105C14.4826 30.3341 14.5426 30.3456 14.6007 30.3456C14.7808 30.3456 14.9517 30.2388 15.0247 30.0617C15.1217 29.8268 15.0108 29.5577 14.7765 29.4605L12.6604 28.5816C13.649 26.3396 15.019 24.3039 16.6885 22.5563L18.9515 24.8243C19.0413 24.9143 19.1584 24.9591 19.2761 24.9591C19.3937 24.9591 19.5109 24.9143 19.6006 24.8243C19.7797 24.6448 19.7797 24.3536 19.6006 24.174L17.3377 21.906C19.0812 20.2329 21.1112 18.8596 23.3483 17.8686L24.2245 19.9898C24.298 20.1669 24.4685 20.2738 24.6485 20.2738C24.7071 20.2738 24.7662 20.2627 24.8238 20.2387C25.5416 19.9412 24.6927 19.0291 24.1957 17.5162C26.4045 16.6522 28.7947 16.1565 31.2929 16.102C31.4346 18.6333 30.9539 19.7789 31.752 19.7789C32.5505 19.7789 32.0698 18.6281 32.211 16.102C34.7092 16.1564 37.0996 16.6522 39.3092 17.5162C38.8108 19.0333 37.9623 19.9412 38.6806 20.2387C38.7383 20.2622 38.7978 20.2738 38.8559 20.2738C39.3918 20.2738 39.325 19.6538 40.1567 17.8685C42.3937 18.8591 44.4238 20.2329 46.1672 21.906L43.9043 24.1745C43.7252 24.354 43.7252 24.6452 43.9043 24.8248C43.994 24.9148 44.1112 24.9595 44.2288 24.9595C44.3465 24.9595 44.4636 24.9148 44.5534 24.8248L46.8164 22.5563C48.4854 24.304 49.8554 26.3395 50.844 28.5815L48.7279 29.4604C48.4936 29.5577 48.3827 29.8267 48.4797 30.0616C48.5532 30.2388 48.7236 30.3456 48.9037 30.3456C48.9622 30.3456 49.0218 30.3345 49.0789 30.3105L51.195 29.4316C52.0569 31.6467 52.5514 34.0427 52.6058 36.5476H49.3964C49.1429 36.5476 48.9374 36.7531 48.9374 37.0077C48.9374 37.2619 49.1429 37.4679 49.3964 37.4679H52.6058C52.5515 39.9722 52.057 42.3684 51.195 44.5834L49.0789 43.705C48.8436 43.6078 48.5762 43.7194 48.4792 43.9538C48.3827 44.1882 48.4944 44.4576 48.7287 44.5548Z" fill="white"/>
<path d="M45.4927 15.8284L46.7461 13.6749C48.8635 14.9979 49.3629 15.5755 49.7136 15.0218C50.2153 14.2295 50.3792 13.2888 50.1752 12.3734C49.9711 11.4576 49.4235 10.6763 48.6336 10.1734L48.3053 9.96412C45.5806 8.22927 42.6518 11.0692 43.6089 11.6775L45.9743 13.1834L44.7204 15.3369C41.0467 13.1159 36.7646 11.813 32.1888 11.7321L32.1248 8.05674H34.6025C36.0637 8.05674 37.2526 6.865 37.2526 5.40026C37.2531 3.93603 36.0642 2.74377 34.6029 2.74377H28.6904C27.2292 2.74377 26.0403 3.93551 26.0403 5.40026C26.0403 6.86498 27.2292 8.05674 28.6904 8.05674H31.2116L31.2756 11.7326C26.7145 11.8159 22.4448 13.1145 18.7795 15.326L17.5093 13.1816C19.2315 11.9267 20.4343 11.7111 20.0128 11.0458C18.9773 9.41097 16.8074 8.92478 15.1755 9.96373L14.8477 10.173C14.0578 10.676 13.5096 11.4573 13.3057 12.373C13.1016 13.2884 13.2656 14.2291 13.7673 15.0214C13.9006 15.2312 14.1816 15.2997 14.3976 15.1622L16.7377 13.6726L18.0073 15.8157C11.1066 20.3293 6.53256 28.1318 6.53256 36.9888C6.53256 50.9211 17.841 62.2563 31.7401 62.2563C45.6392 62.2563 56.9476 50.921 56.9476 36.9888C56.9476 28.1394 52.3829 20.3433 45.4927 15.8284ZM45.8625 10.3948C46.5382 10.2429 47.232 10.3651 47.816 10.7368L48.1443 10.9461C49.2319 11.6387 49.618 12.9928 49.154 14.1232L44.5179 11.1717C44.8735 10.7832 45.3379 10.5121 45.8625 10.3948ZM26.9538 5.40038C26.9538 4.44048 27.7332 3.65976 28.6903 3.65976H34.6028C35.5604 3.65976 36.3393 4.441 36.3393 5.40038C36.3393 6.36028 35.5599 7.141 34.6028 7.141L28.6903 7.14148C27.7332 7.14148 26.9538 6.36025 26.9538 5.40038ZM14.3281 14.1233C13.8631 12.9915 14.2511 11.6378 15.3382 10.9462L15.666 10.7369C16.7732 10.0328 18.1571 10.2881 18.9642 11.1718L14.3281 14.1233ZM31.7406 61.3414C18.3442 61.3414 7.44571 50.417 7.44571 36.9887C7.44571 23.5615 18.3442 12.6372 31.7406 12.6372C45.1371 12.6372 56.0356 23.5615 56.0356 36.9899C56.0356 50.417 45.1371 61.3414 31.7406 61.3414Z" stroke="white" stroke-width="1.19025" mask="url(#path-1-outside-1_265_226)"/>
<path d="M51.88 45.3514C52.945 42.7792 53.5361 39.962 53.5361 37.008C53.5361 34.054 52.9451 31.2368 51.88 28.665C51.8781 28.6607 51.8791 28.6559 51.8772 28.6516C51.8757 28.6477 51.8724 28.6453 51.8704 28.6415C43.9824 9.64938 17.6923 11.9598 11.6237 28.6665C5.62804 43.1511 16.4657 58.8446 31.752 58.8446C40.6542 58.8446 48.5282 53.4191 51.8692 45.376C51.8711 45.3717 51.875 45.3683 51.8769 45.3635C51.8788 45.3597 51.8786 45.3553 51.88 45.3514ZM48.7287 44.5548L50.8448 45.4333C49.8561 47.6753 48.4862 49.7109 46.8167 51.4585C44.957 49.7922 44.4711 48.6225 43.9049 49.19C43.7258 49.3695 43.7258 49.6608 43.9049 49.8403L46.1679 52.1088C44.4244 53.7819 42.3944 55.1552 40.1573 56.1463C39.4376 54.7163 39.4001 53.4796 38.6813 53.7767C37.9635 54.0742 38.8124 54.9858 39.3094 56.4992C37.0996 57.3632 34.7094 57.8584 32.2112 57.9129V54.6957C32.2112 54.0868 31.2936 54.0873 31.2936 54.6957V57.9129C28.7954 57.8585 26.405 57.3627 24.1954 56.4987C24.6938 54.9816 25.5418 54.0742 24.824 53.7767C24.1023 53.4773 24.0519 54.7485 23.3479 56.1463C21.1114 55.1552 19.0807 53.7819 17.3373 52.1088C18.9996 50.2446 20.1665 49.7575 19.6003 49.1899C19.0356 48.6239 18.5689 49.7738 16.6886 51.4579C15.0196 49.7102 13.6496 47.6752 12.661 45.433C14.0836 44.7135 15.3224 44.6735 15.0252 43.9534C14.7275 43.2343 13.8186 44.0853 12.3094 44.5835C11.4475 42.3683 10.953 39.9723 10.8986 37.4679H14.108C14.3615 37.4679 14.567 37.2624 14.567 37.0078C14.567 36.7536 14.3615 36.5476 14.108 36.5476H10.8986C10.9529 34.0433 11.4475 31.6471 12.3094 29.4316L14.4255 30.3105C14.4826 30.3341 14.5426 30.3456 14.6007 30.3456C14.7808 30.3456 14.9517 30.2388 15.0247 30.0617C15.1217 29.8268 15.0108 29.5577 14.7765 29.4605L12.6604 28.5816C13.649 26.3396 15.019 24.3039 16.6885 22.5563L18.9515 24.8243C19.0413 24.9143 19.1584 24.9591 19.2761 24.9591C19.3937 24.9591 19.5109 24.9143 19.6006 24.8243C19.7797 24.6448 19.7797 24.3536 19.6006 24.174L17.3377 21.906C19.0812 20.2329 21.1112 18.8596 23.3483 17.8686L24.2245 19.9898C24.298 20.1669 24.4685 20.2738 24.6485 20.2738C24.7071 20.2738 24.7662 20.2627 24.8238 20.2387C25.5416 19.9412 24.6927 19.0291 24.1957 17.5162C26.4045 16.6522 28.7947 16.1565 31.2929 16.102C31.4346 18.6333 30.9539 19.7789 31.752 19.7789C32.5505 19.7789 32.0698 18.6281 32.211 16.102C34.7092 16.1564 37.0996 16.6522 39.3092 17.5162C38.8108 19.0333 37.9623 19.9412 38.6806 20.2387C38.7383 20.2622 38.7978 20.2738 38.8559 20.2738C39.3918 20.2738 39.325 19.6538 40.1567 17.8685C42.3937 18.8591 44.4238 20.2329 46.1672 21.906L43.9043 24.1745C43.7252 24.354 43.7252 24.6452 43.9043 24.8248C43.994 24.9148 44.1112 24.9595 44.2288 24.9595C44.3465 24.9595 44.4636 24.9148 44.5534 24.8248L46.8164 22.5563C48.4854 24.304 49.8554 26.3395 50.844 28.5815L48.7279 29.4604C48.4936 29.5577 48.3827 29.8267 48.4797 30.0616C48.5532 30.2388 48.7236 30.3456 48.9037 30.3456C48.9622 30.3456 49.0218 30.3345 49.0789 30.3105L51.195 29.4316C52.0569 31.6467 52.5514 34.0427 52.6058 36.5476H49.3964C49.1429 36.5476 48.9374 36.7531 48.9374 37.0077C48.9374 37.2619 49.1429 37.4679 49.3964 37.4679H52.6058C52.5515 39.9722 52.057 42.3684 51.195 44.5834L49.0789 43.705C48.8436 43.6078 48.5762 43.7194 48.4792 43.9538C48.3827 44.1882 48.4944 44.4576 48.7287 44.5548Z" stroke="white" stroke-width="1.19025" mask="url(#path-1-outside-1_265_226)"/>
<rect x="30.7481" y="22.5812" width="1.98375" height="15.87" rx="0.991875" fill="white"/>
</svg>
