<svg width="145" height="145" viewBox="0 0 145 145" fill="none" xmlns="http://www.w3.org/2000/svg">
<mask id="path-1-outside-1_166_477" maskUnits="userSpaceOnUse" x="12.9215" y="2.53125" width="119" height="140" fill="black">
<rect fill="white" x="12.9215" y="2.53125" width="119" height="140"/>
<path d="M103.914 34.4189L106.777 29.5C111.613 32.5219 112.754 33.8414 113.555 32.5765C114.701 30.7669 115.075 28.618 114.609 26.5271C114.143 24.4351 112.892 22.6506 111.088 21.502L110.338 21.0239C104.114 17.0611 97.4244 23.548 99.6107 24.9376L105.014 28.3774L102.15 33.2963C93.7581 28.223 83.977 25.2471 73.5251 25.0622L73.3788 16.667H79.0383C82.3761 16.667 85.0918 13.9449 85.0918 10.5991C85.0929 7.25458 82.3773 4.53125 79.0395 4.53125H65.5342C62.1965 4.53125 59.4807 7.2534 59.4807 10.5991C59.4807 13.9448 62.1964 16.667 65.5342 16.667H71.2929L71.4392 25.0633C61.0208 25.2537 51.2679 28.22 42.8958 33.2714L39.9945 28.3732C43.9282 25.5067 46.6756 25.0143 45.7129 23.4945C43.3476 19.7604 38.3911 18.6498 34.6636 21.023L33.9148 21.5011C32.1105 22.6499 30.8584 24.4345 30.3926 26.5262C29.9265 28.617 30.3009 30.7659 31.447 32.5756C31.7515 33.0548 32.3934 33.2113 32.8867 32.8972L38.2319 29.4947L41.132 34.3899C25.3696 44.6997 14.9215 62.5222 14.9215 82.7532C14.9215 114.577 40.752 140.469 72.5002 140.469C104.248 140.469 130.079 114.577 130.079 82.7532C130.079 62.5396 119.652 44.7319 103.914 34.4189ZM104.758 22.0075C106.302 21.6607 107.887 21.9397 109.221 22.7887L109.97 23.2669C112.455 24.8489 113.337 27.9418 112.277 30.524L101.687 23.7822C102.499 22.8949 103.56 22.2756 104.758 22.0075ZM61.5675 10.5994C61.5675 8.40684 63.3477 6.62353 65.5339 6.62353H79.0392C81.2266 6.62353 83.0056 8.40802 83.0056 10.5994C83.0056 12.792 81.2254 14.5753 79.0392 14.5753L65.5339 14.5764C63.3477 14.5764 61.5675 12.7919 61.5675 10.5994ZM32.7279 30.5243C31.6658 27.9389 32.5521 24.8468 35.0353 23.2671L35.7841 22.789C38.3131 21.1806 41.4741 21.7638 43.3177 23.7824L32.7279 30.5243ZM72.5014 138.379C41.9015 138.379 17.0073 113.426 17.0073 82.7528C17.0073 52.0829 41.9015 27.1296 72.5014 27.1296C103.101 27.1296 127.996 52.0829 127.996 82.7556C127.996 113.426 103.101 138.379 72.5014 138.379Z"/>
<path d="M118.504 101.855C120.936 95.9795 122.286 89.5445 122.286 82.797C122.286 76.0496 120.936 69.6146 118.504 63.7402C118.499 63.7303 118.501 63.7193 118.497 63.7094C118.494 63.7006 118.486 63.6951 118.482 63.6863C100.464 20.3049 40.4125 25.5823 26.5507 63.7435C12.8555 96.8291 37.6107 132.676 72.5274 132.676C92.8616 132.676 110.847 120.283 118.479 101.911C118.483 101.901 118.492 101.894 118.496 101.883C118.501 101.874 118.5 101.864 118.504 101.855ZM111.305 100.035L116.139 102.042C113.881 107.163 110.751 111.813 106.938 115.805C102.69 111.999 101.58 109.327 100.287 110.623C99.8778 111.033 99.8778 111.698 100.287 112.108L105.456 117.29C101.473 121.112 96.8365 124.249 91.7267 126.512C90.0826 123.246 89.9971 120.421 88.3552 121.1C86.7155 121.779 88.6546 123.862 89.7898 127.318C84.7423 129.292 79.2827 130.423 73.5762 130.548V123.199C73.5762 121.808 71.4803 121.809 71.4803 123.199V130.548C65.7739 130.423 60.314 129.291 55.2668 127.317C56.4052 123.852 58.3421 121.779 56.7024 121.1C55.054 120.416 54.9389 123.32 53.3309 126.512C48.2222 124.249 43.5839 121.112 39.6017 117.29C43.3986 113.032 46.0639 111.919 44.7707 110.623C43.4809 109.33 42.4148 111.956 38.1197 115.803C34.3074 111.811 31.1782 107.163 28.9199 102.041C32.1696 100.398 34.9992 100.306 34.3203 98.6616C33.6403 97.019 31.5641 98.9629 28.1169 100.101C26.1482 95.041 25.0186 89.568 24.8945 83.8476H32.2252C32.8043 83.8476 33.2737 83.3781 33.2737 82.7965C33.2737 82.216 32.8043 81.7455 32.2252 81.7455H24.8945C25.0184 76.0251 26.1481 70.5518 28.1169 65.4911L32.9504 67.4987C33.0809 67.5526 33.218 67.579 33.3507 67.579C33.762 67.579 34.1525 67.3349 34.3192 66.9303C34.5407 66.3938 34.2874 65.7792 33.7522 65.5571L28.9186 63.5495C31.1769 58.4283 34.3061 53.7786 38.1196 49.7867L43.2886 54.9672C43.4937 55.1728 43.7613 55.2751 44.03 55.2751C44.2987 55.2751 44.5664 55.1728 44.7715 54.9672C45.1805 54.5571 45.1805 53.892 44.7715 53.4819L39.6024 48.3013C43.5849 44.4797 48.2219 41.3428 53.3317 39.079L55.3333 43.9244C55.5011 44.329 55.8905 44.573 56.3017 44.573C56.4355 44.573 56.5704 44.5477 56.702 44.4928C58.3417 43.8133 56.4026 41.7299 55.2675 38.2742C60.3127 36.3007 65.7723 35.1683 71.4788 35.0439C71.8023 40.8259 70.7044 43.4426 72.5273 43.4426C74.3512 43.4426 73.2533 40.8139 73.5758 35.0439C79.2822 35.1681 84.7422 36.3006 89.7893 38.2742C88.6509 41.7395 86.7129 43.8133 88.3537 44.4928C88.4853 44.5466 88.6213 44.573 88.754 44.573C89.978 44.573 89.8255 43.157 91.7251 39.0789C96.8349 41.3416 101.472 44.4796 105.454 48.3013L100.285 53.4829C99.8763 53.893 99.8763 54.5582 100.285 54.9683C100.49 55.1739 100.758 55.2761 101.027 55.2761C101.295 55.2761 101.563 55.1739 101.768 54.9683L106.937 49.7866C110.75 53.7788 113.879 58.4283 116.137 63.5494L111.304 65.557C110.768 65.7791 110.515 66.3937 110.737 66.9302C110.904 67.3348 111.294 67.5789 111.705 67.5789C111.839 67.5789 111.975 67.5536 112.105 67.4987L116.939 65.4911C118.907 70.5509 120.037 76.0239 120.161 81.7454H112.831C112.251 81.7454 111.782 82.2148 111.782 82.7964C111.782 83.377 112.251 83.8475 112.831 83.8475H120.161C120.037 89.5679 118.908 95.0412 116.939 100.101L112.105 98.0942C111.568 97.8721 110.957 98.1272 110.735 98.6626C110.515 99.198 110.77 99.8133 111.305 100.035Z"/>
</mask>
<path d="M103.914 34.4189L106.777 29.5C111.613 32.5219 112.754 33.8414 113.555 32.5765C114.701 30.7669 115.075 28.618 114.609 26.5271C114.143 24.4351 112.892 22.6506 111.088 21.502L110.338 21.0239C104.114 17.0611 97.4244 23.548 99.6107 24.9376L105.014 28.3774L102.15 33.2963C93.7581 28.223 83.977 25.2471 73.5251 25.0622L73.3788 16.667H79.0383C82.3761 16.667 85.0918 13.9449 85.0918 10.5991C85.0929 7.25458 82.3773 4.53125 79.0395 4.53125H65.5342C62.1965 4.53125 59.4807 7.2534 59.4807 10.5991C59.4807 13.9448 62.1964 16.667 65.5342 16.667H71.2929L71.4392 25.0633C61.0208 25.2537 51.2679 28.22 42.8958 33.2714L39.9945 28.3732C43.9282 25.5067 46.6756 25.0143 45.7129 23.4945C43.3476 19.7604 38.3911 18.6498 34.6636 21.023L33.9148 21.5011C32.1105 22.6499 30.8584 24.4345 30.3926 26.5262C29.9265 28.617 30.3009 30.7659 31.447 32.5756C31.7515 33.0548 32.3934 33.2113 32.8867 32.8972L38.2319 29.4947L41.132 34.3899C25.3696 44.6997 14.9215 62.5222 14.9215 82.7532C14.9215 114.577 40.752 140.469 72.5002 140.469C104.248 140.469 130.079 114.577 130.079 82.7532C130.079 62.5396 119.652 44.7319 103.914 34.4189ZM104.758 22.0075C106.302 21.6607 107.887 21.9397 109.221 22.7887L109.97 23.2669C112.455 24.8489 113.337 27.9418 112.277 30.524L101.687 23.7822C102.499 22.8949 103.56 22.2756 104.758 22.0075ZM61.5675 10.5994C61.5675 8.40684 63.3477 6.62353 65.5339 6.62353H79.0392C81.2266 6.62353 83.0056 8.40802 83.0056 10.5994C83.0056 12.792 81.2254 14.5753 79.0392 14.5753L65.5339 14.5764C63.3477 14.5764 61.5675 12.7919 61.5675 10.5994ZM32.7279 30.5243C31.6658 27.9389 32.5521 24.8468 35.0353 23.2671L35.7841 22.789C38.3131 21.1806 41.4741 21.7638 43.3177 23.7824L32.7279 30.5243ZM72.5014 138.379C41.9015 138.379 17.0073 113.426 17.0073 82.7528C17.0073 52.0829 41.9015 27.1296 72.5014 27.1296C103.101 27.1296 127.996 52.0829 127.996 82.7556C127.996 113.426 103.101 138.379 72.5014 138.379Z" fill="white"/>
<path d="M118.504 101.855C120.936 95.9795 122.286 89.5445 122.286 82.797C122.286 76.0496 120.936 69.6146 118.504 63.7402C118.499 63.7303 118.501 63.7193 118.497 63.7094C118.494 63.7006 118.486 63.6951 118.482 63.6863C100.464 20.3049 40.4125 25.5823 26.5507 63.7435C12.8555 96.8291 37.6107 132.676 72.5274 132.676C92.8616 132.676 110.847 120.283 118.479 101.911C118.483 101.901 118.492 101.894 118.496 101.883C118.501 101.874 118.5 101.864 118.504 101.855ZM111.305 100.035L116.139 102.042C113.881 107.163 110.751 111.813 106.938 115.805C102.69 111.999 101.58 109.327 100.287 110.623C99.8778 111.033 99.8778 111.698 100.287 112.108L105.456 117.29C101.473 121.112 96.8365 124.249 91.7267 126.512C90.0826 123.246 89.9971 120.421 88.3552 121.1C86.7155 121.779 88.6546 123.862 89.7898 127.318C84.7423 129.292 79.2827 130.423 73.5762 130.548V123.199C73.5762 121.808 71.4803 121.809 71.4803 123.199V130.548C65.7739 130.423 60.314 129.291 55.2668 127.317C56.4052 123.852 58.3421 121.779 56.7024 121.1C55.054 120.416 54.9389 123.32 53.3309 126.512C48.2222 124.249 43.5839 121.112 39.6017 117.29C43.3986 113.032 46.0639 111.919 44.7707 110.623C43.4809 109.33 42.4148 111.956 38.1197 115.803C34.3074 111.811 31.1782 107.163 28.9199 102.041C32.1696 100.398 34.9992 100.306 34.3203 98.6616C33.6403 97.019 31.5641 98.9629 28.1169 100.101C26.1482 95.041 25.0186 89.568 24.8945 83.8476H32.2252C32.8043 83.8476 33.2737 83.3781 33.2737 82.7965C33.2737 82.216 32.8043 81.7455 32.2252 81.7455H24.8945C25.0184 76.0251 26.1481 70.5518 28.1169 65.4911L32.9504 67.4987C33.0809 67.5526 33.218 67.579 33.3507 67.579C33.762 67.579 34.1525 67.3349 34.3192 66.9303C34.5407 66.3938 34.2874 65.7792 33.7522 65.5571L28.9186 63.5495C31.1769 58.4283 34.3061 53.7786 38.1196 49.7867L43.2886 54.9672C43.4937 55.1728 43.7613 55.2751 44.03 55.2751C44.2987 55.2751 44.5664 55.1728 44.7715 54.9672C45.1805 54.5571 45.1805 53.892 44.7715 53.4819L39.6024 48.3013C43.5849 44.4797 48.2219 41.3428 53.3317 39.079L55.3333 43.9244C55.5011 44.329 55.8905 44.573 56.3017 44.573C56.4355 44.573 56.5704 44.5477 56.702 44.4928C58.3417 43.8133 56.4026 41.7299 55.2675 38.2742C60.3127 36.3007 65.7723 35.1683 71.4788 35.0439C71.8023 40.8259 70.7044 43.4426 72.5273 43.4426C74.3512 43.4426 73.2533 40.8139 73.5758 35.0439C79.2822 35.1681 84.7422 36.3006 89.7893 38.2742C88.6509 41.7395 86.7129 43.8133 88.3537 44.4928C88.4853 44.5466 88.6213 44.573 88.754 44.573C89.978 44.573 89.8255 43.157 91.7251 39.0789C96.8349 41.3416 101.472 44.4796 105.454 48.3013L100.285 53.4829C99.8763 53.893 99.8763 54.5582 100.285 54.9683C100.49 55.1739 100.758 55.2761 101.027 55.2761C101.295 55.2761 101.563 55.1739 101.768 54.9683L106.937 49.7866C110.75 53.7788 113.879 58.4283 116.137 63.5494L111.304 65.557C110.768 65.7791 110.515 66.3937 110.737 66.9302C110.904 67.3348 111.294 67.5789 111.705 67.5789C111.839 67.5789 111.975 67.5536 112.105 67.4987L116.939 65.4911C118.907 70.5509 120.037 76.0239 120.161 81.7454H112.831C112.251 81.7454 111.782 82.2148 111.782 82.7964C111.782 83.377 112.251 83.8475 112.831 83.8475H120.161C120.037 89.5679 118.908 95.0412 116.939 100.101L112.105 98.0942C111.568 97.8721 110.957 98.1272 110.735 98.6626C110.515 99.198 110.77 99.8133 111.305 100.035Z" fill="white"/>
<path d="M103.914 34.4189L106.777 29.5C111.613 32.5219 112.754 33.8414 113.555 32.5765C114.701 30.7669 115.075 28.618 114.609 26.5271C114.143 24.4351 112.892 22.6506 111.088 21.502L110.338 21.0239C104.114 17.0611 97.4244 23.548 99.6107 24.9376L105.014 28.3774L102.15 33.2963C93.7581 28.223 83.977 25.2471 73.5251 25.0622L73.3788 16.667H79.0383C82.3761 16.667 85.0918 13.9449 85.0918 10.5991C85.0929 7.25458 82.3773 4.53125 79.0395 4.53125H65.5342C62.1965 4.53125 59.4807 7.2534 59.4807 10.5991C59.4807 13.9448 62.1964 16.667 65.5342 16.667H71.2929L71.4392 25.0633C61.0208 25.2537 51.2679 28.22 42.8958 33.2714L39.9945 28.3732C43.9282 25.5067 46.6756 25.0143 45.7129 23.4945C43.3476 19.7604 38.3911 18.6498 34.6636 21.023L33.9148 21.5011C32.1105 22.6499 30.8584 24.4345 30.3926 26.5262C29.9265 28.617 30.3009 30.7659 31.447 32.5756C31.7515 33.0548 32.3934 33.2113 32.8867 32.8972L38.2319 29.4947L41.132 34.3899C25.3696 44.6997 14.9215 62.5222 14.9215 82.7532C14.9215 114.577 40.752 140.469 72.5002 140.469C104.248 140.469 130.079 114.577 130.079 82.7532C130.079 62.5396 119.652 44.7319 103.914 34.4189ZM104.758 22.0075C106.302 21.6607 107.887 21.9397 109.221 22.7887L109.97 23.2669C112.455 24.8489 113.337 27.9418 112.277 30.524L101.687 23.7822C102.499 22.8949 103.56 22.2756 104.758 22.0075ZM61.5675 10.5994C61.5675 8.40684 63.3477 6.62353 65.5339 6.62353H79.0392C81.2266 6.62353 83.0056 8.40802 83.0056 10.5994C83.0056 12.792 81.2254 14.5753 79.0392 14.5753L65.5339 14.5764C63.3477 14.5764 61.5675 12.7919 61.5675 10.5994ZM32.7279 30.5243C31.6658 27.9389 32.5521 24.8468 35.0353 23.2671L35.7841 22.789C38.3131 21.1806 41.4741 21.7638 43.3177 23.7824L32.7279 30.5243ZM72.5014 138.379C41.9015 138.379 17.0073 113.426 17.0073 82.7528C17.0073 52.0829 41.9015 27.1296 72.5014 27.1296C103.101 27.1296 127.996 52.0829 127.996 82.7556C127.996 113.426 103.101 138.379 72.5014 138.379Z" stroke="white" stroke-width="2.71875" mask="url(#path-1-outside-1_166_477)"/>
<path d="M118.504 101.855C120.936 95.9795 122.286 89.5445 122.286 82.797C122.286 76.0496 120.936 69.6146 118.504 63.7402C118.499 63.7303 118.501 63.7193 118.497 63.7094C118.494 63.7006 118.486 63.6951 118.482 63.6863C100.464 20.3049 40.4125 25.5823 26.5507 63.7435C12.8555 96.8291 37.6107 132.676 72.5274 132.676C92.8616 132.676 110.847 120.283 118.479 101.911C118.483 101.901 118.492 101.894 118.496 101.883C118.501 101.874 118.5 101.864 118.504 101.855ZM111.305 100.035L116.139 102.042C113.881 107.163 110.751 111.813 106.938 115.805C102.69 111.999 101.58 109.327 100.287 110.623C99.8778 111.033 99.8778 111.698 100.287 112.108L105.456 117.29C101.473 121.112 96.8365 124.249 91.7267 126.512C90.0826 123.246 89.9971 120.421 88.3552 121.1C86.7155 121.779 88.6546 123.862 89.7898 127.318C84.7423 129.292 79.2827 130.423 73.5762 130.548V123.199C73.5762 121.808 71.4803 121.809 71.4803 123.199V130.548C65.7739 130.423 60.314 129.291 55.2668 127.317C56.4052 123.852 58.3421 121.779 56.7024 121.1C55.054 120.416 54.9389 123.32 53.3309 126.512C48.2222 124.249 43.5839 121.112 39.6017 117.29C43.3986 113.032 46.0639 111.919 44.7707 110.623C43.4809 109.33 42.4148 111.956 38.1197 115.803C34.3074 111.811 31.1782 107.163 28.9199 102.041C32.1696 100.398 34.9992 100.306 34.3203 98.6616C33.6403 97.019 31.5641 98.9629 28.1169 100.101C26.1482 95.041 25.0186 89.568 24.8945 83.8476H32.2252C32.8043 83.8476 33.2737 83.3781 33.2737 82.7965C33.2737 82.216 32.8043 81.7455 32.2252 81.7455H24.8945C25.0184 76.0251 26.1481 70.5518 28.1169 65.4911L32.9504 67.4987C33.0809 67.5526 33.218 67.579 33.3507 67.579C33.762 67.579 34.1525 67.3349 34.3192 66.9303C34.5407 66.3938 34.2874 65.7792 33.7522 65.5571L28.9186 63.5495C31.1769 58.4283 34.3061 53.7786 38.1196 49.7867L43.2886 54.9672C43.4937 55.1728 43.7613 55.2751 44.03 55.2751C44.2987 55.2751 44.5664 55.1728 44.7715 54.9672C45.1805 54.5571 45.1805 53.892 44.7715 53.4819L39.6024 48.3013C43.5849 44.4797 48.2219 41.3428 53.3317 39.079L55.3333 43.9244C55.5011 44.329 55.8905 44.573 56.3017 44.573C56.4355 44.573 56.5704 44.5477 56.702 44.4928C58.3417 43.8133 56.4026 41.7299 55.2675 38.2742C60.3127 36.3007 65.7723 35.1683 71.4788 35.0439C71.8023 40.8259 70.7044 43.4426 72.5273 43.4426C74.3512 43.4426 73.2533 40.8139 73.5758 35.0439C79.2822 35.1681 84.7422 36.3006 89.7893 38.2742C88.6509 41.7395 86.7129 43.8133 88.3537 44.4928C88.4853 44.5466 88.6213 44.573 88.754 44.573C89.978 44.573 89.8255 43.157 91.7251 39.0789C96.8349 41.3416 101.472 44.4796 105.454 48.3013L100.285 53.4829C99.8763 53.893 99.8763 54.5582 100.285 54.9683C100.49 55.1739 100.758 55.2761 101.027 55.2761C101.295 55.2761 101.563 55.1739 101.768 54.9683L106.937 49.7866C110.75 53.7788 113.879 58.4283 116.137 63.5494L111.304 65.557C110.768 65.7791 110.515 66.3937 110.737 66.9302C110.904 67.3348 111.294 67.5789 111.705 67.5789C111.839 67.5789 111.975 67.5536 112.105 67.4987L116.939 65.4911C118.907 70.5509 120.037 76.0239 120.161 81.7454H112.831C112.251 81.7454 111.782 82.2148 111.782 82.7964C111.782 83.377 112.251 83.8475 112.831 83.8475H120.161C120.037 89.5679 118.908 95.0412 116.939 100.101L112.105 98.0942C111.568 97.8721 110.957 98.1272 110.735 98.6626C110.515 99.198 110.77 99.8133 111.305 100.035Z" stroke="white" stroke-width="2.71875" mask="url(#path-1-outside-1_166_477)"/>
<rect x="70.2344" y="49.8438" width="4.53125" height="36.25" rx="2.26562" fill="white"/>
</svg>
