<svg width="32" height="32" viewBox="0 0 32 32" fill="none" xmlns="http://www.w3.org/2000/svg">
<path d="M3.95397 14.0853C4.13232 13.2561 4.38277 12.4423 4.70911 11.6591C4.67116 11.7508 4.63321 11.8425 4.59527 11.9341C4.8533 11.319 5.15687 10.723 5.50218 10.1537C5.66914 9.87473 5.84749 9.60346 6.03722 9.33982C6.08276 9.27487 6.12829 9.20991 6.17383 9.14878C6.20419 9.10675 6.37874 8.8775 6.24213 9.05326C6.10553 9.23284 6.28008 9.00359 6.31423 8.96156C6.36736 8.89279 6.42427 8.82401 6.48119 8.75906C6.90619 8.24325 7.37293 7.76183 7.87003 7.31861C7.98766 7.21163 8.10909 7.10847 8.23052 7.00913C8.29123 6.95946 8.35194 6.90979 8.41645 6.86012C8.45061 6.83337 8.48476 6.8028 8.51891 6.77606C8.46958 6.81427 8.42025 6.85248 8.37092 6.89068C8.39748 6.86776 8.42784 6.84865 8.4544 6.82573C8.71623 6.62705 8.98565 6.43983 9.26266 6.26025C9.90395 5.84378 10.5832 5.48845 11.2852 5.1866C11.1941 5.22481 11.103 5.26302 11.012 5.30123C12.1162 4.83509 13.2736 4.52178 14.4575 4.36131C14.355 4.37659 14.2564 4.38805 14.1539 4.40334C15.3265 4.2505 16.5104 4.2505 17.6791 4.40716C17.5767 4.39187 17.478 4.38041 17.3756 4.36513C18.5481 4.5256 19.6941 4.84655 20.7869 5.30887C20.6959 5.27066 20.6048 5.23245 20.5137 5.19424C21.1247 5.45788 21.7128 5.75972 22.2782 6.11124C22.5514 6.27935 22.8209 6.45893 23.0827 6.64997C23.2079 6.73785 23.3293 6.83337 23.4508 6.92507C23.1206 6.67672 23.39 6.87922 23.4621 6.93653C23.5267 6.99002 23.595 7.04352 23.6595 7.10083C24.1679 7.53258 24.6461 7.99872 25.0862 8.49924C25.1887 8.61387 25.2874 8.73231 25.386 8.85458C25.4391 8.91953 25.4961 8.98831 25.5492 9.05708C25.572 9.08383 25.5909 9.11057 25.6137 9.13732C25.4923 8.98066 25.4619 8.93864 25.515 9.00741C25.5302 9.02651 25.5454 9.04944 25.5606 9.06854C25.7579 9.33218 25.9438 9.60346 26.1222 9.87856C26.5396 10.5319 26.8963 11.2197 27.1961 11.9303C27.1581 11.8386 27.1202 11.7469 27.0822 11.6552C27.3858 12.3926 27.6286 13.153 27.8032 13.9286C27.936 14.5132 28.638 14.9144 29.2034 14.731C29.8143 14.5323 30.1407 13.9477 30.0003 13.3211C29.4349 10.807 28.1902 8.46868 26.4409 6.58884C24.7485 4.77013 22.5742 3.41375 20.2177 2.66105C17.7664 1.87778 15.1178 1.80137 12.6171 2.37449C10.0747 2.95907 7.70306 4.26961 5.82852 6.09595C4.0071 7.86881 2.66001 10.146 1.96559 12.6028C1.88211 12.8932 1.81381 13.1874 1.7493 13.4816C1.62407 14.0662 1.92006 14.7501 2.54617 14.8915C3.12675 15.0175 3.82116 14.7119 3.95397 14.0853Z" fill="#26C4F7"/>
<path d="M29.7537 7.74653C29.1883 9.37419 28.6229 11.0057 28.0575 12.6333C27.9778 12.8626 27.8981 13.0918 27.8184 13.3249C28.2851 13.0574 28.7519 12.79 29.2186 12.5225C27.6021 11.9532 25.9818 11.3839 24.3653 10.8146C24.1376 10.7344 23.9099 10.6542 23.6785 10.5739C23.1169 10.3752 22.4073 10.7994 22.2782 11.3763C22.134 12.0144 22.4718 12.576 23.0751 12.7862C24.6916 13.3555 26.3119 13.9248 27.9284 14.4941C28.1561 14.5743 28.3838 14.6545 28.6153 14.7348C28.8733 14.8265 29.2641 14.7653 29.4918 14.6202C29.7499 14.452 29.913 14.2304 30.0155 13.9362C30.5809 12.3086 31.1463 10.6771 31.7117 9.04942C31.7914 8.82017 31.8711 8.59092 31.9507 8.35785C32.1481 7.79238 31.7269 7.07788 31.1539 6.94798C30.5202 6.80279 29.9661 7.14284 29.7537 7.74653Z" fill="#26C4F7"/>
<path d="M28.0461 18.9148C27.8678 19.7439 27.6173 20.5577 27.291 21.341C27.3289 21.2493 27.3669 21.1576 27.4048 21.0659C27.1468 21.6811 26.8432 22.2771 26.4979 22.8464C26.3309 23.1253 26.1526 23.3966 25.9629 23.6602C25.9173 23.7252 25.8718 23.7901 25.8262 23.8513C25.7959 23.8933 25.6213 24.1226 25.7579 23.9468C25.8945 23.7672 25.72 23.9965 25.6858 24.0385C25.6327 24.1073 25.5758 24.176 25.5189 24.241C25.0939 24.7568 24.6271 25.2382 24.13 25.6814C24.0124 25.7884 23.891 25.8916 23.7696 25.9909C23.7088 26.0406 23.6481 26.0903 23.5836 26.1399C23.5495 26.1667 23.5153 26.1972 23.4812 26.224C23.5305 26.1858 23.5798 26.1476 23.6292 26.1094C23.6026 26.1323 23.5722 26.1514 23.5457 26.1743C23.2838 26.373 23.0144 26.5602 22.7374 26.7398C22.0961 27.1563 21.4169 27.5116 20.7149 27.8135C20.806 27.7752 20.897 27.737 20.9881 27.6988C19.8839 28.165 18.7265 28.4783 17.5426 28.6387C17.645 28.6235 17.7437 28.612 17.8461 28.5967C16.6736 28.7495 15.4897 28.7495 14.3209 28.5929C14.4234 28.6082 14.5221 28.6196 14.6245 28.6349C13.452 28.4745 12.306 28.1535 11.2131 27.6912C11.3042 27.7294 11.3953 27.7676 11.4864 27.8058C10.8754 27.5422 10.2873 27.2403 9.72186 26.8888C9.44864 26.7207 9.17922 26.5411 8.9174 26.3501C8.79217 26.2622 8.67074 26.1667 8.54932 26.075C8.87945 26.3233 8.61003 26.1208 8.53793 26.0635C8.47342 26.01 8.40512 25.9565 8.34061 25.8992C7.83213 25.4675 7.35401 25.0013 6.91383 24.5008C6.81138 24.3862 6.71272 24.2677 6.61406 24.1455C6.56093 24.0805 6.50401 24.0117 6.45089 23.943C6.42812 23.9162 6.40915 23.8895 6.38638 23.8627C6.50781 24.0194 6.53816 24.0614 6.48504 23.9926C6.46986 23.9735 6.45468 23.9506 6.43951 23.9315C6.24218 23.6679 6.05625 23.3966 5.8779 23.1215C5.46049 22.4681 5.1038 21.7804 4.80402 21.0697C4.84197 21.1614 4.87991 21.2531 4.91786 21.3448C4.61429 20.6074 4.37143 19.8471 4.19688 19.0714C4.06407 18.4869 3.36206 18.0857 2.79666 18.2691C2.18573 18.4678 1.85939 19.0523 1.99979 19.679C2.56519 22.193 3.80983 24.5314 5.55915 26.4112C7.25155 28.2299 9.42588 29.5863 11.7823 30.339C14.2337 31.1223 16.8823 31.1987 19.383 30.6256C21.9254 30.041 24.297 28.7304 26.1716 26.9041C27.993 25.1312 29.3401 22.854 30.0345 20.3973C30.118 20.1069 30.1863 19.8127 30.2508 19.5185C30.376 18.9339 30.08 18.25 29.4539 18.1086C28.8733 17.9825 28.1789 18.2882 28.0461 18.9148Z" fill="#26C4F7"/>
<path d="M2.24639 25.2538C2.81179 23.6261 3.37719 21.9946 3.94259 20.367C4.02227 20.1377 4.10196 19.9085 4.18165 19.6754C3.71491 19.9428 3.24817 20.2103 2.78143 20.4778C4.39794 21.0471 6.01825 21.6164 7.63476 22.1857C7.86243 22.2659 8.09011 22.3461 8.32158 22.4264C8.88319 22.625 9.59278 22.2009 9.7218 21.624C9.866 20.9859 9.52827 20.4243 8.92493 20.2141C7.30842 19.6448 5.68811 19.0755 4.0716 18.5062C3.84393 18.426 3.61625 18.3457 3.38478 18.2655C3.12674 18.1738 2.7359 18.2349 2.50822 18.3801C2.25018 18.5482 2.08701 18.7699 1.98456 19.0641C1.41916 20.6917 0.853761 22.3232 0.288362 23.9509C0.208675 24.1801 0.128988 24.4094 0.0493009 24.6424C-0.14802 25.2079 0.273184 25.9224 0.846172 26.0523C1.48367 26.2013 2.03768 25.8613 2.24639 25.2538Z" fill="#26C4F7"/>
<path fill-rule="evenodd" clip-rule="evenodd" d="M16.6267 11.2684L17.1923 12.4576L17.8268 12.6404L19.0171 12.2611L19.9539 13.1874L19.5507 14.3821L19.8149 14.9768L20.9734 15.5665L20.9807 16.8707L19.8287 17.4362L19.6087 18.0709L19.988 19.2612L19.0617 20.198L17.867 19.7948L17.2723 20.059L16.6826 21.2175L15.3784 21.2248L14.8129 20.0728L14.2155 19.8526L12.9879 20.2321L12.0511 19.3058L12.4916 18.1109L12.1901 17.5164L11.0689 16.9264L11.0243 15.6224L12.2136 15.0568L12.3965 14.4596L12.017 13.232L12.9433 12.2952L14.1382 12.7356L14.7328 12.4342L15.3227 11.313L16.6267 11.2684ZM16.011 14.4393C16.9798 14.4338 17.8042 15.249 17.8098 16.2551C17.8153 17.2239 17.0001 18.0483 16.0313 18.0537C15.0252 18.0594 14.2008 17.2442 14.1954 16.2754C14.1897 15.2693 15.0049 14.4449 16.011 14.4393Z" fill="#26C4F7"/>
</svg>
