<svg width="32" height="32" viewBox="0 0 32 32" fill="none" xmlns="http://www.w3.org/2000/svg">
<path d="M29.196 8.84001C29.6227 10.0373 29.0227 10.8573 27.8653 11.664C26.9293 12.3147 25.7387 13.02 24.476 14.2267C23.2387 15.4093 22.0307 16.8333 20.9573 18.2347C19.6443 19.9318 18.4375 21.7085 17.344 23.5547C17.1505 23.8947 16.8699 24.177 16.531 24.3725C16.1921 24.5679 15.8072 24.6695 15.416 24.6667C15.0244 24.6582 14.6421 24.546 14.3081 24.3415C13.974 24.137 13.7002 23.8476 13.5147 23.5027C12.5173 21.6853 11.7467 20.968 11.392 20.7107C10.4093 19.9947 9.33332 19.8707 9.33332 18.3107C9.33332 17.0347 10.328 16 11.556 16C12.4333 16.036 13.2387 16.412 13.9413 16.924C14.3973 17.256 14.8813 17.6947 15.384 18.2733C15.9733 17.4013 16.684 16.396 17.4813 15.3547C18.6387 13.844 20.004 12.2213 21.468 10.8227C22.908 9.44668 24.5747 8.15868 26.3387 7.47868C27.4893 7.03468 28.768 7.64268 29.196 8.84001Z" fill="#00B4F1"/>
<path d="M5.91999 16.1013C5.66051 16.0156 5.39212 15.9597 5.11999 15.9347L4.93199 15.9267C3.68132 15.9267 2.66666 16.9707 2.66666 18.2573C2.66666 19.4227 3.49732 20.388 4.58266 20.5613C4.61999 20.5791 4.68088 20.6178 4.76532 20.6773C5.12532 20.9373 5.91199 21.66 6.92932 23.492C7.32666 24.2093 8.06399 24.656 8.86666 24.6653C9.41057 24.6716 9.93798 24.4786 10.3493 24.1227M20 7.33334C18.2 8.02001 16.504 9.31868 15.036 10.7067C14.524 11.1907 14.0227 11.7013 13.5387 12.2253M29.196 8.84001C29.6227 10.0373 29.0227 10.8573 27.8653 11.664C26.9293 12.3147 25.7387 13.02 24.476 14.2267C23.2387 15.4093 22.0307 16.8333 20.9573 18.2347C19.6443 19.9318 18.4375 21.7085 17.344 23.5547C17.1505 23.8947 16.8699 24.177 16.531 24.3725C16.1921 24.5679 15.8072 24.6695 15.416 24.6667C15.0244 24.6582 14.6421 24.546 14.3081 24.3415C13.974 24.137 13.7002 23.8476 13.5147 23.5027C12.5173 21.6853 11.7467 20.968 11.392 20.7107C10.4093 19.9947 9.33332 19.8707 9.33332 18.3107C9.33332 17.0347 10.328 16 11.556 16C12.4333 16.036 13.2387 16.412 13.9413 16.924C14.3973 17.256 14.8813 17.6947 15.384 18.2733C15.9733 17.4013 16.684 16.396 17.4813 15.3547C18.6387 13.844 20.004 12.2213 21.468 10.8227C22.908 9.44668 24.5747 8.15868 26.3387 7.47868C27.4893 7.03468 28.768 7.64268 29.196 8.84001Z" stroke="#00B4F1" stroke-width="3" stroke-linecap="round" stroke-linejoin="round"/>
</svg>
