<?xml version="1.0" encoding="UTF-8"?><svg id="a" xmlns="http://www.w3.org/2000/svg" width="32" height="32" xmlns:xlink="http://www.w3.org/1999/xlink" viewBox="0 0 32 32"><defs><clipPath id="b"><rect width="32" height="32" style="fill:none;"/></clipPath></defs><g style="clip-path:url(#b);"><g><path d="M0,15.4C0,8.1,0,4.5,2.2,2.2,4.5,0,8.1,0,15.4,0h1.3c7.2,0,10.9,0,13.1,2.2,2.2,2.2,2.2,5.9,2.2,13.1v1.3c0,7.2,0,10.9-2.2,13.1-2.2,2.2-5.9,2.2-13.1,2.2h-1.3c-7.2,0-10.9,0-13.1-2.2C0,27.5,0,23.9,0,16.6v-1.3Z" style="fill:#07f;"/><path d="M17,23.1c-7.3,0-11.5-5-11.6-13.3h3.7c.1,6.1,2.8,8.7,4.9,9.2V9.7h3.4v5.3c2.1-.2,4.3-2.6,5.1-5.3h3.4c-.6,3.3-3,5.7-4.7,6.6,1.7,.8,4.4,2.9,5.5,6.7h-3.8c-.8-2.5-2.8-4.5-5.5-4.8v4.8h-.4Z" style="fill:#fff;"/></g></g></svg>