<svg width="32" height="32" viewBox="0 0 32 32" fill="none" xmlns="http://www.w3.org/2000/svg">
<path d="M5.75 28V3C5.75 2.30964 6.30964 1.75 7 1.75H18.2091C18.5267 1.75 18.8323 1.87088 19.064 2.08808L25.8549 8.45454C26.107 8.69085 26.25 9.02095 26.25 9.36646V28C26.25 28.6904 25.6904 29.25 25 29.25H17H7C6.30964 29.25 5.75 28.6904 5.75 28Z" stroke="#26C4F7" stroke-width="1.5"/>
<path d="M13.6201 22.7503L9 20.054V19.1737L13.6201 16.1204V17.5978L10.4377 19.5492L13.6201 21.2791V22.7503Z" fill="#26C4F7"/>
<path d="M17.9239 15L15.3882 24H14.0994L16.6351 15H17.9239Z" fill="#26C4F7"/>
<path d="M18.3799 21.2791L21.5623 19.5492L18.3799 17.5978V16.1204L23 19.1737V20.054L18.3799 22.7503V21.2791Z" fill="#26C4F7"/>
</svg>
