<svg width="32" height="32" viewBox="0 0 32 32" fill="none" xmlns="http://www.w3.org/2000/svg">
<g clip-path="url(#clip0_2869_42361)">
<path fill-rule="evenodd" clip-rule="evenodd" d="M4.25 1.5C3.83579 1.5 3.5 1.83579 3.5 2.25V7.25C3.5 7.66421 3.83579 8 4.25 8H8.69595C9.11016 8 9.44595 8.33579 9.44595 8.75C9.44595 9.16421 9.11016 9.5 8.69595 9.5H4.25C3.00736 9.5 2 8.49264 2 7.25V2.25C2 1.00736 3.00736 0 4.25 0H21.25C22.4926 0 23.5 1.00736 23.5 2.25V7.25C23.5 8.49264 22.4926 9.5 21.25 9.5H17.3446C16.9304 9.5 16.5946 9.16421 16.5946 8.75C16.5946 8.33579 16.9304 8 17.3446 8H21.25C21.6642 8 22 7.66421 22 7.25V2.25C22 1.83579 21.6642 1.5 21.25 1.5H4.25Z" fill="#26C4F7"/>
<path fill-rule="evenodd" clip-rule="evenodd" d="M12 6.25685V20.7402C12 21.5413 11.1402 22.0457 10.4412 21.6592C8.93628 20.8271 7.0183 19.7968 6.01278 19.4616C5.73246 19.3682 5.55764 19.4019 5.46278 19.4441C5.36464 19.4877 5.28702 19.5683 5.24231 19.6829C5.15747 19.9005 5.18533 20.3056 5.66598 20.6261C7.22829 21.6676 9.75697 24.1964 10.752 25.1915L10.7803 25.2198C11.1713 25.6108 11.7976 25.9365 12.6267 26.3191C12.7319 26.3677 12.84 26.417 12.9504 26.4674C13.6603 26.7913 14.4634 27.1577 15.166 27.6261C15.9097 28.1219 16.3979 28.8243 16.7337 29.4416C16.9033 29.7533 17.0405 30.0555 17.1527 30.312C17.1853 30.3865 17.2147 30.4545 17.2417 30.517C17.3136 30.6832 17.3685 30.8102 17.4208 30.9147C17.606 31.2852 17.4559 31.7357 17.0854 31.9209C16.7149 32.1062 16.2644 31.956 16.0791 31.5855C16.0066 31.4405 15.9273 31.2569 15.8495 31.0769C15.8256 31.0216 15.8018 30.9666 15.7785 30.9132C15.6719 30.6697 15.5549 30.4136 15.4162 30.1586C15.1354 29.6425 14.7902 29.1783 14.3339 28.8741C13.7395 28.4779 13.0586 28.1665 12.3405 27.8381C12.2272 27.7863 12.1131 27.7341 11.9982 27.6811C11.2023 27.3137 10.3286 26.8894 9.71963 26.2804C8.69414 25.2549 6.25659 22.8226 4.83393 21.8741C3.81458 21.1946 3.48389 20.0635 3.84479 19.138C4.02294 18.6811 4.36926 18.2884 4.85397 18.0732C5.34196 17.8565 5.90891 17.8458 6.48713 18.0386C7.48496 18.3712 9.13373 19.2339 10.5 19.9798V6.25008L11.25 6.25008C10.5 6.25008 10.5 6.25046 10.5 6.25008L10.5 6.24854L10.5 6.24686L10.5 6.24304L10.5001 6.23368L10.5008 6.20825C10.5014 6.18842 10.5026 6.1628 10.5048 6.13219C10.5092 6.07124 10.5175 5.98906 10.5336 5.8924C10.5652 5.70266 10.6299 5.43819 10.7666 5.16465C10.9049 4.88817 11.124 4.58887 11.4667 4.36036C11.8142 4.12873 12.2437 4 12.7499 4C13.7378 4 14.3186 4.61844 14.613 5.12094C14.7601 5.37198 14.8517 5.61626 14.9067 5.79381C14.9346 5.88395 14.9542 5.9605 14.9672 6.01694C14.9738 6.04525 14.9787 6.06875 14.9823 6.08666L14.9867 6.10933L14.9881 6.11739L14.9887 6.12058L14.9889 6.12195C14.989 6.12226 14.9891 6.12319 14.2499 6.25008L14.9891 6.12319L14.9936 6.1492L15.9076 15.2887C16.6382 15.1385 17.6862 15 18.7499 15C19.8468 15 20.7654 15.2003 21.5943 15.5948C22.4159 15.9859 23.1101 16.5495 23.7803 17.2197C24.4388 17.8781 24.8507 19.0165 25.1042 20.0717C25.3674 21.1671 25.4999 22.3509 25.4999 23.25V30.25C25.4999 30.6642 25.1642 31 24.7499 31C24.3357 31 23.9999 30.6642 23.9999 30.25V23.25C23.9999 22.4742 23.8825 21.408 23.6457 20.4221C23.3992 19.3961 23.0611 18.6219 22.7196 18.2803C22.1151 17.6758 21.5592 17.2394 20.9496 16.9492C20.3471 16.6624 19.6531 16.5 18.7499 16.5C17.5854 16.5 16.437 16.6885 15.8502 16.8404C15.2632 16.9923 14.5332 16.6195 14.4604 15.8915L13.5074 6.36183C13.5069 6.35951 13.5063 6.357 13.5057 6.35431C13.4998 6.32871 13.4895 6.28807 13.4739 6.23758C13.4418 6.13387 13.3914 6.00312 13.3187 5.87914C13.1737 5.6316 13.0046 5.5 12.7499 5.5C12.5062 5.5 12.3733 5.55878 12.2988 5.60841C12.2197 5.66117 12.1576 5.73689 12.1083 5.83543C12.0576 5.93691 12.0285 6.04747 12.0132 6.13899C12.0059 6.18297 12.0025 6.21798 12.001 6.23906C12.0004 6.2478 12.0001 6.25386 12 6.25685Z" fill="#26C4F7"/>
</g>
<defs>
<clipPath id="clip0_2869_42361">
<rect width="32" height="32" fill="white"/>
</clipPath>
</defs>
</svg>
