<svg width="32" height="32" viewBox="0 0 32 32" fill="none" xmlns="http://www.w3.org/2000/svg">
<path d="M28.316 5.051L16.316 1.051C16.11 0.983 15.889 0.983 15.683 1.051L3.683 5.051C3.275 5.188 3 5.569 3 6V16C3 26.99 15.583 30.919 15.711 30.958C15.805 30.986 15.902 31 16 31C16.098 31 16.195 30.986 16.289 30.958C16.417 30.919 29 26.99 29 16V6C29 5.569 28.725 5.188 28.316 5.051ZM27 16C27 24.63 17.769 28.318 16 28.945C14.231 28.318 5 24.63 5 16V6.721L16 3.054L27 6.721V16Z" fill="#26C4F7"/>
<path d="M11.707 14.293C11.316 13.902 10.684 13.902 10.293 14.293C9.90201 14.684 9.90201 15.316 10.293 15.707L14.293 19.707C14.488 19.902 14.744 20 15 20C15.256 20 15.512 19.902 15.707 19.707L22.707 12.707C23.098 12.316 23.098 11.684 22.707 11.293C22.316 10.902 21.684 10.902 21.293 11.293L15 17.586L11.707 14.293Z" fill="#26C4F7"/>
</svg>
