<svg width="32" height="32" viewBox="0 0 32 32" fill="none" xmlns="http://www.w3.org/2000/svg">
<g clip-path="url(#clip0_2869_42499)">
<path fill-rule="evenodd" clip-rule="evenodd" d="M13.4416 19.6667H17.2545C18.5641 22.2246 21.1472 24 24.163 24C28.4835 24 32 20.4104 32 16C32 11.9781 29.0757 8.63873 25.2841 8.08167L24.0026 9.33531C24.0559 9.334 24.1093 9.33334 24.163 9.33334C27.7776 9.33334 30.6938 12.3102 30.6938 16C30.6938 19.6898 27.7776 22.6667 24.163 22.6667C21.5027 22.6667 19.2138 21.0386 18.1933 18.7187C18.1409 18.6036 18.0573 18.5063 17.9525 18.438C17.8476 18.3697 17.7258 18.3334 17.6015 18.3333H14.8046L13.4416 19.6667ZM13.1399 13.6667H4.13158L1.73353 15.6563L5.19285 18.1563L6.76434 16.8125C6.88176 16.7125 7.02982 16.6578 7.18272 16.6578C7.33563 16.6578 7.48369 16.7125 7.60111 16.8125L8.84289 17.8703L7.89114 18.8013L7.1827 18.1979L5.64183 19.5103C5.53112 19.6044 5.39303 19.6585 5.24908 19.6642C5.10512 19.6699 4.96336 19.6268 4.84588 19.5417L0.274277 16.2396C0.192103 16.1799 0.124602 16.1015 0.0770645 16.0107C0.0295271 15.9199 0.00324611 15.819 0.000282033 15.7161C-0.00268204 15.6132 0.0177514 15.511 0.0599802 15.4174C0.102209 15.3239 0.165085 15.2416 0.243679 15.1771L3.50911 12.4792C3.625 12.3847 3.76895 12.3332 3.91729 12.3333H14.5028L13.1399 13.6667ZM23.8364 16C23.8364 14.5351 25.0137 13.3333 26.4488 13.3333C27.8838 13.3333 29.0611 14.5351 29.0611 16C29.0611 17.4649 27.8838 18.6667 26.4488 18.6667C25.0137 18.6667 23.8364 17.4649 23.8364 16ZM27.7549 16C27.7549 15.2557 27.1779 14.6667 26.4488 14.6667C25.7197 14.6667 25.1426 15.2557 25.1426 16C25.1426 16.7443 25.7197 17.3333 26.4488 17.3333C27.1779 17.3333 27.7549 16.7443 27.7549 16Z" fill="#26C4F7"/>
<path fill-rule="evenodd" clip-rule="evenodd" d="M26.0606 4.01166C26.3503 4.30776 26.345 4.7826 26.049 5.07226L5.5 25.5C5.20391 25.7897 4.72906 25.7844 4.4394 25.4883C4.14975 25.1923 4.15496 24.7174 4.45106 24.4277L25 4.00001C25.2961 3.71035 25.7709 3.71557 26.0606 4.01166Z" fill="#26C4F7"/>
</g>
<defs>
<clipPath id="clip0_2869_42499">
<rect width="32" height="32" fill="white"/>
</clipPath>
</defs>
</svg>
