<svg width="32" height="32" viewBox="0 0 32 32" fill="none" xmlns="http://www.w3.org/2000/svg">
<path d="M13.1519 25.3979H13.1518C12.8977 25.3973 12.6514 25.313 12.4561 25.1587C12.2718 25.0134 12.1435 24.8144 12.0915 24.593H1.94989L1.94989 25.7478L1.94989 25.7478M13.1519 25.3979L2.33012 26.1528C2.09261 26.1524 1.90009 25.9714 1.89989 25.7478H1.94989M13.1519 25.3979H18.8459H18.8461C19.1001 25.3973 19.3465 25.3129 19.5419 25.1587C19.7261 25.0134 19.8544 24.8144 19.9064 24.593H30.0496L30.0498 25.7477C30.0496 25.9409 29.8823 26.1024 29.6695 26.1028H2.33021M13.1519 25.3979L2.33021 26.1028M1.94989 25.7478C1.95009 25.9409 2.11734 26.1024 2.33021 26.1028M1.94989 25.7478L2.33021 26.1028M30.5498 23.6458H29.2017V7.63253V7.63247C29.2008 6.92031 28.8999 6.23818 28.3661 5.73559C27.8321 5.23295 27.1088 4.95082 26.3552 4.95H26.3551L5.64457 4.95L5.64452 4.95C4.89101 4.9508 4.16821 5.23273 3.63425 5.73476L3.63424 5.73478C3.10037 6.23711 2.79926 6.91887 2.79801 7.63083V7.63092V23.6442H1.44991C1.17679 23.6442 0.95 23.8535 0.95 24.1177L0.95 25.7478L0.95 25.7478C0.950436 26.094 1.09668 26.4253 1.35557 26.6692L1.35558 26.6692C1.61459 26.913 1.96513 27.0496 2.33024 27.05H2.33029H29.6697H29.6698C30.0349 27.0496 30.3854 26.913 30.6444 26.6692L30.6444 26.6692C30.9033 26.4253 31.0496 26.094 31.05 25.7478V25.7478V24.1195C31.05 23.9927 30.9964 23.8722 30.9025 23.7835L30.9024 23.7835C30.8085 23.6951 30.6813 23.6458 30.5498 23.6458ZM4.64651 7.99047V23.6457H3.79792L3.79821 7.63256C3.79821 7.63255 3.79821 7.63254 3.79821 7.63253C3.79842 7.17323 3.99203 6.73204 4.33808 6.40607L4.33809 6.40606C4.68406 6.08 5.15407 5.89606 5.64479 5.89547H26.3552C26.3552 5.89547 26.3553 5.89547 26.3553 5.89547C26.8458 5.89606 27.3154 6.0798 27.6614 6.40547C28.0072 6.73105 28.2012 7.17191 28.2019 7.63099V23.6442H27.3533V7.99047V7.99041C27.3528 7.64424 27.2064 7.31289 26.9475 7.0692C26.6885 6.8254 26.3382 6.68885 25.9733 6.68824H25.9732L6.02658 6.68824L6.02649 6.68824C5.66161 6.68885 5.31128 6.8254 5.05229 7.06921C4.79341 7.3129 4.64694 7.64424 4.64651 7.99041V7.99047ZM12.9188 23.7836L12.9187 23.7835C12.8246 23.6952 12.6978 23.6458 12.5662 23.6458H5.64662V7.99062C5.6468 7.79744 5.81407 7.63593 6.02673 7.63557H25.9732C26.1858 7.63593 26.3531 7.79744 26.3533 7.99062V23.6458H19.4338C19.1604 23.6458 18.9339 23.8551 18.9339 24.1195V24.3718C18.9336 24.4127 18.8976 24.4506 18.8469 24.4507H13.1531C13.1025 24.4506 13.0664 24.4127 13.0661 24.3717C13.0661 24.3717 13.0661 24.3716 13.0661 24.3716L13.0661 24.1194C13.0661 23.9926 13.0128 23.8722 12.9188 23.7836Z" fill="#26C4F7" stroke="#26C4F7" stroke-width="0.1"/>
<path d="M13.8637 18.5742L13.0493 11.4326C13.03 11.2627 13.2188 11.1484 13.3603 11.2444L19.5803 15.4635C19.7305 15.5654 19.6783 15.7986 19.499 15.8266L17.8163 16.09C17.6749 16.1122 17.6019 16.2714 17.6773 16.393L19.1827 18.8217C19.2445 18.9214 19.2076 19.0527 19.1028 19.1056L17.4919 19.9188C17.4005 19.965 17.289 19.9347 17.2336 19.8486L15.6915 17.4542C15.6207 17.3444 15.4654 17.3308 15.3766 17.4267L14.2091 18.6874C14.0929 18.8129 13.883 18.7441 13.8637 18.5742Z" fill="#26C4F7"/>
</svg>
