<svg width="32" height="32" viewBox="0 0 32 32" fill="none" xmlns="http://www.w3.org/2000/svg">
<g clip-path="url(#clip0_2217_40010)">
<path d="M11.3499 4.73936H6.09627C5.87244 4.73936 5.65768 4.90506 5.55171 5.11714L5.55115 5.11686L5.54875 5.12445C5.50626 5.2591 5.53051 5.39183 5.59778 5.51965C5.66447 5.64638 5.77455 5.77073 5.90872 5.89312C6.12394 6.08943 6.41005 6.28831 6.6993 6.48938C6.76999 6.53852 6.84086 6.58778 6.91094 6.63717C7.2709 6.8909 7.6098 7.1479 7.813 7.4137C7.91415 7.54601 7.97922 7.67745 7.99819 7.8089C8.01698 7.93906 7.9912 8.0734 7.90325 8.21421L7.90322 8.21419L7.90224 8.2159C7.7182 8.5382 7.30297 8.63426 6.97533 8.44995C6.96957 8.44511 6.96316 8.44065 6.95745 8.43689C6.94882 8.43119 6.93837 8.42485 6.92671 8.41811C6.90335 8.40459 6.87334 8.38838 6.83954 8.37068C6.77195 8.33529 6.68724 8.29291 6.60622 8.25237L6.60598 8.25225C6.52455 8.2115 6.44705 8.17272 6.393 8.14413C6.36566 8.12967 6.34576 8.11857 6.33452 8.11143C6.33062 8.10896 6.32917 8.10783 6.32916 8.10785C6.32915 8.10786 6.33016 8.1087 6.33158 8.11026C6.33259 8.11136 6.33597 8.11512 6.33884 8.12116C6.34146 8.1267 6.34733 8.14221 6.33975 8.16059C6.33836 8.16395 6.33672 8.16693 6.33493 8.16957C6.32258 8.1627 6.31262 8.15685 6.30556 8.15226L6.31921 8.09626C5.33709 7.5873 4.63635 7.25607 4.1231 7.01348C3.90493 6.91036 3.72065 6.82325 3.56303 6.74531C3.03478 6.48411 2.80657 6.32622 2.58913 6.01221L0.940545 3.41258C0.78174 3.1483 0.452163 3.02538 0.220271 3.19721C0.0826973 3.28075 0.00184583 3.41794 -0.0316105 3.55856C-0.0650758 3.69922 -0.05256 3.84909 0.00354354 3.96137L0.00319571 3.96155L0.00665961 3.96675C0.381019 4.52869 0.671164 4.997 0.912322 5.39219C0.960229 5.47069 1.00624 5.54637 1.05062 5.61937C1.22937 5.9134 1.38164 6.16387 1.52483 6.38007C1.88376 6.92199 2.18937 7.25435 2.72417 7.53469L2.72437 7.5348L5.49645 8.97137V14.6432C5.49645 14.8046 5.55044 14.943 5.64854 15.0412C5.74665 15.1393 5.88497 15.1934 6.04629 15.1934H8.45676C8.72469 16.196 9.63383 16.9941 10.7447 16.9941C11.8551 16.9941 12.7655 16.2451 13.0332 15.1934H15.4432C15.6045 15.1934 15.7428 15.1393 15.8409 15.0412C15.939 14.943 15.993 14.8046 15.993 14.6432V11.7421C15.993 11.5806 15.939 11.4422 15.8409 11.3441C15.7428 11.2459 15.6045 11.1919 15.4432 11.1919C14.7711 11.1919 14.1936 10.614 14.1936 9.94135C14.1936 9.65769 14.3358 9.37002 14.5654 9.15232C14.7947 8.93491 15.1076 8.79089 15.4432 8.79089C15.6045 8.79089 15.7428 8.73686 15.8409 8.63868C15.939 8.5405 15.993 8.4021 15.993 8.24069V5.33957C15.993 5.17816 15.939 5.03976 15.8409 4.94159C15.7428 4.84341 15.6045 4.78938 15.4432 4.78938H12.6692C12.4525 4.49817 12.2735 4.2128 12.1065 3.94025C12.0845 3.90437 12.0627 3.86868 12.041 3.83323C11.8947 3.59381 11.7547 3.36468 11.6039 3.15344C11.2563 2.66637 10.8486 2.27041 10.1611 2.04098C10.161 2.04095 10.1609 2.04091 10.1608 2.04088L4.2633 -0.00971205L4.26331 -0.00971583L4.2627 -0.00991622C4.10439 -0.0627263 3.95352 -0.0645781 3.8267 -0.00817063C3.69944 0.0484294 3.60376 0.160422 3.55012 0.320453C3.44147 0.594737 3.6022 0.926967 3.88312 0.986058C6.08163 1.80863 7.51301 2.2802 8.47186 2.5961C8.76583 2.69295 9.01539 2.77517 9.22902 2.84838C9.68538 3.00478 9.97424 3.11896 10.1831 3.24556C10.3893 3.37062 10.5185 3.5085 10.6528 3.71608L10.6528 3.71609L10.6534 3.71708L11.3499 4.73936ZM13.0939 10.0414C13.0939 11.1513 13.8412 12.0634 14.8933 12.2832V14.143H12.5441C12.3828 14.143 12.2445 14.197 12.1464 14.2952C12.0483 14.3934 11.9943 14.5318 11.9943 14.6932C11.9943 15.3659 11.4169 15.9437 10.7447 15.9437C10.0726 15.9437 9.49516 15.3659 9.49516 14.6932C9.49516 14.5318 9.44118 14.3934 9.34308 14.2952C9.24497 14.197 9.10665 14.143 8.94533 14.143H6.59612V9.56766C7.52042 9.95261 8.37527 9.53045 8.80032 8.84862C9.23655 8.14887 9.22412 7.16942 8.37692 6.50111C8.37678 6.501 8.37663 6.50089 8.37649 6.50077L7.6351 5.88976H14.8933V7.75182C13.8914 8.01995 13.0939 8.92976 13.0939 10.0414Z" fill="#26C4F7" stroke="#26C4F7" stroke-width="0.1"/>
<path d="M20.9676 27.6487C20.8706 27.4898 20.7653 27.3216 20.6402 27.148C21.9308 27.1484 22.9247 27.1561 23.6915 27.1621C24.6065 27.1693 25.1983 27.1739 25.5853 27.1605C25.7656 27.1542 25.9033 27.1439 26.0096 27.1279C26.1154 27.1119 26.1933 27.0896 26.252 27.0574C26.3688 26.9931 26.3983 26.894 26.4319 26.7808C26.4337 26.7746 26.4356 26.7684 26.4374 26.7622L26.4376 26.7616C26.4918 26.5719 26.4514 26.4321 26.3879 26.3332C26.3399 26.2585 26.274 26.2036 26.2418 26.1768C26.2339 26.1703 26.2281 26.1654 26.225 26.1623L26.2242 26.1615C25.9218 25.8715 25.5977 25.626 25.2925 25.4067C25.2071 25.3453 25.1233 25.2862 25.042 25.2287C24.8316 25.08 24.6373 24.9427 24.4717 24.8083C24.2416 24.6216 24.0753 24.4469 24.0007 24.2654C23.9281 24.0888 23.9399 23.8994 24.0826 23.6733L24.0827 23.6731C24.2016 23.4829 24.341 23.3919 24.4851 23.3585C24.631 23.3247 24.7881 23.3485 24.9429 23.4002C25.0977 23.4518 25.2458 23.5296 25.3729 23.5991C25.387 23.6068 25.4009 23.6144 25.4145 23.6219C25.4618 23.6478 25.5059 23.6721 25.545 23.6919C25.5911 23.7153 25.6349 23.7351 25.6719 23.7439C26.7079 24.3177 27.4294 24.6793 27.9488 24.9396C28.1295 25.0301 28.2857 25.1084 28.4221 25.1791C28.9509 25.453 29.1793 25.611 29.3969 25.9251L31.0458 28.5253L31.0458 28.5253C31.1406 28.6744 31.2713 28.7548 31.4091 28.7784C31.5458 28.8017 31.6861 28.7687 31.8016 28.6974C31.917 28.626 32.01 28.5148 32.0497 28.3789C32.0898 28.2421 32.0748 28.0841 31.9809 27.9231L31.981 27.9231L31.979 27.9202C31.6048 27.3708 31.3147 26.9089 31.0736 26.5161C31.0056 26.4054 30.9415 26.3 30.8803 26.1997C30.725 25.9446 30.5895 25.722 30.4613 25.5262C30.1027 24.9785 29.7971 24.6332 29.2618 24.3526L29.2618 24.3526L29.2607 24.3521L26.4395 22.9653V17.2942C26.4395 17.1328 26.3856 16.9944 26.2875 16.8962C26.1894 16.798 26.051 16.744 25.8897 16.744H23.4792C23.2113 15.7413 22.3022 14.9433 21.1913 14.9433C20.0809 14.9433 19.1705 15.6922 18.9028 16.744H16.4928C16.3315 16.744 16.1932 16.798 16.0951 16.8962C15.997 16.9944 15.943 17.1328 15.943 17.2942V20.1953C15.943 20.3567 15.997 20.4951 16.0951 20.5933C16.1932 20.6915 16.3315 20.7455 16.4928 20.7455C17.1649 20.7455 17.7424 21.3233 17.7424 21.996H17.7422L17.7425 21.9998C17.79 22.6174 17.2172 23.1965 16.5428 23.1965C16.3815 23.1965 16.2432 23.2505 16.1451 23.3487C16.0469 23.4469 15.993 23.5853 15.993 23.7467V26.6478C15.993 26.8092 16.0469 26.9476 16.1451 27.0458C16.2432 27.144 16.3815 27.198 16.5428 27.198H19.3168C19.5335 27.4892 19.7124 27.7746 19.8795 28.0471C19.9015 28.083 19.9233 28.1187 19.945 28.1542C20.0913 28.3936 20.2313 28.6227 20.3821 28.8339C20.7297 29.321 21.1374 29.717 21.825 29.9464C24.9236 31.0217 26.3979 31.5468 27.1162 31.8031L27.1834 31.8271C27.4967 31.9389 27.6521 31.9943 27.7371 32.0217C27.7823 32.0362 27.8103 32.0438 27.8327 32.0472C27.8519 32.0502 27.8669 32.0501 27.8807 32.0499C27.8835 32.0499 27.8863 32.0499 27.889 32.0499C28.1102 32.0499 28.3296 31.8864 28.3866 31.6652C28.4956 31.3869 28.3288 31.0616 28.0576 30.9531L28.0576 30.953L28.0558 30.9524L22.1577 28.8516L22.1576 28.8515C21.7456 28.706 21.5033 28.4644 21.2885 28.1572C21.1986 28.0287 21.114 27.8896 21.0236 27.7407C21.0052 27.7104 20.9866 27.6798 20.9676 27.6487ZM17.0926 19.7045V17.8444H19.4418C19.6032 17.8444 19.7415 17.7903 19.8396 17.6922C19.9377 17.594 19.9917 17.4556 19.9917 17.2942C19.9917 16.6215 20.5691 16.0437 21.2412 16.0437C21.9134 16.0437 22.4908 16.6215 22.4908 17.2942C22.4908 17.4556 22.5448 17.594 22.6429 17.6922C22.741 17.7903 22.8793 17.8444 23.0407 17.8444H25.3899V22.4197C24.6271 22.1065 23.647 22.3711 23.149 23.1187L23.149 23.1187L23.1481 23.1202C22.88 23.5545 22.8142 23.9512 22.8734 24.3059C22.9324 24.6594 23.1146 24.966 23.3337 25.2234C23.5528 25.4808 23.8109 25.6913 24.0251 25.8523C24.0925 25.9029 24.1565 25.9493 24.2133 25.9905C24.2463 26.0145 24.2768 26.0366 24.3042 26.0568C24.3242 26.0716 24.3423 26.0851 24.3585 26.0976H17.0926V24.2356C18.0946 23.9674 18.892 23.0576 18.892 21.946C18.892 20.8356 18.0959 19.9249 17.0926 19.7045Z" fill="#26C4F7" stroke="#26C4F7" stroke-width="0.1"/>
<path d="M25.8898 13.8928C26.0511 13.8928 26.1894 13.8388 26.2875 13.7406C26.3856 13.6425 26.4396 13.5041 26.4396 13.3427V5.33955C26.4396 5.17814 26.3856 5.03974 26.2875 4.94157C26.1894 4.84339 26.0511 4.78936 25.8898 4.78936H17.8924C17.7311 4.78936 17.5928 4.84339 17.4947 4.94157C17.3966 5.03974 17.3426 5.17814 17.3426 5.33955V13.3427C17.3426 13.5041 17.3966 13.6425 17.4947 13.7406C17.5928 13.8388 17.7311 13.8928 17.8924 13.8928H25.8898ZM18.4422 5.88974H25.3399V12.7925H18.4422V5.88974Z" fill="#26C4F7" stroke="#26C4F7" stroke-width="0.1"/>
<path d="M6.09627 18.0945C5.93495 18.0945 5.79663 18.1486 5.69852 18.2467C5.60042 18.3449 5.54644 18.4833 5.54644 18.6447V26.6478C5.54644 26.8092 5.60042 26.9476 5.69852 27.0458C5.79663 27.144 5.93495 27.198 6.09627 27.198H14.0936C14.255 27.198 14.3933 27.144 14.4914 27.0458C14.5895 26.9476 14.6435 26.8092 14.6435 26.6478V18.6447C14.6435 18.4833 14.5895 18.3449 14.4914 18.2467C14.3933 18.1486 14.255 18.0945 14.0936 18.0945H6.09627ZM13.5438 26.0976H6.64611V19.1949H13.5438V26.0976Z" fill="#26C4F7" stroke="#26C4F7" stroke-width="0.1"/>
</g>
<defs>
<clipPath id="clip0_2217_40010">
<rect width="32" height="32" fill="white"/>
</clipPath>
</defs>
</svg>
