<svg width="85" height="85" viewBox="0 0 85 85" fill="none" xmlns="http://www.w3.org/2000/svg">
<path d="M56.9671 33.5922L18.0625 72.4968L12.5033 66.9375L36.0016 43.4392L36.9408 42.5L36.0016 41.5609L29.9808 35.5401L29.0417 34.601L28.1026 35.5401L26.5625 37.0801L22.986 33.5036L21.8001 32.3178L20.7188 31.2364L19.5329 30.0505L16.0449 26.5625L27.6787 14.9288C28.7484 13.859 29.8669 13.1142 31.0309 12.6587C32.2389 12.186 33.4621 11.9532 34.7084 11.9532C35.9546 11.9532 37.1779 12.186 38.3858 12.6587C39.1954 12.9755 39.983 13.4323 40.7475 14.041L33.5921 21.1963L32.653 22.1355L33.5921 23.0746L37.0801 26.5625L35.5401 28.1026L34.6009 29.0417L35.5401 29.9808L41.5609 36.0017L42.5 36.9408L43.4391 36.0017L51.4079 28.0329L52.006 27.4348L51.7169 26.6399C51.5038 26.0537 51.3297 25.4369 51.1957 24.7885C51.067 24.1661 51.0022 23.5471 51 22.9302C51.0005 19.7891 52.0646 17.1939 54.1987 15.0598C56.3333 12.9252 58.9277 11.8625 62.0668 11.8646H62.0677C62.8643 11.8646 63.6091 11.9442 64.3052 12.0987C64.3973 12.1192 64.4898 12.141 64.5827 12.1641L57.3213 19.4255L56.3822 20.3646L57.3213 21.3038L63.6963 27.6788L64.6354 28.6179L65.5746 27.6788L72.8802 20.3731C72.9019 20.4665 72.9213 20.5592 72.9385 20.6512C73.0706 21.3578 73.1376 22.1162 73.1354 22.9288V22.9323C73.1354 26.0748 72.0722 28.6708 69.9398 30.8053C67.8082 32.9391 65.213 34.0022 62.0686 34H62.0677C61.4336 34 60.7982 33.9472 60.1611 33.841C59.5663 33.7419 58.9989 33.5691 58.4559 33.3222L57.618 32.9414L56.9671 33.5922ZM20.7188 34.4428V41.153L19.5677 42.3041L10.7324 33.4688L11.8835 32.3178H18.5938H20.7188V34.4428ZM72.4968 66.9375L66.9375 72.4968L49.4251 54.9844L54.9844 49.4252L72.4968 66.9375Z" stroke="white" stroke-width="2.65625"/>
</svg>
