<svg width="85" height="85" viewBox="0 0 85 85" fill="none" xmlns="http://www.w3.org/2000/svg">
<g clip-path="url(#clip0_1_607)">
<path fill-rule="evenodd" clip-rule="evenodd" d="M30.2141 48.1335C31.3269 48.4815 32.7436 49.2645 34.2479 51.1971C35.6282 52.9705 36.0532 55.7518 36.0586 58.317C36.0612 59.5633 35.9653 60.6878 35.8683 61.5013C35.8446 61.7005 35.8906 62.7765 35.8683 62.9343L35.8683 71.485L30.9706 71.485L25.4201 71.485L25.3195 67.6676L25.0521 66.4843L24.7848 65.3009L24.1492 62.9343C24.1492 62.9343 23.272 60.7266 22.3726 59.9504L10.3207 49.5494C10.1974 49.443 10.1075 49.3033 10.0618 49.147L4.8064 31.175L5.99879 31.3817C7.45669 31.6343 8.73141 32.5114 9.48838 33.7827L14.4069 42.0433C14.092 42.5745 13.9081 43.1176 13.8404 43.6603C13.7411 44.4571 13.9032 45.1645 14.1383 45.7282C14.3713 46.2868 14.6852 46.7281 14.9315 47.0243C15.0565 47.1748 15.1696 47.2942 15.255 47.3793C15.2979 47.422 15.3343 47.4565 15.3624 47.4824L15.3981 47.5149L15.411 47.5263L15.4161 47.5307L15.4183 47.5326C15.4183 47.5326 15.4203 47.5344 16.2403 46.5842L15.4203 47.5344L21.0161 52.3637C21.5459 52.8209 22.3461 52.7621 22.8033 52.2323C23.2605 51.7025 23.2017 50.9023 22.6719 50.4451L17.0828 45.6216L17.0811 45.6201C17.075 45.6145 17.0619 45.6022 17.0433 45.5836C17.0057 45.5461 16.9475 45.4851 16.8801 45.4041C16.7414 45.2373 16.5851 45.0113 16.4773 44.7527C16.3715 44.4992 16.3221 44.2394 16.3552 43.9737C16.3872 43.7175 16.5064 43.3667 16.8789 42.935C17.4111 42.3184 18.0161 42.0566 18.5919 41.9587C19.1379 41.8658 19.7077 41.9855 20.3484 42.3107C21.0027 42.6429 21.6529 43.1496 22.3252 43.7298L26.9353 47.7084L27.316 47.7558C27.6203 47.7938 27.9006 47.806 28.1826 47.8182C28.7733 47.844 29.3715 47.87 30.2141 48.1335ZM16.2454 40.1774L11.6659 32.4862C10.5304 30.5792 8.61835 29.2636 6.43149 28.8846L4.23753 28.5044C2.85152 28.2643 1.69389 29.5606 2.0887 30.9107L7.62938 49.8583C7.81219 50.4834 8.1718 51.0424 8.6649 51.468L20.7168 61.869C21.2011 62.2869 21.5368 62.8507 21.6735 63.4757C21.6735 63.4757 22.926 66.3585 23.3084 68.3172C23.8615 71.1503 23.3084 73.5969 23.3084 73.5969L30.9706 73.5969L35.9795 73.5969L38.1668 73.5969L38.1669 63.2661L36.9233 63.0232C38.1669 63.2661 38.1669 63.2661 38.1669 63.2661L38.1677 63.2622L38.169 63.2553L38.1733 63.2325L38.1881 63.1517C38.2005 63.0826 38.2176 62.9835 38.2379 62.8575C38.2785 62.6056 38.3319 62.2453 38.3848 61.8013C38.4904 60.9153 38.5957 59.6854 38.5929 58.3117C38.5873 55.637 38.1746 52.1161 36.2478 49.6405C34.4449 47.3243 32.6038 46.2255 30.9706 45.7148C29.7857 45.3442 28.5873 45.2881 27.9789 45.2615L23.9809 41.8112C23.2784 41.2049 22.4369 40.5289 21.4956 40.051C20.5408 39.5663 19.4112 39.2486 18.1669 39.4603C17.5396 39.567 16.8796 39.7872 16.2454 40.1774Z" fill="white"/>
<path fill-rule="evenodd" clip-rule="evenodd" d="M52.8386 47.4842C51.7259 47.8322 50.3091 48.6152 48.8049 50.5478C47.4245 52.3213 46.9995 55.1025 46.9941 57.6677C46.9915 58.914 47.0874 60.0385 47.1844 60.852C47.2081 61.0512 47.1622 62.1272 47.1844 62.285L47.1844 70.8357L52.0822 70.8357L57.6326 70.8357L57.7332 67.0183L58.0006 65.835L58.268 64.6516L58.9035 62.285C58.9035 62.285 59.7807 60.0773 60.6802 59.3011L72.7321 48.9001C72.8553 48.7937 72.9452 48.654 72.9909 48.4977L78.2463 30.5258L77.0539 30.7324C75.596 30.985 74.3213 31.8621 73.5644 33.1334L68.6458 41.394C68.9608 41.9252 69.1447 42.4683 69.2123 43.011C69.3116 43.8079 69.1496 44.5152 68.9145 45.0789C68.6815 45.6375 68.3676 46.0789 68.1213 46.375C67.9962 46.5255 67.8832 46.6449 67.7977 46.73C67.7548 46.7727 67.7184 46.8072 67.6904 46.8331L67.6546 46.8656L67.6418 46.877L67.6367 46.8814L67.6344 46.8833C67.6344 46.8833 67.6325 46.8851 66.8125 45.9349L67.6325 46.8851L62.0366 51.7144C61.5068 52.1716 60.7067 52.1128 60.2494 51.583C59.7922 51.0532 59.851 50.253 60.3808 49.7958L65.97 44.9723L65.9716 44.9708C65.9777 44.9652 65.9908 44.9529 66.0095 44.9343C66.0471 44.8968 66.1052 44.8358 66.1726 44.7548C66.3113 44.588 66.4676 44.362 66.5755 44.1034C66.6812 43.8499 66.7306 43.5901 66.6975 43.3244C66.6656 43.0682 66.5464 42.7174 66.1738 42.2857C65.6417 41.6691 65.0366 41.4073 64.4608 41.3094C63.9149 41.2165 63.345 41.3362 62.7043 41.6615C62.05 41.9936 61.3998 42.5003 60.7276 43.0805L56.1174 47.0591L55.7367 47.1065C55.4324 47.1445 55.1521 47.1567 54.8701 47.169C54.2795 47.1947 53.6813 47.2207 52.8386 47.4842ZM66.8073 39.5281L71.3869 31.8369C72.5223 29.9299 74.4344 28.6143 76.6212 28.2353L78.8152 27.8551C80.2012 27.615 81.3588 28.9113 80.964 30.2614L75.4234 49.209C75.2405 49.8341 74.8809 50.3931 74.3878 50.8187L62.3359 61.2197C61.8516 61.6377 61.5159 62.2014 61.3793 62.8264C61.3793 62.8264 60.1268 65.7092 59.7444 67.6679C59.1913 70.501 59.7443 72.9476 59.7443 72.9476L52.0822 72.9476L47.0732 72.9476L44.886 72.9476L44.8858 62.6168L46.1294 62.3739C44.8858 62.6168 44.8858 62.6168 44.8858 62.6168L44.8851 62.6129L44.8837 62.606L44.8794 62.5832L44.8646 62.5024C44.8523 62.4333 44.8351 62.3342 44.8148 62.2082C44.7742 61.9563 44.7209 61.596 44.6679 61.152C44.5623 60.266 44.457 59.0361 44.4599 57.6624C44.4655 54.9877 44.8782 51.4668 46.805 48.9912C48.6078 46.675 50.449 45.5762 52.0822 45.0655C53.2671 44.6949 54.4655 44.6389 55.0738 44.6122L59.0718 41.1619C59.7743 40.5556 60.6158 39.8796 61.5571 39.4017C62.512 38.917 63.6416 38.5993 64.8858 38.811C65.5131 38.9177 66.1731 39.1379 66.8073 39.5281Z" fill="white"/>
<path fill-rule="evenodd" clip-rule="evenodd" d="M40.9658 18.5938L42.1596 21.1406L43.5126 21.5385L46.0594 20.7426L48.0491 22.7323L47.1737 25.2791L47.7308 26.5526L50.198 27.826V30.6115L47.7308 31.8054L47.2532 33.1584L48.0491 35.7052L46.0594 37.6949L43.5126 36.8194L42.2392 37.3765L40.9658 39.8438H38.1802L36.9864 37.3765L35.713 36.899L33.0866 37.6949L31.0969 35.7052L32.0519 33.1584L31.4152 31.8849L29.0276 30.6115L28.948 27.826L31.4948 26.6321L31.8928 25.3587L31.0969 22.7323L33.0866 20.7426L35.6334 21.6977L36.9068 21.061L38.1802 18.6733L40.9658 18.5938ZM39.6128 25.3587C41.6821 25.3587 43.433 27.1097 43.433 29.2585C43.433 31.3278 41.6821 33.0788 39.6128 33.0788C37.4639 33.0788 35.713 31.3278 35.713 29.2585C35.713 27.1097 37.4639 25.3587 39.6128 25.3587Z" stroke="white" stroke-width="2.65625"/>
<path fill-rule="evenodd" clip-rule="evenodd" d="M53.7892 6.32922L54.0479 7.97899L54.7533 8.43001L56.3372 8.39819L57.1419 9.86218L56.2209 11.1691L56.3275 11.9874L57.5232 13.1222L57.0617 14.7103L55.4573 14.9822L54.9609 15.6744L54.9927 17.2583L53.5287 18.063L52.2218 17.142L51.4035 17.2486L50.2688 18.4443L48.6806 17.9828L48.4088 16.3784L47.7619 15.8952L46.1327 15.9138L45.3279 14.4498L46.2943 13.1561L46.1423 12.3246L44.992 11.203L45.4081 9.60172L47.0579 9.34303L47.4957 8.68296L47.4771 7.05374L48.9411 6.249L50.2349 7.21543L51.0664 7.06339L52.1879 5.91311L53.7892 6.32922ZM51.8971 9.96192C53.0768 10.3047 53.785 11.5931 53.429 12.8182C53.0862 13.9979 51.7979 14.7061 50.6181 14.3633C49.393 14.0073 48.6848 12.719 49.0277 11.5392C49.3837 10.3141 50.672 9.60592 51.8971 9.96192Z" fill="white"/>
</g>
<defs>
<clipPath id="clip0_1_607">
<rect width="85" height="85" fill="white"/>
</clipPath>
</defs>
</svg>
